<svg xmlns="http://www.w3.org/2000/svg" xmlns:xlink="http://www.w3.org/1999/xlink" width="1920" height="328.674" viewBox="0 0 1920 328.674"><defs><clipPath id="a"><rect width="1920" height="328.674" transform="translate(-359.948 283.65)" fill="none"/></clipPath></defs><g transform="translate(0 -146)"><rect width="1919.895" height="328.674" transform="translate(0 146)" fill="#52bce9"/><g transform="translate(359.948 -137.649)"><g clip-path="url(#a)"><path d="M644.776,495.755a1.619,1.619,0,0,1,1.758-1.456l7.662.436a1.615,1.615,0,0,1,1.58,1.646l-.308,5.4a1.618,1.618,0,0,1-1.756,1.454l-7.662-.436a1.621,1.621,0,0,1-1.581-1.644Z" fill="#eaa87b"/><path d="M621.6,533.914" fill="#2b2f7a"/><path d="M641.423,496.968a1.448,1.448,0,0,1,.625-2.026h0a1.7,1.7,0,0,1,1.986,1.093l1.919,4.413a1.439,1.439,0,0,1-.633,2.025h0a1.7,1.7,0,0,1-1.981-1.089Z" fill="#eaa87b"/><path d="M643.007,497.367a1.32,1.32,0,0,1-1.733-.962h0a1.655,1.655,0,0,1,1.273-1.769l4.254-1.14a1.312,1.312,0,0,1,1.731.968h0a1.661,1.661,0,0,1-1.27,1.766Z" fill="#eaa87b"/><path d="M652.249,494.88a1.825,1.825,0,0,1,1.968-1.682h0a1.834,1.834,0,0,1,1.732,1.933l-.335,5.1a1.821,1.821,0,0,1-1.968,1.681h0a1.832,1.832,0,0,1-1.736-1.929Z" fill="#eaa87b"/><path d="M644.621,494.08a11.343,11.343,0,0,0-.138,2.892l.392-.112.126-2.885Z" fill="#1c1b19" opacity="0.29" style="mix-blend-mode:multiply;isolation:isolate"/><path d="M648.562,494.483a2.043,2.043,0,0,1,1.968-2.1h0a2.056,2.056,0,0,1,1.735,2.308l-.341,6.241a2.039,2.039,0,0,1-1.969,2.094h0a2.062,2.062,0,0,1-1.737-2.307Z" fill="#eaa87b"/><path d="M645.06,488.93a1.99,1.99,0,0,1,1.978-1.969h0a1.909,1.909,0,0,1,1.731,2.089l-.378,9.138a1.936,1.936,0,0,1-1.916,1.97h0a1.957,1.957,0,0,1-1.8-2.089Z" fill="#eaa87b"/><g opacity="0.6" style="mix-blend-mode:multiply;isolation:isolate"><path d="M655.374,501.489l.243-2.233-2.07,1.477-1.312-2.481-1.841,1.783-1.9-1.632-1.067,1.933-2.072-2.253-1.435,2.042.438.845,3.49.7,4.847.567Z" fill="#1c1b19"/></g><path d="M640.676,533.781l1.731-33.332-.217-2.21,2.77,2.387,1.164-2.686,1.989,2.267,1.91-2.057.943,2.759,2.355-2.582,1.34,2.474,2.2-1.773-.853,3.992-1.693,31.494a5.183,5.183,0,0,1-.631,2.057,6.3,6.3,0,0,1-4.355,2.812C646.3,539.916,642.749,537.693,640.676,533.781Z" fill="#703f19"/><path d="M652.711,537.819l-21.825,31.539c-4.4,6.361-7.6,5.61-10.707,3.461-4.2-2.907,1.214-13.751,6.091-20.8l15.208-21.976" fill="#703f19"/><ellipse cx="31.648" cy="3.857" rx="31.648" ry="3.857" transform="translate(569.125 665.811)" fill="#2a4f99" opacity="0.9" style="mix-blend-mode:soft-light;isolation:isolate"/><path d="M582.068,665.975a1.573,1.573,0,0,0,1.693,1.41l7.825.037a1.575,1.575,0,0,0,1.708-1.4l.022-4.887a1.574,1.574,0,0,0-1.694-1.412l-7.825-.037a1.574,1.574,0,0,0-1.706,1.4Z" fill="#eba87b"/><path d="M579.3,666.207a1.486,1.486,0,0,0,.493,1.99h0c.621.257,1.4-.218,1.754-1.061l1.783-4.31a1.487,1.487,0,0,0-.493-1.991h0c-.621-.256-1.406.22-1.755,1.062Z" fill="#eba87b"/><path d="M596.272,669.725a1.617,1.617,0,0,0,1.916-1.217h0a1.614,1.614,0,0,0-1.506-1.7l-4.835-.68a1.615,1.615,0,0,0-1.916,1.215h0a1.617,1.617,0,0,0,1.506,1.7Z" fill="#eba87b"/><path d="M592.336,670.841a1.785,1.785,0,0,0,2.348-.812h0a1.787,1.787,0,0,0-1.368-2.074l-5.259-1.784a1.784,1.784,0,0,0-2.348.811h0a1.785,1.785,0,0,0,1.368,2.075Z" fill="#eba87b"/><path d="M587.392,670.421a1.573,1.573,0,0,0,2.154-.418h0a1.573,1.573,0,0,0-.921-1.99l-4.347-2.226a1.578,1.578,0,0,0-2.154.419h0a1.576,1.576,0,0,0,.921,1.992Z" fill="#eba87b"/><path d="M606.425,666.026a1.573,1.573,0,0,0,1.693,1.411l7.826.037a1.575,1.575,0,0,0,1.707-1.4l.022-4.888a1.573,1.573,0,0,0-1.694-1.411l-7.825-.037a1.576,1.576,0,0,0-1.707,1.4Z" fill="#eba87b"/><path d="M603.655,666.259a1.483,1.483,0,0,0,.492,1.99h0c.619.257,1.405-.218,1.754-1.061l1.782-4.31a1.487,1.487,0,0,0-.493-1.991h0c-.62-.256-1.405.22-1.753,1.062Z" fill="#eba87b"/><path d="M620.629,669.776a1.616,1.616,0,0,0,1.916-1.216h0a1.615,1.615,0,0,0-1.506-1.7l-4.835-.679a1.615,1.615,0,0,0-1.915,1.215h0a1.616,1.616,0,0,0,1.506,1.7Z" fill="#eba87b"/><path d="M616.692,670.892a1.783,1.783,0,0,0,2.349-.811h0a1.786,1.786,0,0,0-1.367-2.075l-5.259-1.783a1.784,1.784,0,0,0-2.348.81h0a1.786,1.786,0,0,0,1.368,2.076Z" fill="#eba87b"/><path d="M611.751,670.473a1.573,1.573,0,0,0,2.153-.418h0a1.572,1.572,0,0,0-.921-1.99l-4.347-2.226a1.576,1.576,0,0,0-2.153.419h0a1.573,1.573,0,0,0,.921,1.991Z" fill="#eba87b"/><path d="M594.73,662.972l-.662-3.637-.133-28.484-.161-34.64c-.033-6.985-3.155-8.057-7-8.039-5.21.024-6.914,10.868-6.878,18.61l.113,24.133.083,30.144-.334,1.983,2.939-2.03,1.049,2.472,2.143-1.955,1.842,1.937,1.095-2.448,2.269,2.432,1.49-2.174Z" fill="#703f19"/><path d="M618.673,662.861l-.662-3.638-.133-28.484-.162-34.639c-.032-6.986-3.155-8.057-7-8.04-5.21.025-6.915,10.869-6.879,18.61l.113,24.134.082,30.143-.333,1.983,2.939-2.03,1.048,2.473,2.142-1.955,1.844,1.936,1.095-2.448,2.269,2.432,1.488-2.173Z" fill="#703f19"/><path d="M625.192,561.867a39.4,39.4,0,0,0-23.234-14.943l-5.873.027c-14.972.07-27.041,14.327-26.96,31.847l.079,16.917c-.1,2.156-.422,13.308,8.044,22.393a30.612,30.612,0,0,0,16.67,9.076l0-.733c2.538-1.029,6.184-1.937,9.5-.441.172.078.344.162.515.254,0,.319,0,.637.005.956a24.785,24.785,0,0,0,13.9-5.686l-.033-2.81,1.337-1.928,0-1.046a1.4,1.4,0,0,1,1.232-1.373c.145-.929.384-1.822.627-2.8a1.293,1.293,0,0,1,.918-.931c-.033-.494-.093-.967-.153-1.379-.175-1.189,1.829-1.838,2.4-1.468.517.333.106,1.413.418,1.524.468.168,1.858-2.1,2.8-4.568a20.474,20.474,0,0,0,.751-2.388c.653-2.76.965-9.173.68-17.6q-.128-5.767-.254-11.534a24.9,24.9,0,0,0-1.78-8.157A24.543,24.543,0,0,0,625.192,561.867Z" fill="#1c1c1a" opacity="0.5" style="mix-blend-mode:multiply;isolation:isolate"/><path d="M627.534,594.615c.082,17.518-11.771,31.776-26.475,31.845l-5.767.026c-14.705.069-26.689-14.078-26.77-31.6l-.079-16.918c-.082-17.52,11.77-31.777,26.474-31.846l5.768-.027c14.7-.068,26.689,14.078,26.77,31.6Z" fill="#703f19"/><path d="M622.1,599.781c.044,11.788-7.505,21.389-16.86,21.444l-3.67.022c-9.354.055-16.974-9.457-17.017-21.246l-.043-11.384c-.043-11.79,7.506-21.391,16.86-21.446l3.67-.022c9.355-.055,16.975,9.457,17.018,21.247Z" fill="#eba87b"/><path d="M577.288,573.887c-.35,1.176-.865,2.965-1.427,5.158-1.759,6.87-2.1,11.507-4.014,21.61-.915,4.846-1.444,8.407-1.841,11.1a89.593,89.593,0,0,0-.333,19.913,11.021,11.021,0,0,0,2.647,6.044,10.752,10.752,0,0,0,2.7,2.23c.158-3.348.156-6.173.111-8.3-.055-2.64-.187-4.8-.3-6.612-.2-3.192-.347-4.488-.544-8.008-.1-1.81-.162-3.279-.2-4.191.562-2.853,1.076-5.365,1.511-7.454,1.053-5.061,2.464-11.561,3.821-19.133a51.727,51.727,0,0,0,.86-7.449,49.894,49.894,0,0,0-.1-5.734Z" fill="#1c1c1a" opacity="0.5" style="mix-blend-mode:multiply;isolation:isolate"/><path d="M567.945,561.346l5.454,9.474,10.158-6.225s-2.818-2.48-4.043-1.926l-7.489,5.54Z" fill="#1c1c1a" opacity="0.5" style="mix-blend-mode:multiply;isolation:isolate"/><path d="M581.57,565.339l19.376,9.274,16.949-9.735,5.842,3.016,1.3.8c-.1-.514-.251-1.288-.491-2.222-.159-.618-.316-1.157-.351-1.262-.6-1.791-7.868-1.905-9.464-1.918l-16.151,10.084Z" fill="#1c1c1a" opacity="0.5" style="mix-blend-mode:multiply;isolation:isolate"/><path d="M595.8,481.5s1.687,3.189-.467,3.3c-9.025.448-31.706,3.073-34.169,18.111-3.406,20.773-1.729,51.989-1.729,51.989l2.406-.441-2.76,5.115,4.614-1.1-.942,5.126,4.545-2.034,4.481,7.535,6.957-5.146L598.5,573.37l15.377-9.6,8.564,4.307,3.976-6.518L630.15,563l-.9-5.667,4.539.2L631.3,551.4l4.255,2.577s1.07-35.264-1.864-52.105c-2.3-13.188-17.182-16.376-26.454-17.067-.866-.064-2.39-2.376-3.144-2.4,0,0-1.269,2.679-1.851,2.229A30.986,30.986,0,0,0,595.8,481.5Z" fill="#703f19"/><path d="M629.15,515.34s-.663-12.994-11.446-13.552c-11.884-.615-16.765,4.913-18.631,8.316-1.848-3.552-6.744-9.367-18.692-7.9-11.808,1.446-12.566,14.034-12.566,14.034s-.678,14.628,7.363,17.243l.114,7.856s2.029,15.081,22.478,15.882v.015q.528.013,1.04.013t1.026,0v-.013c20.465-.45,22.81-15.43,22.81-15.43l.044-7.924C630.024,530.972,629.15,515.34,629.15,515.34Z" fill="#eba87b"/><path d="M592.559,526.3a2.442,2.442,0,1,0-2.458,2.425A2.443,2.443,0,0,0,592.559,526.3Z" fill="#703f19"/><path d="M611.47,525.453a2.326,2.326,0,1,0-2.342,2.311A2.326,2.326,0,0,0,611.47,525.453Z" fill="#703f19"/><path d="M583.576,541.025c1.473,1.058,10.842,7.559,21.914,4.5a23.765,23.765,0,0,0,9.627-5.374,64.872,64.872,0,0,1-31.541.873Z" fill="#422817"/><path d="M603.281,534.852s-1.454,1.832-2.472.335l-.089-1.71,2.806-.147Z" fill="#422817"/><path d="M596.317,535.159s1.622,1.684,2.491.1l-.073-1.709-2.808.119Z" fill="#422817"/><path d="M573.331,635.485a1.6,1.6,0,0,1-2.167.608l-6.729-3.462a1.594,1.594,0,0,1-.765-2.116l2.442-4.746a1.6,1.6,0,0,1,2.165-.607l6.729,3.462a1.6,1.6,0,0,1,.767,2.115Z" fill="#eaa87b"/><path d="M588.836,601.674" fill="#2b2f7a"/><path d="M576.334,635.81a1.242,1.242,0,0,1-1.113,1.439h0a1.455,1.455,0,0,1-1.266-1.476l-.212-4.123a1.234,1.234,0,0,1,1.119-1.436h0a1.461,1.461,0,0,1,1.263,1.471Z" fill="#eaa87b"/><path d="M566.01,635.482a1.738,1.738,0,0,1-2.392.7h0a1.832,1.832,0,0,1-.412-2.514l2.8-4.527a1.735,1.735,0,0,1,2.392-.7h0a1.828,1.828,0,0,1,.417,2.511Z" fill="#eaa87b"/><path d="M568.292,637.114c-.654,1.087-1.82,1.572-2.6,1.079h0c-.784-.491-.884-1.774-.227-2.859l3.367-5.571c.653-1.083,1.821-1.572,2.6-1.075h0c.783.488.883,1.774.229,2.859Z" fill="#eaa87b"/><path d="M570.748,639.342a1.9,1.9,0,0,1-2.49.984h0a1.962,1.962,0,0,1-.385-2.683l2.98-5.187a1.9,1.9,0,0,1,2.495-.983h0a1.962,1.962,0,0,1,.384,2.684Z" fill="#eaa87b"/><g opacity="0.6" style="mix-blend-mode:multiply;isolation:isolate"><path d="M563.1,629.158l.029,2.215,2.338-2.083,1.581,2.272,1.589-1.965,2.056,1.37.813-2.02,2.3,1.958,1.161-2.17-.53-.775-3.5-.266-4.812.025Z" fill="#1c1b19"/></g><path d="M574.25,600.73l2.206,27.407.476,2.136-3-2-.817,2.768-2.219-1.981-1.623,2.242-1.253-2.588-2,2.809-1.608-2.262-1.944,2,.358-4.009-2.022-25.6a5.1,5.1,0,0,1,.372-2.089,6.2,6.2,0,0,1,3.926-3.273C568.007,595.4,571.753,597.149,574.25,600.73Z" fill="#703f19"/><path d="M561.341,599.582l5.227-26.359c1.5-7.481,4.686-8.052,8.337-7.322,4.939.989,4.28,12.922,2.622,21.209l-2.977,15.115" fill="#703f19"/><path d="M-181.405,486.205c65.7-39.015,133.632-42.2,194.136-26.591S99.052,478.237,127.554,479c62.33,1.67,91.654-11.9,162.541-2.78A462.5,462.5,0,0,1,381.624,498c75.835,26.5,85.694,53.428,138.787,78,75.049,34.733,195.15,46.579,270.858,1,28.565-17.2,42.327-37.5,90.691-56.954,35.818-14.41,68.4-19.418,86.151-22.046,39.37-5.828,69.335-4.915,103.962-3.689,63.4,2.243,72.855,9.24,133.318,9.119,46.4-.093,66.85-4.265,76.824-6.613,36.7-8.638,36.709-17.327,74.274-29.817,65.831-21.888,74.573-36.333,159.052,10.511S1639.569,641.14,1639.569,641.14c-494.654-5.605-1919.967-.692-1919.967-.692S-247.109,525.22-181.405,486.205Z" transform="translate(-79.531)" fill="#009de1"/><g transform="translate(40 20)"><path d="M967.228,477.57c-1.874-1.47-3.867-2.788-5.817-4.161a2.165,2.165,0,0,0-.534-.241.257.257,0,0,0-.341.243c0,.3,0,.54.006.779.017,2.692.175,5.392.022,8.075a31.142,31.142,0,0,1-4.846,15.077,17.8,17.8,0,0,1-2.32,2.812,1.285,1.285,0,0,1-1.821.16c-.613-.507-.331-1.118-.039-1.666,1.2-2.256,2.353-4.544,3.651-6.743a34.43,34.43,0,0,0,4.3-14.3c.488-4.461-1.093-9.014-5.3-11.315-3.263-1.784-5.543-2.816-8.9-4.432a9.406,9.406,0,0,0-3.9-.974.256.256,0,0,0-.235.377c.227.421.431.787.607,1.167a50.575,50.575,0,0,1,2.358,5.228,21.859,21.859,0,0,1,.939,7.748c-.128,3.412-.454,6.818-.776,10.218-.176,1.85-.495,3.687-.81,5.52a2.817,2.817,0,0,1-.5.947.254.254,0,0,1-.468-.127c-.025-.556-.053-1.112-.073-1.668-.178-4.914.732-9.8.2-14.739-.313-2.926-.328-5.886-1.078-8.753a8.146,8.146,0,0,0-6.068-6.251,31.3,31.3,0,0,0-4.665-.855,17.649,17.649,0,0,0-2.983.109.256.256,0,0,0-.222.347,1.164,1.164,0,0,0,.1.219c.254.4.5.8.778,1.184a26.634,26.634,0,0,1,3.839,7.731,34.772,34.772,0,0,1,1.188,15.007,3.856,3.856,0,0,1-.375,1.182.743.743,0,0,1-.557.384c-.156-.014-.373-.32-.407-.524a17,17,0,0,1-.328-2.639c-.018-2.084.107-4.17.08-6.253A21.146,21.146,0,0,0,928.1,463.89c-2.1-2.876-5.11-4.321-8.689-2.991a63.513,63.513,0,0,1-7.584,2.462c-1.681.4-3.311.822-4.289-1.2-.009-.017-.05-.018-.131-.045a2.025,2.025,0,0,0-.345.275c-1.149,1.39-2.24,2.83-3.451,4.163a20.627,20.627,0,0,1-2.7,2.435,10.262,10.262,0,0,0-3.38,4.254c-.971,2.363-.581,4.531,1.442,6.069a45.53,45.53,0,0,0,6.818,4.456c3.138,1.593,6.472,2.8,9.719,4.18.436.185,1.011.439.715.994-.163.3-.749.418-1.167.54a1.338,1.338,0,0,1-.645-.133c-1.946-.573-3.92-1.066-5.829-1.742a21.694,21.694,0,0,1-12.1-9.669c-.368-.638-.714-.671-1.044,0a17.559,17.559,0,0,0-1.066,2.709c-.837,2.819-1.615,5.655-2.422,8.483a4.811,4.811,0,0,0,.4,4.251,8.118,8.118,0,0,0,3.519,3.105,41.147,41.147,0,0,0,4.649,1.579c4.3,1.205,8.731,1.183,13.143,1.4,2.826.142,5.641.5,8.458.784.523.053.989.293.99.928,0,.613-.421.878-.951.985a7,7,0,0,1-1.155.137c-.833.029-1.667.016-2.5.037a68.311,68.311,0,0,1-16.091-1.178,19.118,19.118,0,0,1-9.934-5.1,2.105,2.105,0,0,0-.687-.379.255.255,0,0,0-.327.119,2.052,2.052,0,0,0-.292.751,21.455,21.455,0,0,0-.061,3c.237,3.352.4,6.718.849,10.044a6.243,6.243,0,0,0,4.12,5.343,14.937,14.937,0,0,0,4.068.83,60.43,60.43,0,0,0,18.2-1.591c2.479-.6,5.017-.962,7.533-1.4.5-.088,1.057-.024,1.188.624a1,1,0,0,1-.728,1.165,8.865,8.865,0,0,1-1.549.607c-2.876.612-5.744,1.293-8.648,1.738a56.467,56.467,0,0,1-13.134.584c-2.734-.222-5.443-.761-8.163-1.158l-.583-.086a.69.69,0,0,0-.731.966,23.677,23.677,0,0,0,1.357,2.758c1.987,3.244,4.05,6.444,6.116,9.639a13.822,13.822,0,0,0,2,2.646c2.009,1.886,4.506,2.273,7.153,1.969a42.884,42.884,0,0,0,13.047-3.9c3.585-1.649,7.136-3.373,10.72-5.024a7.063,7.063,0,0,1,2.078-.554,1.326,1.326,0,0,1,1.061.419c.14.2-.032.754-.232,1.029a7.3,7.3,0,0,1-1.407,1.522,48,48,0,0,1-8,5.4,37.467,37.467,0,0,1-12.78,3.561c-2.1.208-4.218.2-6.328.294-.289.014-.576.059-.942.109a.256.256,0,0,0-.2.364,9.713,9.713,0,0,0,2.432,3.239c1.21,1.02,2.428,2.037,3.707,2.967a79.1,79.1,0,0,0,18.718,10.62A21.446,21.446,0,0,0,943.15,555.7a29.018,29.018,0,0,0,11.139-3.964,18.365,18.365,0,0,0,6.518-7.109c2.741-5.291,1.8-10.391-1.488-15.084-1.635-2.332-3.669-4.383-5.5-6.579a35.606,35.606,0,0,1-2.4-3.09,1.529,1.529,0,0,1,.062-1.348.951.951,0,0,1,1.408-.162c.164.1.322.218.488.32,2.981,1.828,5.932,3.707,8.954,5.466a13.653,13.653,0,0,0,6.916,1.937c4.021-.008,6.995-2.112,9.386-5.13a15.617,15.617,0,0,0,3.228-7.586c.468-3.233,1.34-6.419.852-9.749-.685-4.685-1.768-9.269-4.187-13.364A45.743,45.743,0,0,0,967.228,477.57Z" fill="#306187"/><path d="M952.889,518.364c.164.1.322.218.488.32,2.981,1.828,5.932,3.707,8.954,5.466a13.653,13.653,0,0,0,6.916,1.937c4.021-.008,6.995-2.112,9.386-5.13a15.617,15.617,0,0,0,3.228-7.586c.468-3.233,1.34-6.419.852-9.749-.685-4.685-1.768-9.269-4.187-13.364a45.743,45.743,0,0,0-11.3-12.688c-1.874-1.47-3.867-2.788-5.817-4.161a2.165,2.165,0,0,0-.534-.241.257.257,0,0,0-.341.243c0,.3,0,.54.006.779.017,2.692.175,5.392.022,8.075a31.142,31.142,0,0,1-4.846,15.077,17.8,17.8,0,0,1-2.32,2.812,1.285,1.285,0,0,1-1.821.16c-.613-.507-.331-1.118-.039-1.666,1.2-2.256,2.353-4.544,3.651-6.743a34.43,34.43,0,0,0,4.3-14.3c.488-4.461-1.093-9.014-5.3-11.315-3.263-1.784-5.543-2.816-8.9-4.432a9.406,9.406,0,0,0-3.9-.974.256.256,0,0,0-.235.377c.227.421.431.787.607,1.167a50.575,50.575,0,0,1,2.358,5.228,21.859,21.859,0,0,1,.939,7.748c-.128,3.412-.454,6.818-.776,10.218-.176,1.85-.495,3.687-.81,5.52a2.817,2.817,0,0,1-.5.947.254.254,0,0,1-.468-.127c-.025-.556-.053-1.112-.073-1.668-.178-4.914.732-9.8.2-14.739-.313-2.926-.328-5.886-1.078-8.753a8.146,8.146,0,0,0-6.068-6.251,31.3,31.3,0,0,0-4.665-.855,17.649,17.649,0,0,0-2.983.109.256.256,0,0,0-.222.347,1.164,1.164,0,0,0,.1.219c.254.4.5.8.778,1.184a26.634,26.634,0,0,1,3.839,7.731,34.772,34.772,0,0,1,1.188,15.007,3.856,3.856,0,0,1-.375,1.182.743.743,0,0,1-.557.384c-.156-.014-.373-.32-.407-.524a17,17,0,0,1-.328-2.639c-.018-2.084.107-4.17.08-6.253A21.146,21.146,0,0,0,928.1,463.89c-2.1-2.876-5.11-4.321-8.689-2.991a63.513,63.513,0,0,1-7.584,2.462c-1.681.4-3.311.822-4.289-1.2-.009-.017-.05-.018-.131-.045a2.933,2.933,0,0,0-.3.235.357.357,0,0,0-.041.185c.061.793.764,4.812,8.607,11.126a.367.367,0,0,1-.321.642l-7.745-2.047a.366.366,0,0,0-.37.6c2.073,2.3,8.054,8.452,15.544,11.743a.367.367,0,0,1-.075.692l-3.425.749a.366.366,0,0,0-.155.642c1.962,1.59,8.456,6.744,13.478,9.424a.366.366,0,0,1-.219.686l-7.47-.88a.366.366,0,0,0-.3.624,80.152,80.152,0,0,0,9.158,7.842.366.366,0,0,1-.237.667L929,504.68a.367.367,0,0,0-.276.638c2,1.768,7.412,6.229,12.212,7.183a.368.368,0,0,1,.1.692l-3.8,1.856a.366.366,0,0,0,.029.672c1.916.715,7.064,2.4,12,1.927a5.9,5.9,0,0,1,2.884.489A1.314,1.314,0,0,1,952.889,518.364Z" fill="#306187" opacity="0.3" style="mix-blend-mode:multiply;isolation:isolate"/></g><path d="M174.784,534.528c.18-.066.351-.124.515-.179a7.986,7.986,0,0,0,.951-.367l1.852-.908c2.784-1.365,5.664-2.776,8.466-4.227a2.013,2.013,0,0,1,2.15-.046c2.145,1.164,4.373,2.32,6.623,3.436a49.612,49.612,0,0,0,12.483,4.265,53.709,53.709,0,0,0,7.262.749l.607.035a.246.246,0,0,0,.257-.233.309.309,0,0,0-.206-.318c-.178-.055-.356-.116-.533-.176a10.126,10.126,0,0,0-1.2-.355,49.552,49.552,0,0,1-12.228-4.678l-1.2-.618a39.337,39.337,0,0,0-7.521-3.244c-.548-.15-1.108-.249-1.649-.344-.3-.054-.606-.107-.908-.169-.152-.032-.307-.076-.492-.13a12.131,12.131,0,0,1,2.882-1.766,1.9,1.9,0,0,1,1.242.133c1.491.582,3,1.223,4.478,1.905a75.377,75.377,0,0,0,11.575,4.462,63.685,63.685,0,0,0,6.969,1.543,74.317,74.317,0,0,0,11.362,1,16.651,16.651,0,0,0,3.012-.209.254.254,0,0,0,.2-.281.3.3,0,0,0-.244-.275c-.123-.019-.245-.041-.368-.063-.271-.048-.552-.1-.834-.119-6.593-.506-13.416-2.346-21.472-5.791-2.216-.947-4.624-1.828-7.58-2.77a23.771,23.771,0,0,0-3.365-.727c-.4-.067-.809-.134-1.212-.208s-.811-.114-1.206-.15l-.189-.018.391-.267a15.6,15.6,0,0,1,1.7-1.062,1.675,1.675,0,0,1,1.114.031c1.256.375,2.532.773,3.765,1.157,1.7.53,3.465,1.078,5.206,1.578a34.77,34.77,0,0,0,4.443.937,65.513,65.513,0,0,0,21.641-.106,46.049,46.049,0,0,0,8.468-2.373,3.386,3.386,0,0,0,1.238-.782.288.288,0,0,0,.045-.322.283.283,0,0,0-.276-.169c-.08.007-.162.011-.243.015a2.861,2.861,0,0,0-.583.069,46.387,46.387,0,0,1-10.093,1.477,42.416,42.416,0,0,1-4.809-.066c-2.472-.205-5.055-.5-7.675-.873-1-.143-2.018-.358-3-.567-.768-.162-1.563-.33-2.349-.464-.806-.137-1.627-.293-2.42-.443a38.151,38.151,0,0,0-8.519-.96c-.837.033-1.683.021-2.579.009q-.339-.006-.688-.009a1.784,1.784,0,0,1,.272-.256c.458-.336.932-.667,1.39-.988s.955-.666,1.426-1.012a1.388,1.388,0,0,1,1.417-.16,58.841,58.841,0,0,0,16.816,2.969,67.767,67.767,0,0,0,21.045-1.906,10.4,10.4,0,0,0,2.77-1.089.272.272,0,0,0,.1-.329.286.286,0,0,0-.291-.2c-.119.013-.239.024-.358.035-.259.023-.527.048-.79.091a57.7,57.7,0,0,1-14.773.638l-2.776-.253c-3.51-.319-7.139-.649-10.705-1.044a60.276,60.276,0,0,0-10.066-.419c.155-.156.3-.3.443-.425a1.162,1.162,0,0,1,.2-.129,1.18,1.18,0,0,0,.37-.279c1.414-1.765,3.284-1.463,5.264-1.143.191.031.382.062.574.091,3.09.472,6.226.792,9.434,1.1,1.136.111,2.287.133,3.4.154.443.009.885.017,1.328.031a70.423,70.423,0,0,0,14.558-1.2,66.49,66.49,0,0,0,12.385-3.61c.331-.128.648-.283,1.016-.464.187-.092.389-.191.614-.3a.257.257,0,0,0,.141-.258.306.306,0,0,0-.177-.259,1.754,1.754,0,0,0-1.4-.042c-.062.019-.122.038-.181.053a54.829,54.829,0,0,1-11.381,1.848c-3.294.142-6.6.1-9.113.05-1.757-.035-3.548-.12-5.28-.2a86.85,86.85,0,0,0-12.083-.005c-.776.073-1.561.169-2.319.263-.378.046-.756.093-1.135.136-.275.032-.55.062-.89.1a1.615,1.615,0,0,1,.228-.256l.316-.267c.727-.615,1.48-1.252,2.261-1.807a1.881,1.881,0,0,1,1.089-.283,11.407,11.407,0,0,1,1.5.177c.208.033.415.067.622.1.833.117,1.682.253,2.5.384,1.831.293,3.724.595,5.589.716a69.8,69.8,0,0,0,12.507-.294,65.467,65.467,0,0,0,18.308-4.594,3.313,3.313,0,0,0,1.314-.891.291.291,0,0,0,.02-.334.275.275,0,0,0-.3-.139l-.3.073c-.216.052-.433.1-.647.162a61.823,61.823,0,0,1-15.779,2.073c-3.221.017-6.477.014-9.536.009-.925,0-1.851-.011-2.776-.022-1.824-.021-3.71-.042-5.56.01-1.235.035-2.474.189-3.673.338-.508.063-1.016.126-1.525.181-.2.022-.4.054-.648.093a.961.961,0,0,1,.13-.158c.414-.385.834-.764,1.255-1.143.5-.449,1.013-.913,1.511-1.382a1.508,1.508,0,0,1,1.388-.332l.971.124c2.732.35,5.556.712,8.334.863a57.1,57.1,0,0,0,16.108-1.656,65.656,65.656,0,0,0,14.207-4.832.952.952,0,0,0,.513-.563.3.3,0,0,0-.048-.293.271.271,0,0,0-.263-.107c-.071.014-.143.026-.215.038a3.656,3.656,0,0,0-.507.11,70.512,70.512,0,0,1-17.381,2.915q-2.861.184-5.721.359c-3.512.218-7.144.443-10.712.7a28.282,28.282,0,0,0-2.913.408c-.441.077-.882.154-1.325.222-.07.011-.137.021-.205.026l.548-.513c.9-.838,1.82-1.705,2.751-2.526a1.416,1.416,0,0,1,.647-.211c.078-.013.154-.026.228-.042a.988.988,0,0,1,.331.024l.123.019a61.053,61.053,0,0,0,15.489-.021,70.119,70.119,0,0,0,19.878-4.886,4,4,0,0,0,1.238-.746.295.295,0,0,0-.238-.5c-.08.013-.162.023-.243.033a3.774,3.774,0,0,0-.564.1,55.414,55.414,0,0,1-14.422,2.083c-1.726.014-3.484,0-5.183-.008-1.737-.011-3.532-.022-5.3-.007a34.268,34.268,0,0,0-8.281.856,4.13,4.13,0,0,1-.5.089c.365-.376.732-.749,1.1-1.123.72-.734,1.464-1.493,2.184-2.255a1.355,1.355,0,0,1,1.477-.36c5.93,1.57,11.738.884,16.135.111a93.348,93.348,0,0,0,17.769-5.049l.044-.017A41.7,41.7,0,0,0,272,485.74a.271.271,0,0,0,.113-.332.286.286,0,0,0-.3-.2c-.075.01-.152.016-.228.023a2.662,2.662,0,0,0-.551.086,127.481,127.481,0,0,1-27.34,4.718c-2.238.175-4.5.452-6.68.719-1.049.129-2.1.257-3.148.375-.06.007-.122.011-.194.014l.408-.447c.7-.763,1.3-1.423,1.953-2.043a1.5,1.5,0,0,1,1.036-.3c9.381.579,19.134-.942,29.816-4.65a91.02,91.02,0,0,0,13.957-6.167c.418-.23.817-.472,1.153-.678a.707.707,0,0,0,.207-.231c.038-.056.088-.13.162-.229a.3.3,0,0,0,0-.332.272.272,0,0,0-.3-.126c-.159.044-.3.078-.429.109a4.078,4.078,0,0,0-.662.2,102.461,102.461,0,0,1-15.132,5.172,106.918,106.918,0,0,1-12.806,2.324c-1.037.133-2.076.255-3.115.377A76.729,76.729,0,0,0,238.3,486.1a3.474,3.474,0,0,1,3.49-2.141,55.587,55.587,0,0,0,16.239-2.417,63.9,63.9,0,0,0,21.079-11.1c.889-.708,1.765-1.461,2.613-2.19.286-.246.571-.491.858-.736a1.082,1.082,0,0,0,.225-.32c.046-.083.106-.191.192-.333a.3.3,0,0,0-.034-.344.267.267,0,0,0-.318-.077c-.173.089-.318.159-.442.219a4.045,4.045,0,0,0-.557.3,64.456,64.456,0,0,1-12.481,6.86,83.7,83.7,0,0,1-9.511,3.211c-2.414.649-4.911,1.178-7.325,1.689-1.509.32-3.069.65-4.6,1.007-1.234.289-2.464.66-3.654,1.019-.527.159-1.054.318-1.583.471-.092.027-.184.055-.282.086a3.445,3.445,0,0,1,2.915-1.644,31.072,31.072,0,0,0,8.21-1.865,92.465,92.465,0,0,0,15.2-6.634c2.407-1.292,4.8-2.695,7.124-4.051q1.443-.844,2.89-1.683a1.894,1.894,0,0,0,.771-.814.3.3,0,0,0-.027-.306.273.273,0,0,0-.272-.119c-.061.012-.125.019-.188.027a1.43,1.43,0,0,0-.5.125,136.084,136.084,0,0,1-22.64,8.853,51.484,51.484,0,0,0-10.223,4.025,2.914,2.914,0,0,1,1.835-1.554c7.257-1.694,13.85-4.979,18.782-7.652A154.33,154.33,0,0,0,286.1,454.945a15.222,15.222,0,0,0,2.659-2.483.3.3,0,0,0,0-.361.264.264,0,0,0-.334-.085l-.2.107c-.147.077-.3.157-.444.252a173.581,173.581,0,0,1-16.139,8.875l-1.749.883c-6.392,3.234-12.9,6.606-18.5,9.513-.768.4-1.507.876-2.222,1.337-.321.207-.642.415-.967.616a15.716,15.716,0,0,1,1.95-2.74,1.385,1.385,0,0,1,.592-.287c9.939-3.082,18.439-8.333,25.443-13.062a111.681,111.681,0,0,0,12.164-9.321,3.709,3.709,0,0,0,.926-1.173.3.3,0,0,0-.037-.313.269.269,0,0,0-.283-.105c-.035.01-.071.017-.108.024a.83.83,0,0,0-.352.126,135.094,135.094,0,0,1-19.475,11.5c-3.369,1.662-7.334,3.646-11.2,5.756a46.537,46.537,0,0,0-3.94,2.507c-.507.346-1.028.7-1.549,1.047.036-.055.072-.109.107-.164.4-.609.813-1.239,1.175-1.9a4.625,4.625,0,0,1,2.328-1.859,141.8,141.8,0,0,0,14.7-8.246,82.133,82.133,0,0,0,14-11.1c1.012-1.022,1.949-2.157,2.854-3.254.37-.448.74-.9,1.116-1.338a1.781,1.781,0,0,0,.428-1.075.309.309,0,0,0-.139-.28.246.246,0,0,0-.287.005c-.081.061-.163.121-.245.18a5.064,5.064,0,0,0-.549.438,81.519,81.519,0,0,1-18.543,12.911l-1.1.586a68.228,68.228,0,0,0-9.733,5.892,8.177,8.177,0,0,1-.779.551c.069-.148.141-.294.218-.434.269-.489.543-.975.817-1.46.459-.813.933-1.654,1.374-2.5a2.4,2.4,0,0,1,1.322-1.191,44.781,44.781,0,0,0,10.125-6.127,92.781,92.781,0,0,0,9.391-8.153c1.654-1.635,3.277-3.36,4.846-5.029q.965-1.026,1.931-2.046a.841.841,0,0,0,.173-.8.3.3,0,0,0-.171-.217.243.243,0,0,0-.253.028c-.258.2-.516.413-.774.62-.547.441-1.113.9-1.683,1.323l-2.848,2.132c-3.287,2.461-6.686,5.007-10.058,7.467a118.563,118.563,0,0,0-9.539,7.493l-.044.038.016-.046a5.425,5.425,0,0,1,1.973-3.129,58.445,58.445,0,0,0,12.219-10.8,82.2,82.2,0,0,0,9.2-12.254c.279-.456.534-.937.78-1.4l.09-.169a.851.851,0,0,0-.015-.731.3.3,0,0,0-.209-.185.236.236,0,0,0-.241.088c-.08.1-.161.207-.243.31-.179.224-.363.456-.526.707a52.47,52.47,0,0,1-7.847,9.318c-1.747,1.672-3.56,3.33-5.314,4.933l-1.257,1.151a56.409,56.409,0,0,0-6.306,6.845l.082-.184a16.136,16.136,0,0,1,1.156-2.266A91.039,91.039,0,0,0,276.6,419.462c.861-2.728,1.686-5.523,2.482-8.226q.468-1.586.938-3.169a6.163,6.163,0,0,0,.292-1.716.307.307,0,0,0-.2-.294.239.239,0,0,0-.3.131c-1.364,3.027-2.8,6.078-4.189,9.028-3.778,8.028-7.675,16.3-10.567,25.041a52.244,52.244,0,0,0,.394-8.3c-.135-3.88-.11-8.038.08-13.482a46.733,46.733,0,0,1,.523-4.929c.1-.735.213-1.495.3-2.246a1.939,1.939,0,0,0-.152-1.2.284.284,0,0,0-.261-.164.241.241,0,0,0-.088.02.247.247,0,0,0-.135.164c-.153.564-.311,1.126-.469,1.689-.338,1.207-.688,2.456-.985,3.7a79.722,79.722,0,0,0-1.912,20.317,47.36,47.36,0,0,0,.873,7.666,3.835,3.835,0,0,1-.506,2.817,52.532,52.532,0,0,0-.85-10.631c-.232-1.553-.472-3.158-.639-4.732-.248-2.354-.411-4.754-.569-7.074q-.082-1.209-.168-2.418c-.019-.262-.036-.524-.053-.786a27.714,27.714,0,0,0-.3-3.005.3.3,0,0,0-.267-.25.245.245,0,0,0-.253.226c-.046.4-.1.792-.154,1.188-.117.863-.238,1.755-.275,2.65q-.036.882-.076,1.763c-.117,2.669-.239,5.429-.172,8.158a73.716,73.716,0,0,0,1.969,16.723,2.193,2.193,0,0,1-.163,1.82c-.455.749-.9,1.521-1.375,2.338l-.232.4c.72-3.943.265-7.891-.31-11.924a96.771,96.771,0,0,1-1.234-12.626c-.022-2.265-.014-4.567-.006-6.794q0-1.2.007-2.4v-.14a3.888,3.888,0,0,0-.224-1.578.288.288,0,0,0-.27-.188.245.245,0,0,0-.229.207q-.093.5-.191,1c-.146.752-.3,1.53-.416,2.306-.182,1.187-.3,2.181-.367,3.13-.043.609-.09,1.217-.137,1.826-.153,1.974-.311,4.016-.338,6.041l-.007.552a130.146,130.146,0,0,0,.325,14.148c.295,3.078.676,6.178,1.044,9.07a2.641,2.641,0,0,1-.361,1.957c-.365.537-.7,1.073-1.1,1.694l-.2.312a49.729,49.729,0,0,0-.686-10.869q-.091-.666-.181-1.331a112.741,112.741,0,0,1-1.174-12.635c-.033-1.573-.131-3.185-.3-4.93a.3.3,0,0,0-.253-.272.244.244,0,0,0-.268.21c-.042.251-.09.5-.138.75a14.866,14.866,0,0,0-.257,1.693c-.043.6-.091,1.2-.138,1.8-.164,2.076-.333,4.222-.353,6.351a95.8,95.8,0,0,0,1.812,20.621,2.536,2.536,0,0,1-.4,2.272c-.371.477-.709.98-1.1,1.562l-.2.3a1.14,1.14,0,0,1,0-.306,32.919,32.919,0,0,0-.009-9.548c-.041-.425-.083-.851-.123-1.276-.389-4.18-.791-8.5-1.153-12.813a77.577,77.577,0,0,1,.038-10.209c.049-1.017.1-2.068.137-3.105.032-.895.147-1.8.258-2.68.052-.414.1-.828.149-1.242a.305.305,0,0,0-.2-.321l-.3-.1a.241.241,0,0,0-.314.174c-.036.137-.075.273-.114.408a7.322,7.322,0,0,0-.228.942q-.16,1.057-.325,2.114c-.368,2.383-.749,4.847-1.064,7.285a89.669,89.669,0,0,0-.811,12.007,113.6,113.6,0,0,0,1.639,20.623,2.5,2.5,0,0,1-.444,2.271c-.307.368-.6.754-.93,1.2q-.076.105-.159.213a1.65,1.65,0,0,1-.026-.366,63.972,63.972,0,0,0-.774-13.727,101.227,101.227,0,0,1-1.123-16.215.981.981,0,0,0-.247-.68.272.272,0,0,0-.261-.1.246.246,0,0,0-.19.192c-.035.158-.076.315-.117.472a6.407,6.407,0,0,0-.219,1.1l-.077.94c-.174,2.119-.353,4.31-.452,6.477-.114,2.523-.243,5.381-.178,8.2a68.149,68.149,0,0,0,1.473,14.292c.434,1.8-.16,2.828-1.292,4.034a49.573,49.573,0,0,0-.226-8.454c-.05-.592-.1-1.183-.145-1.773-.253-3.308-.509-6.832-.6-10.352-.082-3.062-.029-6.173.021-9.181l.022-1.292c.011-.7.086-1.412.158-2.1.05-.469.1-.954.132-1.436a13.462,13.462,0,0,0-.082-2.833.3.3,0,0,0-.248-.258.24.24,0,0,0-.267.191c-.07.3-.144.6-.217.892-.158.642-.322,1.3-.45,1.97a96.253,96.253,0,0,0-1.814,14.41c-.03.736-.094,1.484-.156,2.207-.094,1.1-.191,2.238-.174,3.371.087,5.938.24,10.888,1.326,16.02a2.877,2.877,0,0,1-.713,3.061,10.722,10.722,0,0,0-1.016,1.136c.022-.167.044-.332.065-.5.134-1.008.26-1.96.345-2.92a36.478,36.478,0,0,0-.4-8.263q-.2-1.393-.4-2.785c-.417-2.9-.849-5.9-1.2-8.854-.268-2.243-.38-4.538-.487-6.758l-.007-.132c-.04-.835-.069-1.687-.1-2.51-.047-1.4-.1-2.856-.206-4.315a.3.3,0,0,0-.245-.277.241.241,0,0,0-.274.2c-.037.182-.079.363-.121.545a8.976,8.976,0,0,0-.226,1.253l-.037.438c-.174,2.049-.354,4.168-.451,6.266-.128,2.768-.23,5.263-.189,7.768.051,3.116.147,7.225.436,11.384.218,3.155.577,6.36.923,9.459q.108.962.214,1.923a1.615,1.615,0,0,1-.392,1.446c-.358.373-.7.754-1.105,1.2l-.08.088c.032-.414.06-.772.09-1.13a52.59,52.59,0,0,0-.609-11.568c-.9-6.621-1.621-12.1-2.27-17.257-.12-.953-.16-1.934-.2-2.882-.02-.473-.039-.946-.067-1.419a4.416,4.416,0,0,0-.414-1.84.28.28,0,0,0-.279-.161.245.245,0,0,0-.211.22c-.048.367-.1.733-.161,1.1a21.378,21.378,0,0,0-.283,2.455c-.034.892-.073,1.783-.111,2.675-.136,3.121-.276,6.348-.2,9.539a106.665,106.665,0,0,0,2.471,21.469,1.578,1.578,0,0,1-.4,1.749c-.557.528-1.072,1.105-1.618,1.716l-.18.2c.024-.167.048-.332.071-.494.135-.938.263-1.824.342-2.716a40.321,40.321,0,0,0-.681-9.99c-.625-3.887-1.229-7.973-1.844-12.49-.082-.6-.135-1.224-.186-1.824a26.1,26.1,0,0,0-.346-2.815.293.293,0,0,0-.268-.243.244.244,0,0,0-.25.225c-.071.606-.152,1.21-.232,1.815-.178,1.333-.362,2.712-.437,4.088-.176,3.2-.327,6.331-.257,9.491a84.2,84.2,0,0,0,1.565,16.019,2.054,2.054,0,0,1-.59,2.248c-.538.475-1.071.98-1.635,1.515l-.246.233c.023-.115.044-.227.066-.337a17.867,17.867,0,0,0,.338-2.173c.114-1.618.225-3.532.179-5.449-.044-1.864-.189-3.76-.329-5.594l-.141-1.869c-.177-2.376-.359-4.833-.608-7.25a97.82,97.82,0,0,1-.35-15.053,4.561,4.561,0,0,0-.2-1.837.29.29,0,0,0-.271-.2.245.245,0,0,0-.233.212q-.159.945-.322,1.888c-.229,1.339-.466,2.723-.675,4.092a155.768,155.768,0,0,0-1.43,22.136,77.427,77.427,0,0,0,.884,11.989c.026.181.061.362.1.544a5.673,5.673,0,0,1,.132.993,1.244,1.244,0,0,1-.232.8,36.946,36.946,0,0,1-3.548,3.079,27.394,27.394,0,0,0,1.6-8.605l.017-.6c.1-3.613.2-7.349.258-11.028.023-1.382.024-2.789.026-4.149,0-2.313,0-4.7.113-7.039.088-1.892.334-3.8.571-5.648.106-.829.217-1.687.312-2.533a1.277,1.277,0,0,0-.173-.91.28.28,0,0,0-.254-.136.242.242,0,0,0-.211.172c-.119.374-.241.747-.363,1.12-.262.8-.533,1.631-.772,2.461a101.411,101.411,0,0,0-2.952,13.962,110.307,110.307,0,0,0-1.16,15.115c0,1.807.072,3.647.143,5.427.034.832.067,1.663.093,2.494,0,.136,0,.273.005.409,0,.248,0,.5.024.762a1.991,1.991,0,0,1-.932,2.111,12.764,12.764,0,0,0-1.592,1.285c-.129.116-.258.232-.387.346a5.475,5.475,0,0,1,.187-.666,23.917,23.917,0,0,0,1.465-6.955q.079-1.367.163-2.733c.135-2.239.275-4.554.37-6.838a114.381,114.381,0,0,1,2.94-23.306,5.556,5.556,0,0,0,.1-.571c.011-.082.022-.164.035-.245a.307.307,0,0,0-.183-.329l-.263-.108a.241.241,0,0,0-.324.147c-.21.6-.425,1.2-.64,1.794-.462,1.286-.94,2.615-1.364,3.946a121.482,121.482,0,0,0-4.3,19.42,104.924,104.924,0,0,0-1.027,16.3c.024,2.046-.5,3.134-1.815,3.756a3.637,3.637,0,0,0-.57.362,2.954,2.954,0,0,1,.126-.5,35.577,35.577,0,0,0,1.835-9.911c.131-1.857.248-3.748.361-5.577.2-3.174.4-6.457.682-9.668a111.151,111.151,0,0,1,3.394-20.162.576.576,0,0,0,0-.235c0-.048-.013-.118-.022-.222a.306.306,0,0,0-.2-.265.237.237,0,0,0-.284.106c-.072.122-.138.228-.2.324a3.822,3.822,0,0,0-.3.532,90.625,90.625,0,0,0-5.292,17.274c-.972,4.618-1.832,9.348-2.558,14.06q-.239,1.548-.42,3.169c.015-.766.027-1.53.038-2.287.025-1.683.051-3.423.12-5.127a76.75,76.75,0,0,1,1.6-12.913,1.651,1.651,0,0,0-.07-1.039.292.292,0,0,0-.239-.184.238.238,0,0,0-.24.144c-.045.1-.092.2-.14.3-.1.221-.21.45-.3.689a82.313,82.313,0,0,0-4.18,16.508c-.268,1.838-.485,3.718-.694,5.54.2-6.823.418-13.87,1.283-20.712a.309.309,0,0,0-.181-.319.24.24,0,0,0-.313.113,25.812,25.812,0,0,0-1.929,5.7,107.517,107.517,0,0,0-2.379,14.271c-.553,5.355-1.02,9.714-1.468,13.717-.088.778-.22,1.565-.349,2.325-.1.565-.194,1.148-.274,1.729a1.994,1.994,0,0,1-1.158,1.739c-.35.159-.689.355-1.08.581.047-.12.09-.223.136-.322a28.132,28.132,0,0,0,2.211-7.879c.317-2.211.569-4.474.811-6.662.109-.98.218-1.96.333-2.939q.264-2.26.517-4.525c.4-3.518.807-7.155,1.3-10.71a50.539,50.539,0,0,1,2.384-9.77,4.851,4.851,0,0,0,.336-1.639.308.308,0,0,0-.181-.283.241.241,0,0,0-.295.078c-.059.082-.12.161-.181.24a4.538,4.538,0,0,0-.4.578,55.5,55.5,0,0,0-4.1,10.2,157.012,157.012,0,0,0-5,21.993c-.562,3.545-1.285,8.216-1.9,12.909a1.631,1.631,0,0,1-1.311,1.58,1.976,1.976,0,0,1,.075-.4,26.251,26.251,0,0,0,1.363-8.009c.028-1.563.085-3.151.139-4.687l.036-1.046a87.351,87.351,0,0,1,1.561-15.421.31.31,0,0,0-.158-.334.242.242,0,0,0-.323.087c-.04.067-.084.133-.127.2a3.221,3.221,0,0,0-.288.5,54.221,54.221,0,0,0-2.96,10.415,123.212,123.212,0,0,0-2.058,13.619c-.1,1.022-.212,2.058-.325,3.06s-.226,2.011-.321,3.022a1.08,1.08,0,0,1-.695,1.053q-3.574,1.484-7.143,2.983l-3.244,1.358c-.292.122-.587.238-.9.364l-.492.2a.242.242,0,0,0-.139.149.3.3,0,0,0,.011.219l1.9,4.318A.276.276,0,0,0,174.784,534.528Zm23.825-17.483a30.493,30.493,0,0,0,2.335-7.906c-.049,1.863-.1,3.755-.161,5.622-.006.2-.026.814-.215.99A7.2,7.2,0,0,1,198.609,517.045Zm6.609-6.368a2.054,2.054,0,0,0,.005.435,2.142,2.142,0,0,1-1.361,2.525c.078-.231.149-.439.226-.645a23.457,23.457,0,0,0,1.172-5.046q-.028,1.249-.034,2.547C205.226,510.555,205.222,510.616,205.218,510.677Z" transform="translate(-53.311)" fill="#73c2b3"/><path d="M185.144,537.233c.142-.007.276-.01.4-.013a6.13,6.13,0,0,0,.755-.05l1.511-.234c2.272-.35,4.623-.713,6.926-1.121a1.493,1.493,0,0,1,1.533.442c1.261,1.3,2.583,2.609,3.929,3.9a36.818,36.818,0,0,0,7.894,5.777,39.952,39.952,0,0,0,4.975,2.134l.423.159a.181.181,0,0,0,.232-.108.229.229,0,0,0-.075-.271c-.114-.078-.226-.16-.338-.242a7.58,7.58,0,0,0-.772-.517,36.752,36.752,0,0,1-7.623-6.013q-.357-.35-.714-.7a29.147,29.147,0,0,0-4.608-3.958c-.355-.227-.729-.421-1.091-.608-.2-.1-.4-.209-.605-.32-.1-.056-.2-.121-.32-.2a8.982,8.982,0,0,1,2.43-.613,1.4,1.4,0,0,1,.85.368c.927.742,1.852,1.529,2.749,2.338a55.868,55.868,0,0,0,7.208,5.716,47.017,47.017,0,0,0,4.592,2.632,55.042,55.042,0,0,0,7.822,3.219,12.356,12.356,0,0,0,2.178.518.187.187,0,0,0,.2-.155.221.221,0,0,0-.111-.248c-.083-.041-.165-.084-.247-.126-.181-.094-.369-.191-.564-.269a49.85,49.85,0,0,1-13.92-8.843c-1.359-1.16-2.87-2.315-4.754-3.636a17.621,17.621,0,0,0-2.221-1.257c-.272-.137-.543-.274-.812-.416s-.549-.259-.82-.372l-.13-.055c.112-.033.223-.068.335-.1a11.37,11.37,0,0,1,1.44-.375,1.238,1.238,0,0,1,.782.267c.807.544,1.622,1.107,2.41,1.651,1.088.752,2.214,1.529,3.336,2.267a25.8,25.8,0,0,0,2.938,1.645,48.585,48.585,0,0,0,15.343,4.706,34.132,34.132,0,0,0,6.518.191,2.493,2.493,0,0,0,1.049-.28.22.22,0,0,0-.054-.4c-.059-.012-.117-.027-.176-.042a2.064,2.064,0,0,0-.428-.08,34.393,34.393,0,0,1-7.47-1.185,31.729,31.729,0,0,1-3.39-1.108c-1.705-.692-3.468-1.47-5.24-2.314-.677-.323-1.35-.7-2-1.065-.508-.284-1.033-.579-1.56-.847s-1.087-.567-1.616-.849a28.322,28.322,0,0,0-5.818-2.561c-.6-.162-1.2-.357-1.828-.564l-.484-.158a1.386,1.386,0,0,1,.248-.122c.4-.136.808-.266,1.2-.391s.823-.261,1.233-.4a1.026,1.026,0,0,1,1.038.2,43.648,43.648,0,0,0,11.247,5.817,50.283,50.283,0,0,0,15.319,3.3,7.7,7.7,0,0,0,2.2-.159.2.2,0,0,0,.146-.211.213.213,0,0,0-.162-.2c-.088-.017-.175-.036-.262-.054-.188-.041-.383-.083-.579-.11a42.781,42.781,0,0,1-10.6-2.812l-1.91-.793c-2.414-1-4.91-2.036-7.347-3.1a44.67,44.67,0,0,0-7.033-2.52c.145-.076.276-.144.408-.2a.8.8,0,0,1,.171-.047.889.889,0,0,0,.323-.116c1.391-.937,2.648-.31,3.979.354l.386.191c2.083,1.017,4.232,1.936,6.434,2.867.78.329,1.59.6,2.373.86.312.1.623.208.933.315a52.16,52.16,0,0,0,10.571,2.368,49.377,49.377,0,0,0,9.565.181c.262-.018.521-.058.821-.1.153-.024.317-.049.5-.075a.191.191,0,0,0,.157-.151.228.228,0,0,0-.068-.223,1.306,1.306,0,0,0-.981-.339c-.047,0-.094,0-.139,0a40.711,40.711,0,0,1-8.465-1.206c-2.363-.627-4.694-1.386-6.462-1.978-1.235-.413-2.485-.869-3.693-1.309a64.22,64.22,0,0,0-8.552-2.673c-.566-.121-1.142-.226-1.7-.327-.278-.051-.556-.1-.834-.154-.2-.038-.4-.078-.652-.127a1.181,1.181,0,0,1,.218-.131l.283-.119c.651-.275,1.324-.559,2-.779a1.4,1.4,0,0,1,.834.04,8.488,8.488,0,0,1,1.027.458c.139.069.278.139.418.2.564.267,1.135.551,1.687.825,1.231.611,2.5,1.244,3.8,1.741a51.8,51.8,0,0,0,8.918,2.556,48.553,48.553,0,0,0,13.976.792,2.448,2.448,0,0,0,1.126-.34.215.215,0,0,0,.089-.232.2.2,0,0,0-.18-.164l-.231-.015c-.164-.011-.329-.023-.494-.029a45.877,45.877,0,0,1-11.627-2.018c-2.284-.7-4.588-1.421-6.752-2.1-.655-.206-1.308-.418-1.961-.63-1.286-.417-2.616-.849-3.937-1.221-.883-.248-1.794-.413-2.675-.572-.374-.068-.748-.135-1.12-.209-.149-.03-.3-.051-.479-.077a.677.677,0,0,1,.127-.084c.378-.181.759-.356,1.14-.531.452-.208.919-.423,1.375-.645a1.119,1.119,0,0,1,1.056.072l.661.3c1.856.852,3.775,1.732,5.709,2.453a42.366,42.366,0,0,0,11.768,2.386,48.678,48.678,0,0,0,11.124-.282.706.706,0,0,0,.488-.285.226.226,0,0,0,.03-.218.2.2,0,0,0-.162-.134c-.054-.005-.107-.013-.161-.02a2.5,2.5,0,0,0-.383-.035,52.268,52.268,0,0,1-12.948-1.776q-2.065-.5-4.129-1.01c-2.534-.622-5.154-1.265-7.736-1.874a21.348,21.348,0,0,0-2.152-.355c-.33-.043-.659-.085-.987-.135-.052-.008-.1-.016-.151-.027l.5-.242c.818-.4,1.665-.8,2.506-1.181a1.057,1.057,0,0,1,.5-.006c.058.008.115.016.171.021a.758.758,0,0,1,.229.09l.082.041a45.3,45.3,0,0,0,10.969,3.406,51.967,51.967,0,0,0,15.151.933,2.948,2.948,0,0,0,1.041-.254.209.209,0,0,0,.11-.223.206.206,0,0,0-.168-.181c-.06-.009-.12-.02-.18-.031a3.01,3.01,0,0,0-.421-.054,41.088,41.088,0,0,1-10.669-1.711c-1.225-.371-2.467-.768-3.668-1.151-1.226-.391-2.5-.8-3.747-1.175a25.383,25.383,0,0,0-6.052-1.224,3.227,3.227,0,0,1-.374-.047c.342-.186.684-.369,1.026-.553.672-.361,1.366-.733,2.044-1.113a1,1,0,0,1,1.125.071,27.766,27.766,0,0,0,11.4,3.643,69.263,69.263,0,0,0,13.693.352l.036,0a30.981,30.981,0,0,0,3.9-.435.2.2,0,0,0,.154-.21.211.211,0,0,0-.166-.207c-.056-.01-.111-.022-.167-.035a1.953,1.953,0,0,0-.409-.06,94.548,94.548,0,0,1-20.4-2.7c-1.622-.37-3.282-.673-4.887-.967-.771-.14-1.542-.281-2.311-.429-.044-.009-.089-.02-.14-.034.132-.076.261-.152.387-.226.662-.386,1.233-.72,1.834-1.015a1.122,1.122,0,0,1,.8.019,56.219,56.219,0,0,0,22.133,3.295,67.508,67.508,0,0,0,11.243-1.281c.346-.071.682-.154.965-.226a.52.52,0,0,0,.2-.117c.039-.031.091-.073.165-.127a.217.217,0,0,0,.075-.234.2.2,0,0,0-.181-.155c-.123,0-.231-.011-.328-.018a3.06,3.06,0,0,0-.513-.006,76.1,76.1,0,0,1-11.854.318,79.232,79.232,0,0,1-9.578-1.185c-.764-.134-1.526-.278-2.288-.421a57.1,57.1,0,0,0-8.668-1.17,2.575,2.575,0,0,1,2.943-.744,41.239,41.239,0,0,0,12.029,1.876,47.4,47.4,0,0,0,17.374-3.2c.785-.3,1.572-.644,2.333-.973l.77-.331a.8.8,0,0,0,.23-.177c.051-.049.117-.112.209-.193a.222.222,0,0,0,.052-.251.2.2,0,0,0-.208-.125c-.142.025-.26.042-.361.057a3.11,3.11,0,0,0-.461.09,47.812,47.812,0,0,1-10.351,2.1,62.189,62.189,0,0,1-7.442.172c-1.852-.074-3.736-.251-5.558-.423-1.138-.107-2.316-.218-3.475-.3-.938-.069-1.891-.078-2.812-.086-.409,0-.817-.008-1.225-.017l-.219,0a2.556,2.556,0,0,1,2.427-.519,23.056,23.056,0,0,0,6.224.494,68.514,68.514,0,0,0,12.222-1.339c1.989-.383,4-.846,5.938-1.294.806-.186,1.611-.372,2.417-.553a1.392,1.392,0,0,0,.726-.406.223.223,0,0,0,.049-.222.2.2,0,0,0-.166-.145c-.046-.005-.093-.014-.14-.022a1.064,1.064,0,0,0-.385-.023,100.879,100.879,0,0,1-17.982,1.265,38.175,38.175,0,0,0-8.126.591,2.161,2.161,0,0,1,1.643-.7,56.986,56.986,0,0,0,14.986-1.267,114.444,114.444,0,0,0,17.061-4.827,11.324,11.324,0,0,0,2.431-1.17.219.219,0,0,0,.077-.257.2.2,0,0,0-.218-.134c-.054.012-.109.022-.164.032-.121.023-.246.046-.37.081A128.567,128.567,0,0,1,269.9,506.76l-1.433.239c-5.239.876-10.59,1.826-15.195,2.647-.632.113-1.261.287-1.868.456-.273.075-.547.151-.821.222a11.7,11.7,0,0,1,1.986-1.509,1.012,1.012,0,0,1,.482-.072c7.716.013,14.894-1.825,20.9-3.625a82.879,82.879,0,0,0,10.669-3.912,2.738,2.738,0,0,0,.915-.625.225.225,0,0,0,.043-.23.2.2,0,0,0-.177-.136c-.027,0-.055-.005-.082-.008a.612.612,0,0,0-.277.012,100.12,100.12,0,0,1-16.326,3.834c-2.752.433-6,.961-9.2,1.6-1.132.226-2.256.571-3.343.9-.435.133-.883.271-1.328.4l.112-.092c.418-.343.85-.7,1.251-1.082a3.423,3.423,0,0,1,2.059-.8,105.125,105.125,0,0,0,12.226-2.59,60.906,60.906,0,0,0,12.364-4.761c.942-.5,1.856-1.1,2.739-1.673.361-.235.722-.471,1.086-.7a1.319,1.319,0,0,0,.54-.667.229.229,0,0,0-.036-.229.183.183,0,0,0-.2-.06c-.071.026-.142.05-.214.074a3.669,3.669,0,0,0-.485.188,60.449,60.449,0,0,1-15.978,5.043l-.91.172a50.6,50.6,0,0,0-8.192,2.02,6.312,6.312,0,0,1-.673.218c.082-.09.165-.177.25-.259.3-.287.6-.57.9-.853.505-.474,1.026-.965,1.525-1.466a1.778,1.778,0,0,1,1.2-.551,33.211,33.211,0,0,0,8.521-2.1,68.69,68.69,0,0,0,8.449-3.7c1.532-.792,3.062-1.655,4.542-2.489q.907-.513,1.818-1.022a.624.624,0,0,0,.3-.525.227.227,0,0,0-.074-.192.179.179,0,0,0-.184-.036c-.229.088-.457.178-.685.268-.485.192-.987.39-1.484.565l-2.487.88c-2.871,1.016-5.84,2.067-8.77,3.064a87.705,87.705,0,0,0-8.408,3.2l-.039.017.022-.029a4.021,4.021,0,0,1,2.087-1.779,43.333,43.333,0,0,0,11.035-4.943,61,61,0,0,0,9.218-6.642c.3-.262.585-.546.862-.82l.1-.1a.628.628,0,0,0,.151-.521.221.221,0,0,0-.107-.177.175.175,0,0,0-.19.01q-.12.084-.24.165a6.506,6.506,0,0,0-.529.385,38.9,38.9,0,0,1-7.614,4.862c-1.6.8-3.255,1.571-4.851,2.318l-1.144.537a41.873,41.873,0,0,0-5.976,3.452l.1-.112a12.1,12.1,0,0,1,1.318-1.349,67.52,67.52,0,0,0,12.5-13.8c1.212-1.741,2.413-3.538,3.574-5.275q.681-1.018,1.364-2.036a4.583,4.583,0,0,0,.586-1.15.229.229,0,0,0-.08-.254.177.177,0,0,0-.239.028c-1.635,1.841-3.325,3.683-4.96,5.465a167.231,167.231,0,0,0-13.012,15.391,38.806,38.806,0,0,0,2.113-5.791c.761-2.776,1.7-5.713,3.035-9.526a34.923,34.923,0,0,1,1.459-3.373c.237-.5.481-1.011.711-1.523a1.433,1.433,0,0,0,.156-.881.209.209,0,0,0-.147-.174.171.171,0,0,0-.067-.005.181.181,0,0,0-.132.086c-.233.365-.469.728-.705,1.092-.506.78-1.03,1.586-1.515,2.4a59.076,59.076,0,0,0-5.843,13.96,35.05,35.05,0,0,0-1.075,5.619,2.842,2.842,0,0,1-.981,1.882,38.954,38.954,0,0,0,1.747-7.713c.179-1.15.363-2.339.594-3.491.344-1.721.758-3.456,1.159-5.133.139-.583.279-1.165.415-1.748q.068-.285.137-.568a20.421,20.421,0,0,0,.447-2.2.219.219,0,0,0-.133-.236.181.181,0,0,0-.229.1c-.12.271-.246.539-.371.807-.274.585-.557,1.19-.781,1.815q-.221.616-.443,1.231c-.673,1.864-1.368,3.79-1.924,5.737a54.669,54.669,0,0,0-2.3,12.273,1.625,1.625,0,0,1-.517,1.252c-.488.43-.975.878-1.49,1.351l-.253.232a27.386,27.386,0,0,0,2.415-8.509,71.717,71.717,0,0,1,1.916-9.21c.485-1.608,1-3.236,1.5-4.81q.269-.849.535-1.7l.032-.1a2.9,2.9,0,0,0,.19-1.167.212.212,0,0,0-.15-.192.181.181,0,0,0-.208.1c-.117.222-.236.442-.355.663-.269.5-.548,1.018-.8,1.54-.391.8-.693,1.479-.951,2.135-.165.421-.333.842-.5,1.262-.544,1.364-1.107,2.774-1.573,4.2l-.128.389a96.653,96.653,0,0,0-2.895,10.087c-.471,2.244-.886,4.523-1.265,6.651a1.961,1.961,0,0,1-.688,1.306c-.377.3-.736.6-1.152.956l-.209.177a36.963,36.963,0,0,0,1.915-7.846q.083-.491.166-.982a83.438,83.438,0,0,1,1.96-9.2c.324-1.121.611-2.284.877-3.556a.222.222,0,0,0-.119-.248.18.18,0,0,0-.236.089c-.085.168-.174.334-.263.5a10.778,10.778,0,0,0-.556,1.142q-.246.623-.5,1.244c-.575,1.433-1.169,2.915-1.653,4.417a71.044,71.044,0,0,0-3.273,15,1.881,1.881,0,0,1-.786,1.519c-.368.256-.719.537-1.125.863l-.212.169a.844.844,0,0,1,.068-.217,24.441,24.441,0,0,0,2.1-6.76q.1-.466.2-.931c.648-3.045,1.318-6.193,2.014-9.325a57.536,57.536,0,0,1,2.283-7.218c.259-.709.527-1.442.782-2.167.221-.627.5-1.244.775-1.841.129-.281.257-.563.38-.846a.228.228,0,0,0-.071-.272l-.19-.136a.179.179,0,0,0-.26.054q-.084.133-.171.264a5.581,5.581,0,0,0-.37.616q-.347.714-.7,1.425c-.787,1.6-1.6,3.265-2.362,4.922a66.487,66.487,0,0,0-3.227,8.32,84.245,84.245,0,0,0-3.4,14.961,1.852,1.852,0,0,1-.816,1.509c-.3.193-.588.4-.923.645l-.16.116a1.265,1.265,0,0,1,.062-.266,47.418,47.418,0,0,0,2.485-9.887,74.947,74.947,0,0,1,2.788-11.727.729.729,0,0,0-.025-.535.2.2,0,0,0-.162-.131.182.182,0,0,0-.177.094c-.06.1-.123.206-.187.308a4.751,4.751,0,0,0-.4.731l-.262.648c-.591,1.462-1.2,2.973-1.75,4.486-.638,1.76-1.361,3.755-1.939,5.767a50.469,50.469,0,0,0-2.114,10.442,2.882,2.882,0,0,1-1.806,2.57,36.832,36.832,0,0,0,1.708-6.034c.1-.43.19-.859.288-1.287.552-2.4,1.15-4.949,1.861-7.461.618-2.186,1.342-4.376,2.043-6.494l.3-.91c.163-.493.373-.98.577-1.452.138-.321.282-.653.41-.987a10.026,10.026,0,0,0,.568-2.024.221.221,0,0,0-.119-.237.178.178,0,0,0-.231.076c-.115.2-.233.39-.35.584-.254.419-.516.852-.754,1.295a71.406,71.406,0,0,0-4.468,9.8c-.184.514-.394,1.03-.6,1.528-.309.758-.629,1.542-.868,2.348a60.235,60.235,0,0,0-2.6,11.633,2.134,2.134,0,0,1-1.181,2.009,7.96,7.96,0,0,0-.97.58c.052-.113.1-.225.155-.337.318-.684.617-1.33.889-1.991a26.965,26.965,0,0,0,1.539-5.938q.17-1.031.333-2.06c.346-2.146.7-4.365,1.105-6.533.3-1.647.734-3.3,1.148-4.891l.024-.1c.156-.6.324-1.21.487-1.8.277-1,.563-2.042.807-3.1a.223.223,0,0,0-.112-.251.179.179,0,0,0-.238.081c-.066.121-.136.24-.206.359a6.69,6.69,0,0,0-.437.837l-.123.3c-.576,1.413-1.171,2.873-1.7,4.336-.7,1.931-1.326,3.675-1.851,5.458-.651,2.216-1.491,5.146-2.206,8.154-.543,2.282-1,4.63-1.436,6.9l-.273,1.409a1.2,1.2,0,0,1-.6.936c-.337.185-.666.379-1.047.6l-.076.044c.114-.286.213-.533.313-.78a39.012,39.012,0,0,0,2.125-8.323c.825-4.886,1.526-8.927,2.205-12.718.126-.7.314-1.4.5-2.083.09-.34.181-.679.266-1.019a3.276,3.276,0,0,0,.113-1.394.209.209,0,0,0-.161-.176.183.183,0,0,0-.2.109c-.115.249-.236.5-.357.743a15.917,15.917,0,0,0-.742,1.675q-.331.935-.67,1.869c-.785,2.179-1.6,4.433-2.251,6.707a79.047,79.047,0,0,0-3,15.743,1.169,1.169,0,0,1-.672,1.149c-.511.251-1,.545-1.525.857l-.171.1c.053-.113.107-.224.159-.334.3-.634.589-1.233.842-1.847a29.939,29.939,0,0,0,1.725-7.222c.416-2.89.892-5.915,1.454-9.248.075-.445.175-.9.271-1.333a19.49,19.49,0,0,0,.378-2.069.22.22,0,0,0-.137-.232.183.183,0,0,0-.227.105c-.184.413-.374.823-.565,1.233-.42.9-.855,1.84-1.212,2.8-.831,2.226-1.63,4.41-2.279,6.663a62.4,62.4,0,0,0-2.431,11.684,1.523,1.523,0,0,1-.914,1.461c-.486.218-.975.458-1.493.711l-.225.111.121-.224a13.027,13.027,0,0,0,.719-1.463c.439-1.121.94-2.451,1.331-3.818.381-1.329.7-2.7,1-4.033l.313-1.354c.4-1.721.813-3.5,1.172-5.266a72.488,72.488,0,0,1,3.077-10.733,3.378,3.378,0,0,0,.266-1.344.215.215,0,0,0-.148-.2.182.182,0,0,0-.212.1q-.321.635-.644,1.266c-.459.9-.932,1.824-1.383,2.747a115.7,115.7,0,0,0-5.9,15.354,57.317,57.317,0,0,0-2.023,8.682c-.022.134-.037.27-.053.406a4.184,4.184,0,0,1-.125.732.923.923,0,0,1-.341.515,27.368,27.368,0,0,1-3.192,1.4,20.319,20.319,0,0,0,3.031-5.739l.145-.423c.867-2.536,1.763-5.158,2.619-7.749.322-.973.634-1.969.935-2.932.512-1.636,1.042-3.329,1.635-4.957.481-1.32,1.076-2.617,1.652-3.872.259-.563.526-1.146.78-1.724a.94.94,0,0,0,.079-.682.208.208,0,0,0-.149-.153.18.18,0,0,0-.188.076q-.25.357-.5.712c-.363.51-.738,1.037-1.09,1.571a74.946,74.946,0,0,0-5.174,9.232,81.749,81.749,0,0,0-4.161,10.443c-.4,1.278-.755,2.6-1.1,3.873-.16.6-.32,1.192-.485,1.786-.027.1-.057.194-.087.291-.055.175-.111.356-.151.545a1.477,1.477,0,0,1-1.127,1.287,9.61,9.61,0,0,0-1.411.559c-.116.053-.233.107-.35.159a4.2,4.2,0,0,1,.28-.43,17.75,17.75,0,0,0,2.574-4.6q.357-.949.718-1.9c.591-1.555,1.2-3.163,1.774-4.759a84.763,84.763,0,0,1,7.229-15.848,3.844,3.844,0,0,0,.2-.382c.026-.056.052-.111.079-.166a.229.229,0,0,0-.056-.274l-.163-.134a.18.18,0,0,0-.262.032q-.421.567-.849,1.129c-.611.808-1.243,1.644-1.837,2.492a90.039,90.039,0,0,0-7.337,12.8,77.748,77.748,0,0,0-4.328,11.31c-.435,1.453-1.047,2.107-2.115,2.258a2.658,2.658,0,0,0-.483.13,2.266,2.266,0,0,1,.2-.33,26.357,26.357,0,0,0,3.489-6.609c.5-1.286,1-2.6,1.487-3.868.841-2.2,1.71-4.483,2.619-6.694a82.38,82.38,0,0,1,6.858-13.522.446.446,0,0,0,.054-.165c.007-.036.017-.087.033-.163a.227.227,0,0,0-.085-.233.177.177,0,0,0-.225.013c-.078.071-.148.131-.211.186a2.9,2.9,0,0,0-.328.311,67.215,67.215,0,0,0-7.562,11.059c-1.708,3.054-3.362,6.212-4.917,9.387q-.51,1.043-1,2.151c.181-.54.357-1.077.533-1.611.389-1.186.792-2.412,1.217-3.6a56.962,56.962,0,0,1,3.983-8.788,1.218,1.218,0,0,0,.181-.75.217.217,0,0,0-.129-.184.175.175,0,0,0-.2.049c-.055.062-.111.123-.167.184-.121.134-.248.272-.363.422a61.064,61.064,0,0,0-6.606,10.762c-.6,1.242-1.164,2.525-1.715,3.768,1.65-4.785,3.36-9.726,5.484-14.378a.228.228,0,0,0-.058-.266.178.178,0,0,0-.246.011,19.176,19.176,0,0,0-2.625,3.607,79.989,79.989,0,0,0-4.836,9.577c-1.575,3.669-2.868,6.651-4.07,9.386-.234.531-.5,1.058-.76,1.568-.193.379-.391.77-.577,1.163a1.477,1.477,0,0,1-1.2.976c-.283.035-.566.1-.893.173.059-.075.112-.139.167-.2a20.833,20.833,0,0,0,3.306-5.088c.713-1.495,1.391-3.042,2.046-4.537.294-.67.587-1.339.884-2.007q.688-1.542,1.366-3.089c1.059-2.4,2.153-4.886,3.285-7.294a37.514,37.514,0,0,1,3.846-6.389,3.605,3.605,0,0,0,.6-1.086.229.229,0,0,0-.065-.241.178.178,0,0,0-.226-.01c-.06.045-.121.088-.182.13a3.458,3.458,0,0,0-.41.321,41.229,41.229,0,0,0-5.154,6.315,116.537,116.537,0,0,0-8.4,14.462c-1.181,2.386-2.724,5.533-4.193,8.72a1.21,1.21,0,0,1-1.277.829,1.471,1.471,0,0,1,.141-.266,19.486,19.486,0,0,0,2.734-5.368c.366-1.1.756-2.212,1.134-3.287l.257-.732a64.651,64.651,0,0,1,4.512-10.572.232.232,0,0,0-.038-.271.179.179,0,0,0-.248-.01c-.044.039-.089.076-.134.112a2.357,2.357,0,0,0-.314.29,40.143,40.143,0,0,0-4.4,6.719,91.19,91.19,0,0,0-4.466,9.186c-.294.7-.605,1.409-.906,2.093s-.6,1.375-.9,2.069a.8.8,0,0,1-.724.592q-2.859.261-5.716.533l-2.6.245c-.234.022-.468.039-.721.058l-.391.03a.182.182,0,0,0-.132.075.22.22,0,0,0-.04.157l.391,3.476A.2.2,0,0,0,185.144,537.233Zm20.727-7.112a22.593,22.593,0,0,0,3.4-5.081c-.446,1.308-.9,2.636-1.356,3.944-.049.141-.2.57-.371.653A5.346,5.346,0,0,1,205.871,530.121Zm6.086-3.048a1.517,1.517,0,0,0-.093.309,1.588,1.588,0,0,1-1.521,1.486c.106-.145.2-.277.3-.406a17.413,17.413,0,0,0,1.944-3.313q-.3.878-.587,1.8C211.99,526.988,211.973,527.03,211.957,527.073Z" transform="translate(-60 10)" fill="#306187"/><g transform="translate(-60 10)"><path d="M200.846,477.487l-6.535-4a3.052,3.052,0,0,1-1.477-2.389A1.31,1.31,0,0,1,194,469.537c1.515-.251,2.435,2.221,2.435,2.221s-1.294-3.441.522-4.311,3.455,2.272,1.653,4.29c0,0,2.776-3.836,5.336-2.624s.213,3.887-2.023,4.653c0,0,3.687-.47,3.442,1.269s-3.384,1.55-3.384,1.55a4.333,4.333,0,0,1,.937.479.721.721,0,0,1-.8,1.2Z" fill="#306187"/><path d="M230.782,398.495s4.978-9.033,5.875-17.845c.215-2.107-.4-7.743-4.108-5.141C229.358,377.745,228.4,390.046,230.782,398.495Z" fill="#73c2b3"/><path d="M232.3,376.1s-2.875,8.717-1.523,22.4" fill="none" stroke="#306187" stroke-linecap="round" stroke-linejoin="round" stroke-width="1.252"/><path d="M235.711,376.474a102.381,102.381,0,0,1-4.929,22.021s1.243-15.031,3.575-23.375" fill="none" stroke="#306187" stroke-linecap="round" stroke-linejoin="round" stroke-width="1.252"/><path d="M229.322,405.983s6.862-1.7,11.213-5.86c1.041-.994,3.121-4.4-.2-5.341C237.472,393.971,231.575,399.959,229.322,405.983Z" fill="#73c2b3"/><path d="M239.781,395.189s-5.331,2.615-10.459,10.794" fill="none" stroke="#306187" stroke-linecap="round" stroke-linejoin="round" stroke-width="1.252"/><path d="M241.635,397.535a53.915,53.915,0,0,1-12.313,8.448s7.1-7.025,12.1-10.026" fill="none" stroke="#306187" stroke-linecap="round" stroke-linejoin="round" stroke-width="1.252"/><path d="M229.613,406.044s-6.17-3.455-9.271-8.61c-.741-1.233-1.851-5.065,1.606-5.1C224.919,392.308,229.028,399.639,229.613,406.044Z" fill="#73c2b3"/><path d="M222.386,392.992s4.437,3.81,7.227,13.052" fill="none" stroke="#306187" stroke-linecap="round" stroke-linejoin="round" stroke-width="1.252"/><path d="M220.128,394.522a48.812,48.812,0,0,0,9.485,11.522s-4.833-8.775-8.862-12.988" fill="none" stroke="#306187" stroke-linecap="round" stroke-linejoin="round" stroke-width="1.252"/><path d="M217.244,438.581s-6.849-1.76-12.652-.172c-1.387.38-4.835,2.386-2.357,4.8C204.365,445.278,212.4,442.811,217.244,438.581Z" fill="#73c2b3"/><path d="M202.912,443.109s5.933.232,14.332-4.528" fill="none" stroke="#306187" stroke-linecap="round" stroke-linejoin="round" stroke-width="1.252"/><path d="M202.4,440.164a53.9,53.9,0,0,1,14.849-1.583s-9.587,2.807-15.41,3.074" fill="none" stroke="#306187" stroke-linecap="round" stroke-linejoin="round" stroke-width="1.252"/><path d="M217.279,438.75s6.32,3.171,9.653,8.18c.8,1.2,2.079,4.975-1.373,5.165C222.593,452.259,218.154,445.122,217.279,438.75Z" fill="#73c2b3"/><path d="M225.092,451.46s-4.606-3.6-7.813-12.71" fill="none" stroke="#306187" stroke-linecap="round" stroke-linejoin="round" stroke-width="1.252"/><path d="M227.278,449.829a48.819,48.819,0,0,0-10-11.079s5.227,8.546,9.443,12.572" fill="none" stroke="#306187" stroke-linecap="round" stroke-linejoin="round" stroke-width="1.252"/><path d="M213.248,445.346s-5.771-1.484-10.66-.145c-1.169.32-4.075,2.01-1.987,4.041C202.4,450.988,209.166,448.91,213.248,445.346Z" fill="#73c2b3"/><path d="M201.172,449.161s5,.195,12.076-3.815" fill="none" stroke="#306187" stroke-linecap="round" stroke-linejoin="round" stroke-width="1.252"/><path d="M200.736,446.679a45.419,45.419,0,0,1,12.512-1.333s-8.078,2.365-12.984,2.589" fill="none" stroke="#306187" stroke-linecap="round" stroke-linejoin="round" stroke-width="1.252"/><path d="M213.366,445.559s4.465,3.946,6.1,8.745c.391,1.147.622,4.5-2.231,3.911C214.782,457.709,212.705,450.938,213.366,445.559Z" fill="#73c2b3"/><path d="M216.99,457.6s-2.975-3.929-3.624-12.038" fill="none" stroke="#306187" stroke-linecap="round" stroke-linejoin="round" stroke-width="1.252"/><path d="M219.123,456.74a41.152,41.152,0,0,0-5.757-11.181s2.415,8.088,4.982,12.277" fill="none" stroke="#306187" stroke-linecap="round" stroke-linejoin="round" stroke-width="1.252"/><path d="M227.078,415.023s8.515.291,14.929-3.087c1.533-.808,5.069-4.064,1.527-6.256C240.489,403.8,231.678,408.787,227.078,415.023Z" fill="#73c2b3"/><path d="M242.762,405.97s-7.041,1.27-15.684,9.053" fill="none" stroke="#306187" stroke-linecap="round" stroke-linejoin="round" stroke-width="1.252"/><path d="M244.136,409.3a64.949,64.949,0,0,1-17.058,5.722s10.549-5.8,17.33-7.622" fill="none" stroke="#306187" stroke-linecap="round" stroke-linejoin="round" stroke-width="1.252"/><path d="M227.14,415.057s-8.014-2.893-12.715-8.412c-1.123-1.319-3.2-5.655.907-6.375C218.858,399.652,225.184,407.558,227.14,415.057Z" fill="#73c2b3"/><path d="M215.981,400.963s6.025,3.657,11.159,14.094" fill="none" stroke="#306187" stroke-linecap="round" stroke-linejoin="round" stroke-width="1.252"/><path d="M213.6,403.226a58.8,58.8,0,0,0,13.542,11.831s-7.472-9.48-13.089-13.7" fill="none" stroke="#306187" stroke-linecap="round" stroke-linejoin="round" stroke-width="1.252"/><path d="M222.532,427.185s6.6,7.588,14.685,10.407c1.932.674,7.59,1.106,6.631-3.718C243.024,429.729,231.621,426.138,222.532,427.185Z" fill="#73c2b3"/><path d="M242.978,433.441s-6.766-5.058-20.446-6.256" fill="none" stroke="#306187" stroke-linecap="round" stroke-linejoin="round" stroke-width="1.252"/><path d="M241.207,437.309a76.7,76.7,0,0,1-18.675-10.124s13.5,4.445,20.534,8.83" fill="none" stroke="#306187" stroke-linecap="round" stroke-linejoin="round" stroke-width="1.252"/><path d="M222.953,427.266s-9.823,2.166-17.994-.378c-1.954-.608-6.758-3.629-3.116-6.934C204.972,417.113,216.273,421.015,222.953,427.266Z" fill="#73c2b3"/><path d="M202.928,420.236s8.319-.15,20.025,7.03" fill="none" stroke="#306187" stroke-linecap="round" stroke-linejoin="round" stroke-width="1.252"/><path d="M201.976,424a69.438,69.438,0,0,0,20.977,3.268s-13.435-4.75-21.7-5.415" fill="none" stroke="#306187" stroke-linecap="round" stroke-linejoin="round" stroke-width="1.252"/><path d="M219.535,433.527s3.9,7.576,9.976,11.528c1.452.945,6.019,2.443,6.205-1.718C235.876,439.76,227.223,434.5,219.535,433.527Z" fill="#73c2b3"/><path d="M235.088,442.8s-4.543-5.528-15.553-9.278" fill="none" stroke="#306187" stroke-linecap="round" stroke-linejoin="round" stroke-width="1.252"/><path d="M232.85,445.629a64.975,64.975,0,0,1-13.315-12.1s10.2,6.383,15.106,11.413" fill="none" stroke="#306187" stroke-linecap="round" stroke-linejoin="round" stroke-width="1.252"/><path d="M219.959,433.46s-7.665,3.721-14.9,3.236c-1.73-.116-6.282-1.658-3.934-5.1C203.146,428.641,213.224,429.627,219.959,433.46Z" fill="#73c2b3"/><path d="M202.078,431.616s6.823-1.763,17.881,1.844" fill="none" stroke="#306187" stroke-linecap="round" stroke-linejoin="round" stroke-width="1.252"/><path d="M202.035,434.9a58.825,58.825,0,0,0,17.924-1.442s-12-1.265-18.943-.184" fill="none" stroke="#306187" stroke-linecap="round" stroke-linejoin="round" stroke-width="1.252"/><path d="M224.578,422.3s9.819,3.4,18.509,1.773c2.077-.389,7.369-2.912,4.029-6.741C244.247,414.044,232.183,416.69,224.578,422.3Z" fill="#73c2b3"/><path d="M246.114,417.394s-8.663-1.053-21.536,4.908" fill="none" stroke="#306187" stroke-linecap="round" stroke-linejoin="round" stroke-width="1.252"/><path d="M246.517,421.77a79.224,79.224,0,0,1-21.939.532s14.379-2.958,22.939-2.648" fill="none" stroke="#306187" stroke-linecap="round" stroke-linejoin="round" stroke-width="1.252"/><path d="M224.661,422.325s-10.331-1.118-17.493-6.3c-1.712-1.239-5.419-5.78-.764-7.816C210.4,406.457,220.182,414,224.661,422.325Z" fill="#73c2b3"/><path d="M207.373,408.84s8.194,2.6,17.288,13.485" fill="none" stroke="#306187" stroke-linecap="round" stroke-linejoin="round" stroke-width="1.252"/><path d="M205.2,412.209a71.746,71.746,0,0,0,19.46,10.116s-11.588-9.08-19.46-12.456" fill="none" stroke="#306187" stroke-linecap="round" stroke-linejoin="round" stroke-width="1.252"/><path d="M193.512,472.127s31.922-32.941,37.4-74.221" fill="none" stroke="#306187" stroke-linecap="round" stroke-linejoin="round" stroke-width="1.878"/><path d="M194.749,473.753l-8.526-5.222a3.985,3.985,0,0,1-1.927-3.118,1.71,1.71,0,0,1,1.517-2.032c1.976-.328,3.176,2.9,3.176,2.9s-1.688-4.489.682-5.624,4.063,2.407,2.156,5.6c0,0,3.621-5.006,6.961-3.425s.279,5.072-2.639,6.072c0,0,4.81-.614,4.49,1.655s-4.415,2.022-4.415,2.022a5.658,5.658,0,0,1,1.224.625.941.941,0,0,1-1.039,1.568Z" fill="#73c2b3"/><path d="M189.077,466.66a11.462,11.462,0,0,1,1.029,3.814c.468-1.322,1.18-2.7,1.648-4.022" fill="none" stroke="#306187" stroke-linecap="round" stroke-linejoin="round" stroke-width="1.252"/><path d="M195.551,472.271a11.576,11.576,0,0,0-5.445-1.8,18.562,18.562,0,0,1,4.979-1.4" fill="none" stroke="#306187" stroke-linecap="round" stroke-linejoin="round" stroke-width="1.252"/></g><g transform="translate(40 20)"><path d="M994.223,472.49c-5.55,3.86-12.289,5.8-20.387-4.574s-15.414-7.752-21.231-19.322,2.243-19.8-5.059-27.137c-3.605-3.622-9.051-11.024-10.6-18.275-2.595-12.123,14.12-27,24.205-7.785,3.455,6.585,2.012,13.364,8.284,20.5,4.412,5.02,8.957,4.728,14.9,15.568,5.374,9.8.865,14.787,8.858,22.009S1000.771,467.935,994.223,472.49Z" fill="#306187"/><path d="M942.623,390.56a38.416,38.416,0,0,1,14.15,17.753c2.858,7.351,3.383,15.435,6.128,22.829,4.307,11.6,13.617,20.475,21.857,29.71,2.711,3.038,5.428,6.349,6.2,10.348" fill="none" stroke="#73c2b3" stroke-linecap="round" stroke-linejoin="round" stroke-width="1.326"/><path d="M974.489,449.613Q964,447.39,953.4,445.807" fill="none" stroke="#73c2b3" stroke-linecap="round" stroke-linejoin="round" stroke-width="1.326"/><path d="M977.6,453.027a134.963,134.963,0,0,0-17.718-2.186" fill="none" stroke="#73c2b3" stroke-linecap="round" stroke-linejoin="round" stroke-width="1.326"/><path d="M982.767,458.761a41.79,41.79,0,0,0-10.946-.879" fill="none" stroke="#73c2b3" stroke-linecap="round" stroke-linejoin="round" stroke-width="1.326"/><path d="M969.369,443.216a130.225,130.225,0,0,1,7.318-17.392" fill="none" stroke="#73c2b3" stroke-linecap="round" stroke-linejoin="round" stroke-width="1.326"/><path d="M971.7,445.2q4.579-8.234,9.16-16.468" fill="none" stroke="#73c2b3" stroke-linecap="round" stroke-linejoin="round" stroke-width="1.326"/><path d="M954.4,426.006l7.181,1.316" fill="none" stroke="#73c2b3" stroke-linecap="round" stroke-linejoin="round" stroke-width="1.326"/><path d="M950.671,420.974q4.944,1.244,9.78,2.873" fill="none" stroke="#73c2b3" stroke-linecap="round" stroke-linejoin="round" stroke-width="1.326"/><path d="M960.364,420.633a82.115,82.115,0,0,0,5.042-8.719" fill="none" stroke="#73c2b3" stroke-linecap="round" stroke-linejoin="round" stroke-width="1.326"/><path d="M986.711,462.374a73.17,73.17,0,0,0,3.186-9.58" fill="none" stroke="#73c2b3" stroke-linecap="round" stroke-linejoin="round" stroke-width="1.326"/><path d="M957.048,410.662a44.777,44.777,0,0,0-15.209-4.022" fill="none" stroke="#73c2b3" stroke-linecap="round" stroke-linejoin="round" stroke-width="1.326"/><path d="M955.689,405.771l-7.388-3.34" fill="none" stroke="#73c2b3" stroke-linecap="round" stroke-linejoin="round" stroke-width="1.326"/><path d="M952.279,399.3q.41-5.427,1.318-10.8" fill="none" stroke="#73c2b3" stroke-linecap="round" stroke-linejoin="round" stroke-width="1.326"/><path d="M949.042,395.62a53.91,53.91,0,0,1,1.275-8.106" fill="none" stroke="#73c2b3" stroke-linecap="round" stroke-linejoin="round" stroke-width="1.326"/><path d="M982.294,446.409c-8.045-20.151-23.527-38.314-44.256-39.571a45.161,45.161,0,0,0,9.508,14.619c7.3,7.339-.757,15.566,5.059,27.137s13.133,8.95,21.231,19.322,14.837,8.434,20.387,4.574c4.534-3.154,6.121-7.6,4.019-12.428C991.486,456.418,984.858,453.138,982.294,446.409Z" fill="#306187" opacity="0.3" style="mix-blend-mode:multiply;isolation:isolate"/><path d="M979.335,478.447c6.25-6,10.385-13.978-.606-26.771s-5.852-21.326-18.924-31.553-25.444-2.175-32.824-13.2c-3.643-5.442-11.57-14.154-20.29-17.933-14.579-6.319-37.494,10.932-15.888,28.452,7.4,6,16.285,5.9,23.67,15.581,5.194,6.811,3.681,12.448,15.8,22.655,10.954,9.224,18.364,4.817,25.423,16.683S971.959,485.528,979.335,478.447Z" fill="#73c2b3"/><path d="M965.288,425.516c-6.859,15.568-8.258,33.833-4.2,53.572,5.976,5.272,12.641,4.744,18.25-.641,6.25-6,10.385-13.978-.606-26.771C969.717,441.186,971.543,433.56,965.288,425.516Z" fill="#306187" opacity="0.3" style="mix-blend-mode:multiply;isolation:isolate"/><path d="M889.4,392.939A49.232,49.232,0,0,0,908.137,415.2c8.516,5.445,18.542,8.144,27.141,13.458,13.493,8.339,22.293,22.276,31.819,34.96,3.135,4.174,6.61,8.423,11.441,10.4" fill="none" stroke="#306187" stroke-linecap="round" stroke-linejoin="round" stroke-width="1.326"/><path d="M955.566,447.879q-.15-13.736.536-27.463" fill="none" stroke="#306187" stroke-linecap="round" stroke-linejoin="round" stroke-width="1.326"/><path d="M959.069,452.656a172.99,172.99,0,0,1,1.723-22.815" fill="none" stroke="#306187" stroke-linecap="round" stroke-linejoin="round" stroke-width="1.326"/><path d="M964.972,460.59a53.6,53.6,0,0,1,1.658-13.978" fill="none" stroke="#306187" stroke-linecap="round" stroke-linejoin="round" stroke-width="1.326"/><path d="M948.819,439.832a166.938,166.938,0,0,0-23.7,4.808" fill="none" stroke="#306187" stroke-linecap="round" stroke-linejoin="round" stroke-width="1.326"/><path d="M950.722,443.261l-23,7.356" fill="none" stroke="#306187" stroke-linecap="round" stroke-linejoin="round" stroke-width="1.326"/><path d="M930.968,416.681q-.08,4.678-.157,9.356" fill="none" stroke="#306187" stroke-linecap="round" stroke-linejoin="round" stroke-width="1.326"/><path d="M925.586,410.725q.315,6.526,1.142,13.015" fill="none" stroke="#306187" stroke-linecap="round" stroke-linejoin="round" stroke-width="1.326"/><path d="M922.712,422.82a105.4,105.4,0,0,1-12.228,4.136" fill="none" stroke="#306187" stroke-linecap="round" stroke-linejoin="round" stroke-width="1.326"/><path d="M968.518,466.457a93.992,93.992,0,0,1-12.842,1.587" fill="none" stroke="#306187" stroke-linecap="round" stroke-linejoin="round" stroke-width="1.326"/><path d="M911.019,416.137a57.4,57.4,0,0,1-1.218-20.126" fill="none" stroke="#306187" stroke-linecap="round" stroke-linejoin="round" stroke-width="1.326"/><path d="M905.216,413.2l-2.334-10.126" fill="none" stroke="#306187" stroke-linecap="round" stroke-linejoin="round" stroke-width="1.326"/><path d="M897.943,407.278q-6.924-.854-13.9-1.069" fill="none" stroke="#306187" stroke-linecap="round" stroke-linejoin="round" stroke-width="1.326"/><path d="M894.137,402.282a69.22,69.22,0,0,0-10.508-.443" fill="none" stroke="#306187" stroke-linecap="round" stroke-linejoin="round" stroke-width="1.326"/></g><g transform="translate(40 20)"><path d="M1369.457,586.613H954.129a28.546,28.546,0,0,1-20.888-9.089l-.651-.7V564.857H1391v11.968l-.651.7A28.546,28.546,0,0,1,1369.457,586.613Z" fill="#7acaf3" style="mix-blend-mode:multiply;isolation:isolate"/><rect width="458.407" height="11.967" transform="translate(932.59 564.857)" fill="#7acaf3"/><path d="M1161.793,571.377h36.456a20.867,20.867,0,0,0,11.732-3.333l4.578-3.187H1109.027l4.577,3.187a20.873,20.873,0,0,0,11.733,3.333Z" fill="#fff" stroke="#25a9e0" stroke-linecap="round" stroke-linejoin="round" stroke-width="2"/><path d="M9.673,0H379a9.673,9.673,0,0,1,9.673,9.673V234.268a0,0,0,0,1,0,0H0a0,0,0,0,1,0,0V9.673A9.673,9.673,0,0,1,9.673,0Z" transform="translate(967.457 330.59)" fill="#7acaf3"/><rect width="360.273" height="205.559" transform="translate(981.656 344.944)" stroke-width="2" stroke="#25a9e0" stroke-linecap="round" stroke-linejoin="round" fill="#fff"/><rect width="61.243" height="61.242" transform="translate(1007.503 412.305)" fill="#89e8ff"/><rect width="61.243" height="61.242" transform="translate(1007.503 481.309)" fill="#89e8ff"/><rect width="71.992" height="7.082" transform="translate(1073.458 412.305)" fill="#89e8ff"/><rect width="61.641" height="3.541" transform="translate(1073.458 422.383)" fill="#89e8ff"/><rect width="80.708" height="3.541" transform="translate(1073.458 444.697)" fill="#4eccf3"/><rect width="35.527" height="3.541" transform="translate(1156.773 444.697)" fill="#4eccf3"/><rect width="68.217" height="3.541" transform="translate(1194.903 444.697)" fill="#4eccf3"/><rect width="80.708" height="3.541" transform="translate(1073.458 451.619)" fill="#4eccf3"/><rect width="67.668" height="3.541" transform="translate(1156.773 451.619)" fill="#4eccf3"/><rect width="67.669" height="3.541" transform="translate(1073.458 458.338)" fill="#4eccf3"/><path d="M1079.206,428l.916,1.856a.816.816,0,0,0,.616.447l2.047.3a.818.818,0,0,1,.453,1.395l-1.481,1.444a.816.816,0,0,0-.235.724l.349,2.04a.818.818,0,0,1-1.187.862l-1.831-.963a.819.819,0,0,0-.761,0l-1.832.963a.818.818,0,0,1-1.187-.862l.35-2.04a.816.816,0,0,0-.235-.724L1073.706,432a.818.818,0,0,1,.454-1.395l2.047-.3a.816.816,0,0,0,.616-.447l.916-1.856A.819.819,0,0,1,1079.206,428Z" fill="#25a9e0"/><path d="M1092.109,428l.916,1.856a.816.816,0,0,0,.616.447l2.047.3a.818.818,0,0,1,.454,1.395l-1.482,1.444a.816.816,0,0,0-.235.724l.35,2.04a.818.818,0,0,1-1.187.862l-1.832-.963a.819.819,0,0,0-.761,0l-1.831.963a.818.818,0,0,1-1.187-.862l.35-2.04a.82.82,0,0,0-.236-.724L1086.61,432a.818.818,0,0,1,.453-1.395l2.048-.3a.816.816,0,0,0,.615-.447l.916-1.856A.819.819,0,0,1,1092.109,428Z" fill="#25a9e0"/><path d="M1105.012,428l.916,1.856a.817.817,0,0,0,.616.447l2.047.3a.818.818,0,0,1,.454,1.395l-1.482,1.444a.822.822,0,0,0-.235.724l.35,2.04a.818.818,0,0,1-1.187.862l-1.831-.963a.821.821,0,0,0-.762,0l-1.831.963a.818.818,0,0,1-1.187-.862l.35-2.04a.82.82,0,0,0-.236-.724L1099.513,432a.818.818,0,0,1,.453-1.395l2.048-.3a.817.817,0,0,0,.616-.447l.915-1.856A.818.818,0,0,1,1105.012,428Z" fill="#25a9e0"/><path d="M1117.916,428l.915,1.856a.819.819,0,0,0,.616.447l2.048.3a.818.818,0,0,1,.453,1.395l-1.481,1.444a.82.82,0,0,0-.236.724l.35,2.04a.818.818,0,0,1-1.187.862l-1.831-.963a.819.819,0,0,0-.761,0l-1.832.963a.818.818,0,0,1-1.187-.862l.35-2.04a.817.817,0,0,0-.235-.724L1112.416,432a.818.818,0,0,1,.453-1.395l2.048-.3a.817.817,0,0,0,.616-.447l.916-1.856A.819.819,0,0,1,1117.916,428Z" fill="#25a9e0"/><path d="M1130.819,428l.916,1.856a.816.816,0,0,0,.616.447l2.047.3a.818.818,0,0,1,.454,1.395l-1.482,1.444a.816.816,0,0,0-.235.724l.349,2.04a.818.818,0,0,1-1.187.862l-1.831-.963a.819.819,0,0,0-.761,0l-1.831.963a.818.818,0,0,1-1.187-.862l.349-2.04a.816.816,0,0,0-.235-.724L1125.319,432a.818.818,0,0,1,.454-1.395l2.047-.3a.816.816,0,0,0,.616-.447l.916-1.856A.818.818,0,0,1,1130.819,428Z" fill="#25a9e0"/><rect width="71.992" height="7.082" transform="translate(1073.458 481.309)" fill="#89e8ff"/><rect width="61.641" height="3.541" transform="translate(1073.458 491.387)" fill="#89e8ff"/><rect width="80.708" height="3.541" transform="translate(1073.458 513.701)" fill="#4eccf3"/><rect width="35.527" height="3.541" transform="translate(1156.773 513.701)" fill="#4eccf3"/><rect width="68.217" height="3.541" transform="translate(1194.903 513.701)" fill="#4eccf3"/><rect width="80.708" height="3.541" transform="translate(1073.458 520.623)" fill="#4eccf3"/><rect width="67.668" height="3.541" transform="translate(1156.773 520.623)" fill="#4eccf3"/><rect width="67.669" height="3.541" transform="translate(1073.458 527.342)" fill="#4eccf3"/><path d="M1079.206,497.006l.916,1.856a.818.818,0,0,0,.616.447l2.047.3a.818.818,0,0,1,.453,1.4l-1.481,1.444a.816.816,0,0,0-.235.724l.349,2.04a.818.818,0,0,1-1.187.862l-1.831-.963a.819.819,0,0,0-.761,0l-1.832.963a.818.818,0,0,1-1.187-.862l.35-2.04a.816.816,0,0,0-.235-.724L1073.706,501a.818.818,0,0,1,.454-1.4l2.047-.3a.818.818,0,0,0,.616-.447l.916-1.856A.818.818,0,0,1,1079.206,497.006Z" fill="#25a9e0"/><path d="M1092.109,497.006l.916,1.856a.818.818,0,0,0,.616.447l2.047.3a.818.818,0,0,1,.454,1.4l-1.482,1.444a.816.816,0,0,0-.235.724l.35,2.04a.818.818,0,0,1-1.187.862l-1.832-.963a.819.819,0,0,0-.761,0l-1.831.963a.818.818,0,0,1-1.187-.862l.35-2.04a.82.82,0,0,0-.236-.724L1086.61,501a.818.818,0,0,1,.453-1.4l2.048-.3a.818.818,0,0,0,.615-.447l.916-1.856A.818.818,0,0,1,1092.109,497.006Z" fill="#25a9e0"/><path d="M1105.012,497.006l.916,1.856a.82.82,0,0,0,.616.447l2.047.3a.818.818,0,0,1,.454,1.4l-1.482,1.444a.822.822,0,0,0-.235.724l.35,2.04a.818.818,0,0,1-1.187.862l-1.831-.963a.821.821,0,0,0-.762,0l-1.831.963a.818.818,0,0,1-1.187-.862l.35-2.04a.819.819,0,0,0-.236-.724L1099.513,501a.818.818,0,0,1,.453-1.4l2.048-.3a.82.82,0,0,0,.616-.447l.915-1.856A.818.818,0,0,1,1105.012,497.006Z" fill="#25a9e0"/><path d="M1117.916,497.006l.915,1.856a.821.821,0,0,0,.616.447l2.048.3a.818.818,0,0,1,.453,1.4l-1.481,1.444a.82.82,0,0,0-.236.724l.35,2.04a.818.818,0,0,1-1.187.862l-1.831-.963a.819.819,0,0,0-.761,0l-1.832.963a.818.818,0,0,1-1.187-.862l.35-2.04a.817.817,0,0,0-.235-.724L1112.416,501a.818.818,0,0,1,.453-1.4l2.048-.3a.82.82,0,0,0,.616-.447l.916-1.856A.818.818,0,0,1,1117.916,497.006Z" fill="#25a9e0"/><path d="M1130.819,497.006l.916,1.856a.818.818,0,0,0,.616.447l2.047.3a.818.818,0,0,1,.454,1.4l-1.482,1.444a.816.816,0,0,0-.235.724l.349,2.04a.818.818,0,0,1-1.187.862l-1.831-.963a.819.819,0,0,0-.761,0l-1.831.963a.818.818,0,0,1-1.187-.862l.349-2.04a.816.816,0,0,0-.235-.724L1125.319,501a.818.818,0,0,1,.454-1.4l2.047-.3a.818.818,0,0,0,.616-.447l.916-1.856A.818.818,0,0,1,1130.819,497.006Z" fill="#4eccf3"/><rect width="9.3" height="205.559" transform="translate(1332.63 344.944)" stroke-width="2" stroke="#25a9e0" stroke-linecap="round" stroke-linejoin="round" fill="#4eccf3"/><rect width="4.897" height="62.484" transform="translate(1334.831 438.875)" fill="#89e8ff"/><rect width="4.971" height="4.971" transform="translate(1334.757 543.39)" fill="#0096c5"/><path d="M1337.242,547.476l2.114-3.2h-4.228Z" fill="#fff"/><path d="M1055.018,396.4h-33.786a3.1,3.1,0,0,1-3.081-2.786l-1.853-18.432a.293.293,0,0,1,.291-.323h43.071a.294.294,0,0,1,.292.323l-1.854,18.432A3.1,3.1,0,0,1,1055.018,396.4Z" fill="#fff" stroke="#25a9e0" stroke-linecap="round" stroke-linejoin="round" stroke-width="2"/><rect width="49.906" height="4.152" rx="2.009" transform="translate(1013.172 372.065)" fill="#7acaf3"/><path d="M1022.263,390.862V380.706a1.692,1.692,0,0,1,1.692-1.691h0a1.692,1.692,0,0,1,1.691,1.691v10.156a1.692,1.692,0,0,1-1.691,1.691h0A1.692,1.692,0,0,1,1022.263,390.862Z" fill="#25a9e0"/><path d="M1031.71,390.862V380.706a1.691,1.691,0,0,1,1.691-1.691h0a1.691,1.691,0,0,1,1.691,1.691v10.156a1.691,1.691,0,0,1-1.691,1.691h0A1.691,1.691,0,0,1,1031.71,390.862Z" fill="#25a9e0"/><path d="M1041.157,390.862V380.706a1.691,1.691,0,0,1,1.691-1.691h0a1.691,1.691,0,0,1,1.691,1.691v10.156a1.691,1.691,0,0,1-1.691,1.691h0A1.691,1.691,0,0,1,1041.157,390.862Z" fill="#25a9e0"/><path d="M1050.6,390.862V380.706a1.691,1.691,0,0,1,1.691-1.691h0a1.691,1.691,0,0,1,1.691,1.691v10.156a1.691,1.691,0,0,1-1.691,1.691h0A1.691,1.691,0,0,1,1050.6,390.862Z" fill="#25a9e0"/><path d="M1.864,0H18.831a1.864,1.864,0,0,1,1.864,1.864v.074A1.863,1.863,0,0,1,18.832,3.8H1.864A1.864,1.864,0,0,1,0,1.937V1.864A1.864,1.864,0,0,1,1.864,0Z" transform="matrix(0.5, 0.866, -0.866, 0.5, 1038.844, 355.966)" fill="#25a9e0"/><path d="M1.864,0H18.829a1.866,1.866,0,0,1,1.866,1.866v.073A1.863,1.863,0,0,1,18.832,3.8H1.864A1.864,1.864,0,0,1,0,1.937V1.864A1.864,1.864,0,0,1,1.864,0Z" transform="matrix(-0.5, 0.866, -0.866, -0.5, 1040.697, 357.866)" fill="#25a9e0"/></g><g transform="translate(-60 10)"><path d="M337.268,574.407h96.767a1.658,1.658,0,0,1,1.7,1.61h0a1.658,1.658,0,0,1-1.7,1.61H337.268a1.659,1.659,0,0,1-1.7-1.61h0A1.659,1.659,0,0,1,337.268,574.407Z" fill="#7acaf3" style="mix-blend-mode:multiply;isolation:isolate"/><rect width="96.703" height="51.412" transform="translate(336.192 524.046)" fill="#7acaf3"/><path d="M426.781,537.928v23.759a7.2,7.2,0,0,0-7.2,7.088H349.5a7.2,7.2,0,0,0-7.179-7.088V537.928a7.194,7.194,0,0,0,7.179-7.2h70.085A7.2,7.2,0,0,0,426.781,537.928Z" fill="#f5f5f5"/><path d="M395.053,549.752a10.5,10.5,0,1,1-10.5-10.5A10.5,10.5,0,0,1,395.053,549.752Z" fill="#7acaf3"/></g><path d="M691.074,678.2s91.948-38.241,136.5-64.252,110.59-37.845,189.445-15.812,149.727,7.13,215.8-4.39,140.064,23.444,140.064,23.444l-86.269,112.148Z" transform="translate(0 -7)" fill="#007bbc"/><g transform="translate(-60 10)"><path d="M0,0H15.135A3.975,3.975,0,0,1,19.11,3.975v33.9a0,0,0,0,1,0,0H.437A.437.437,0,0,1,0,37.438V0A0,0,0,0,1,0,0Z" transform="translate(337.192 537.583)" fill="#1c1c1b" opacity="0.22" style="mix-blend-mode:multiply;isolation:isolate"/><rect width="103.417" height="3.516" rx="1.758" transform="translate(251.58 595.267)" fill="#7acaf3" style="mix-blend-mode:multiply;isolation:isolate"/><rect width="100.123" height="60.789" rx="4.235" transform="translate(253.136 535.497)" fill="#7acaf3"/><rect width="100.123" height="9.034" transform="translate(253.136 549.448)" fill="#ffe6da"/><line x2="31.241" transform="translate(258.405 581.512)" fill="#fff" stroke="#25a9e0" stroke-miterlimit="10" stroke-width="2"/><line x2="31.241" transform="translate(297.175 581.512)" fill="#fff" stroke="#25a9e0" stroke-miterlimit="10" stroke-width="2"/></g><path d="M62.986,569.306H194.91a2.212,2.212,0,0,1,2.321,2.085h0a2.213,2.213,0,0,1-2.321,2.086H62.986a2.214,2.214,0,0,1-2.322-2.086h0A2.213,2.213,0,0,1,62.986,569.306Z" transform="translate(-60 10)" fill="#7acaf3" style="mix-blend-mode:multiply;isolation:isolate"/><path d="M414.911,679.394s-73.759-39.8-109.632-66.558S216.707,573.1,154.417,593.71,52.051,610.175,8.212,597.282a170.072,170.072,0,0,0-64.154-6.43c-47.087,1.776-71.6,32.757-71.6,32.757l69.975,96.356Z" transform="translate(-29 -6)" fill="#007bbc"/><g transform="translate(-957 20)"><path d="M967.228,477.57c-1.874-1.47-3.867-2.788-5.817-4.161a2.165,2.165,0,0,0-.534-.241.257.257,0,0,0-.341.243c0,.3,0,.54.006.779.017,2.692.175,5.392.022,8.075a31.142,31.142,0,0,1-4.846,15.077,17.8,17.8,0,0,1-2.32,2.812,1.285,1.285,0,0,1-1.821.16c-.613-.507-.331-1.118-.039-1.666,1.2-2.256,2.353-4.544,3.651-6.743a34.43,34.43,0,0,0,4.3-14.3c.488-4.461-1.093-9.014-5.3-11.315-3.263-1.784-5.543-2.816-8.9-4.432a9.406,9.406,0,0,0-3.9-.974.256.256,0,0,0-.235.377c.227.421.431.787.607,1.167a50.575,50.575,0,0,1,2.358,5.228,21.859,21.859,0,0,1,.939,7.748c-.128,3.412-.454,6.818-.776,10.218-.176,1.85-.495,3.687-.81,5.52a2.817,2.817,0,0,1-.5.947.254.254,0,0,1-.468-.127c-.025-.556-.053-1.112-.073-1.668-.178-4.914.732-9.8.2-14.739-.313-2.926-.328-5.886-1.078-8.753a8.146,8.146,0,0,0-6.068-6.251,31.3,31.3,0,0,0-4.665-.855,17.649,17.649,0,0,0-2.983.109.256.256,0,0,0-.222.347,1.164,1.164,0,0,0,.1.219c.254.4.5.8.778,1.184a26.634,26.634,0,0,1,3.839,7.731,34.772,34.772,0,0,1,1.188,15.007,3.856,3.856,0,0,1-.375,1.182.743.743,0,0,1-.557.384c-.156-.014-.373-.32-.407-.524a17,17,0,0,1-.328-2.639c-.018-2.084.107-4.17.08-6.253A21.146,21.146,0,0,0,928.1,463.89c-2.1-2.876-5.11-4.321-8.689-2.991a63.513,63.513,0,0,1-7.584,2.462c-1.681.4-3.311.822-4.289-1.2-.009-.017-.05-.018-.131-.045a2.025,2.025,0,0,0-.345.275c-1.149,1.39-2.24,2.83-3.451,4.163a20.627,20.627,0,0,1-2.7,2.435,10.262,10.262,0,0,0-3.38,4.254c-.971,2.363-.581,4.531,1.442,6.069a45.53,45.53,0,0,0,6.818,4.456c3.138,1.593,6.472,2.8,9.719,4.18.436.185,1.011.439.715.994-.163.3-.749.418-1.167.54a1.338,1.338,0,0,1-.645-.133c-1.946-.573-3.92-1.066-5.829-1.742a21.694,21.694,0,0,1-12.1-9.669c-.368-.638-.714-.671-1.044,0a17.559,17.559,0,0,0-1.066,2.709c-.837,2.819-1.615,5.655-2.422,8.483a4.811,4.811,0,0,0,.4,4.251,8.118,8.118,0,0,0,3.519,3.105,41.147,41.147,0,0,0,4.649,1.579c4.3,1.205,8.731,1.183,13.143,1.4,2.826.142,5.641.5,8.458.784.523.053.989.293.99.928,0,.613-.421.878-.951.985a7,7,0,0,1-1.155.137c-.833.029-1.667.016-2.5.037a68.311,68.311,0,0,1-16.091-1.178,19.118,19.118,0,0,1-9.934-5.1,2.105,2.105,0,0,0-.687-.379.255.255,0,0,0-.327.119,2.052,2.052,0,0,0-.292.751,21.455,21.455,0,0,0-.061,3c.237,3.352.4,6.718.849,10.044a6.243,6.243,0,0,0,4.12,5.343,14.937,14.937,0,0,0,4.068.83,60.43,60.43,0,0,0,18.2-1.591c2.479-.6,5.017-.962,7.533-1.4.5-.088,1.057-.024,1.188.624a1,1,0,0,1-.728,1.165,8.865,8.865,0,0,1-1.549.607c-2.876.612-5.744,1.293-8.648,1.738a56.467,56.467,0,0,1-13.134.584c-2.734-.222-5.443-.761-8.163-1.158l-.583-.086a.69.69,0,0,0-.731.966,23.677,23.677,0,0,0,1.357,2.758c1.987,3.244,4.05,6.444,6.116,9.639a13.822,13.822,0,0,0,2,2.646c2.009,1.886,4.506,2.273,7.153,1.969a42.884,42.884,0,0,0,13.047-3.9c3.585-1.649,7.136-3.373,10.72-5.024a7.063,7.063,0,0,1,2.078-.554,1.326,1.326,0,0,1,1.061.419c.14.2-.032.754-.232,1.029a7.3,7.3,0,0,1-1.407,1.522,48,48,0,0,1-8,5.4,37.467,37.467,0,0,1-12.78,3.561c-2.1.208-4.218.2-6.328.294-.289.014-.576.059-.942.109a.256.256,0,0,0-.2.364,9.713,9.713,0,0,0,2.432,3.239c1.21,1.02,2.428,2.037,3.707,2.967a79.1,79.1,0,0,0,18.718,10.62A21.446,21.446,0,0,0,943.15,555.7a29.018,29.018,0,0,0,11.139-3.964,18.365,18.365,0,0,0,6.518-7.109c2.741-5.291,1.8-10.391-1.488-15.084-1.635-2.332-3.669-4.383-5.5-6.579a35.606,35.606,0,0,1-2.4-3.09,1.529,1.529,0,0,1,.062-1.348.951.951,0,0,1,1.408-.162c.164.1.322.218.488.32,2.981,1.828,5.932,3.707,8.954,5.466a13.653,13.653,0,0,0,6.916,1.937c4.021-.008,6.995-2.112,9.386-5.13a15.617,15.617,0,0,0,3.228-7.586c.468-3.233,1.34-6.419.852-9.749-.685-4.685-1.768-9.269-4.187-13.364A45.743,45.743,0,0,0,967.228,477.57Z" fill="#306187"/><path d="M952.889,518.364c.164.1.322.218.488.32,2.981,1.828,5.932,3.707,8.954,5.466a13.653,13.653,0,0,0,6.916,1.937c4.021-.008,6.995-2.112,9.386-5.13a15.617,15.617,0,0,0,3.228-7.586c.468-3.233,1.34-6.419.852-9.749-.685-4.685-1.768-9.269-4.187-13.364a45.743,45.743,0,0,0-11.3-12.688c-1.874-1.47-3.867-2.788-5.817-4.161a2.165,2.165,0,0,0-.534-.241.257.257,0,0,0-.341.243c0,.3,0,.54.006.779.017,2.692.175,5.392.022,8.075a31.142,31.142,0,0,1-4.846,15.077,17.8,17.8,0,0,1-2.32,2.812,1.285,1.285,0,0,1-1.821.16c-.613-.507-.331-1.118-.039-1.666,1.2-2.256,2.353-4.544,3.651-6.743a34.43,34.43,0,0,0,4.3-14.3c.488-4.461-1.093-9.014-5.3-11.315-3.263-1.784-5.543-2.816-8.9-4.432a9.406,9.406,0,0,0-3.9-.974.256.256,0,0,0-.235.377c.227.421.431.787.607,1.167a50.575,50.575,0,0,1,2.358,5.228,21.859,21.859,0,0,1,.939,7.748c-.128,3.412-.454,6.818-.776,10.218-.176,1.85-.495,3.687-.81,5.52a2.817,2.817,0,0,1-.5.947.254.254,0,0,1-.468-.127c-.025-.556-.053-1.112-.073-1.668-.178-4.914.732-9.8.2-14.739-.313-2.926-.328-5.886-1.078-8.753a8.146,8.146,0,0,0-6.068-6.251,31.3,31.3,0,0,0-4.665-.855,17.649,17.649,0,0,0-2.983.109.256.256,0,0,0-.222.347,1.164,1.164,0,0,0,.1.219c.254.4.5.8.778,1.184a26.634,26.634,0,0,1,3.839,7.731,34.772,34.772,0,0,1,1.188,15.007,3.856,3.856,0,0,1-.375,1.182.743.743,0,0,1-.557.384c-.156-.014-.373-.32-.407-.524a17,17,0,0,1-.328-2.639c-.018-2.084.107-4.17.08-6.253A21.146,21.146,0,0,0,928.1,463.89c-2.1-2.876-5.11-4.321-8.689-2.991a63.513,63.513,0,0,1-7.584,2.462c-1.681.4-3.311.822-4.289-1.2-.009-.017-.05-.018-.131-.045a2.933,2.933,0,0,0-.3.235.357.357,0,0,0-.041.185c.061.793.764,4.812,8.607,11.126a.367.367,0,0,1-.321.642l-7.745-2.047a.366.366,0,0,0-.37.6c2.073,2.3,8.054,8.452,15.544,11.743a.367.367,0,0,1-.075.692l-3.425.749a.366.366,0,0,0-.155.642c1.962,1.59,8.456,6.744,13.478,9.424a.366.366,0,0,1-.219.686l-7.47-.88a.366.366,0,0,0-.3.624,80.152,80.152,0,0,0,9.158,7.842.366.366,0,0,1-.237.667L929,504.68a.367.367,0,0,0-.276.638c2,1.768,7.412,6.229,12.212,7.183a.368.368,0,0,1,.1.692l-3.8,1.856a.366.366,0,0,0,.029.672c1.916.715,7.064,2.4,12,1.927a5.9,5.9,0,0,1,2.884.489A1.314,1.314,0,0,1,952.889,518.364Z" fill="#306187" opacity="0.3" style="mix-blend-mode:multiply;isolation:isolate"/></g><g transform="translate(-957 20)"><path d="M994.223,472.49c-5.55,3.86-12.289,5.8-20.387-4.574s-15.414-7.752-21.231-19.322,2.243-19.8-5.059-27.137c-3.605-3.622-9.051-11.024-10.6-18.275-2.595-12.123,14.12-27,24.205-7.785,3.455,6.585,2.012,13.364,8.284,20.5,4.412,5.02,8.957,4.728,14.9,15.568,5.374,9.8.865,14.787,8.858,22.009S1000.771,467.935,994.223,472.49Z" fill="#306187"/><path d="M942.623,390.56a38.416,38.416,0,0,1,14.15,17.753c2.858,7.351,3.383,15.435,6.128,22.829,4.307,11.6,13.617,20.475,21.857,29.71,2.711,3.038,5.428,6.349,6.2,10.348" fill="none" stroke="#73c2b3" stroke-linecap="round" stroke-linejoin="round" stroke-width="1.326"/><path d="M974.489,449.613Q964,447.39,953.4,445.807" fill="none" stroke="#73c2b3" stroke-linecap="round" stroke-linejoin="round" stroke-width="1.326"/><path d="M977.6,453.027a134.963,134.963,0,0,0-17.718-2.186" fill="none" stroke="#73c2b3" stroke-linecap="round" stroke-linejoin="round" stroke-width="1.326"/><path d="M982.767,458.761a41.79,41.79,0,0,0-10.946-.879" fill="none" stroke="#73c2b3" stroke-linecap="round" stroke-linejoin="round" stroke-width="1.326"/><path d="M969.369,443.216a130.225,130.225,0,0,1,7.318-17.392" fill="none" stroke="#73c2b3" stroke-linecap="round" stroke-linejoin="round" stroke-width="1.326"/><path d="M971.7,445.2q4.579-8.234,9.16-16.468" fill="none" stroke="#73c2b3" stroke-linecap="round" stroke-linejoin="round" stroke-width="1.326"/><path d="M954.4,426.006l7.181,1.316" fill="none" stroke="#73c2b3" stroke-linecap="round" stroke-linejoin="round" stroke-width="1.326"/><path d="M950.671,420.974q4.944,1.244,9.78,2.873" fill="none" stroke="#73c2b3" stroke-linecap="round" stroke-linejoin="round" stroke-width="1.326"/><path d="M960.364,420.633a82.115,82.115,0,0,0,5.042-8.719" fill="none" stroke="#73c2b3" stroke-linecap="round" stroke-linejoin="round" stroke-width="1.326"/><path d="M986.711,462.374a73.17,73.17,0,0,0,3.186-9.58" fill="none" stroke="#73c2b3" stroke-linecap="round" stroke-linejoin="round" stroke-width="1.326"/><path d="M957.048,410.662a44.777,44.777,0,0,0-15.209-4.022" fill="none" stroke="#73c2b3" stroke-linecap="round" stroke-linejoin="round" stroke-width="1.326"/><path d="M955.689,405.771l-7.388-3.34" fill="none" stroke="#73c2b3" stroke-linecap="round" stroke-linejoin="round" stroke-width="1.326"/><path d="M952.279,399.3q.41-5.427,1.318-10.8" fill="none" stroke="#73c2b3" stroke-linecap="round" stroke-linejoin="round" stroke-width="1.326"/><path d="M949.042,395.62a53.91,53.91,0,0,1,1.275-8.106" fill="none" stroke="#73c2b3" stroke-linecap="round" stroke-linejoin="round" stroke-width="1.326"/><path d="M982.294,446.409c-8.045-20.151-23.527-38.314-44.256-39.571a45.161,45.161,0,0,0,9.508,14.619c7.3,7.339-.757,15.566,5.059,27.137s13.133,8.95,21.231,19.322,14.837,8.434,20.387,4.574c4.534-3.154,6.121-7.6,4.019-12.428C991.486,456.418,984.858,453.138,982.294,446.409Z" fill="#306187" opacity="0.3" style="mix-blend-mode:multiply;isolation:isolate"/><path d="M979.335,478.447c6.25-6,10.385-13.978-.606-26.771s-5.852-21.326-18.924-31.553-25.444-2.175-32.824-13.2c-3.643-5.442-11.57-14.154-20.29-17.933-14.579-6.319-37.494,10.932-15.888,28.452,7.4,6,16.285,5.9,23.67,15.581,5.194,6.811,3.681,12.448,15.8,22.655,10.954,9.224,18.364,4.817,25.423,16.683S971.959,485.528,979.335,478.447Z" fill="#73c2b3"/><path d="M965.288,425.516c-6.859,15.568-8.258,33.833-4.2,53.572,5.976,5.272,12.641,4.744,18.25-.641,6.25-6,10.385-13.978-.606-26.771C969.717,441.186,971.543,433.56,965.288,425.516Z" fill="#306187" opacity="0.3" style="mix-blend-mode:multiply;isolation:isolate"/><path d="M889.4,392.939A49.232,49.232,0,0,0,908.137,415.2c8.516,5.445,18.542,8.144,27.141,13.458,13.493,8.339,22.293,22.276,31.819,34.96,3.135,4.174,6.61,8.423,11.441,10.4" fill="none" stroke="#306187" stroke-linecap="round" stroke-linejoin="round" stroke-width="1.326"/><path d="M955.566,447.879q-.15-13.736.536-27.463" fill="none" stroke="#306187" stroke-linecap="round" stroke-linejoin="round" stroke-width="1.326"/><path d="M959.069,452.656a172.99,172.99,0,0,1,1.723-22.815" fill="none" stroke="#306187" stroke-linecap="round" stroke-linejoin="round" stroke-width="1.326"/><path d="M964.972,460.59a53.6,53.6,0,0,1,1.658-13.978" fill="none" stroke="#306187" stroke-linecap="round" stroke-linejoin="round" stroke-width="1.326"/><path d="M948.819,439.832a166.938,166.938,0,0,0-23.7,4.808" fill="none" stroke="#306187" stroke-linecap="round" stroke-linejoin="round" stroke-width="1.326"/><path d="M950.722,443.261l-23,7.356" fill="none" stroke="#306187" stroke-linecap="round" stroke-linejoin="round" stroke-width="1.326"/><path d="M930.968,416.681q-.08,4.678-.157,9.356" fill="none" stroke="#306187" stroke-linecap="round" stroke-linejoin="round" stroke-width="1.326"/><path d="M925.586,410.725q.315,6.526,1.142,13.015" fill="none" stroke="#306187" stroke-linecap="round" stroke-linejoin="round" stroke-width="1.326"/><path d="M922.712,422.82a105.4,105.4,0,0,1-12.228,4.136" fill="none" stroke="#306187" stroke-linecap="round" stroke-linejoin="round" stroke-width="1.326"/><path d="M968.518,466.457a93.992,93.992,0,0,1-12.842,1.587" fill="none" stroke="#306187" stroke-linecap="round" stroke-linejoin="round" stroke-width="1.326"/><path d="M911.019,416.137a57.4,57.4,0,0,1-1.218-20.126" fill="none" stroke="#306187" stroke-linecap="round" stroke-linejoin="round" stroke-width="1.326"/><path d="M905.216,413.2l-2.334-10.126" fill="none" stroke="#306187" stroke-linecap="round" stroke-linejoin="round" stroke-width="1.326"/><path d="M897.943,407.278q-6.924-.854-13.9-1.069" fill="none" stroke="#306187" stroke-linecap="round" stroke-linejoin="round" stroke-width="1.326"/><path d="M894.137,402.282a69.22,69.22,0,0,0-10.508-.443" fill="none" stroke="#306187" stroke-linecap="round" stroke-linejoin="round" stroke-width="1.326"/></g><g transform="translate(-60 10)"><g transform="translate(0.388)"><path d="M13.27,0H125.826A13.271,13.271,0,0,1,139.1,13.271V238.035a13.27,13.27,0,0,1-13.27,13.27H13.27A13.27,13.27,0,0,1,0,238.035V13.27A13.27,13.27,0,0,1,13.27,0Z" transform="translate(60.664 319)" fill="#7acaf3"/><rect width="108.693" height="197.319" transform="translate(75.866 335.722)" stroke-width="2" stroke="#25a9e0" stroke-linecap="round" stroke-linejoin="round" fill="#fff"/><line x2="35.724" transform="translate(112.351 551.731)" fill="none" stroke="#25a9e0" stroke-miterlimit="10" stroke-width="2"/><rect width="73.18" height="23.051" rx="11.525" transform="translate(93.623 470.895)" fill="#009de1"/></g><g transform="translate(100.052 435.027)"><line x2="25.777" fill="none" stroke="#0195c8" stroke-miterlimit="10" stroke-width="2"/><line x2="7.742" transform="translate(29.648)" fill="none" stroke="#0195c8" stroke-miterlimit="10" stroke-width="2"/><line x2="14.78" transform="translate(45.484)" fill="none" stroke="#0195c8" stroke-miterlimit="10" stroke-width="2"/><line x2="22.428" transform="translate(0.886 8.235)" fill="none" stroke="#0195c8" stroke-miterlimit="10" stroke-width="2"/><line x2="19.003" transform="translate(29.648 8.159)" fill="none" stroke="#0195c8" stroke-miterlimit="10" stroke-width="2"/><line x2="3.777" transform="translate(0.886 15.836)" fill="none" stroke="#0195c8" stroke-miterlimit="10" stroke-width="2"/><line x2="2.244" transform="translate(10.645 15.836)" fill="none" stroke="#0195c8" stroke-miterlimit="10" stroke-width="2"/><line x2="2.463" transform="translate(23.314 15.836)" fill="none" stroke="#0195c8" stroke-miterlimit="10" stroke-width="2"/><line x2="3.167" transform="translate(15.924 15.836)" fill="none" stroke="#0195c8" stroke-miterlimit="10" stroke-width="2"/><line x2="29.209" transform="translate(31.056 15.836)" fill="none" stroke="#0195c8" stroke-miterlimit="10" stroke-width="2"/><line x2="9.759" transform="translate(0.886 24.282)" fill="none" stroke="#0195c8" stroke-miterlimit="10" stroke-width="2"/><line x2="13.549" transform="translate(17.507 24.282)" fill="none" stroke="#0195c8" stroke-miterlimit="10" stroke-width="2"/><line x2="22.874" transform="translate(37.39 24.282)" fill="none" stroke="#0195c8" stroke-miterlimit="10" stroke-width="2"/></g><g transform="translate(101.052 359.111)"><path d="M58.329,46.074H1a1,1,0,0,1-1-1V1A1,1,0,0,1,1,0H58.329a1,1,0,0,1,1,1V45.073A1,1,0,0,1,58.329,46.074ZM3.489,3.291V42.782H55.839V3.291Z" transform="translate(0 0)" fill="#0195c8"/><path d="M6.544,12.341A6.373,6.373,0,0,1,0,6.171,6.373,6.373,0,0,1,6.544,0a6.373,6.373,0,0,1,6.543,6.171A6.372,6.372,0,0,1,6.544,12.341Zm0-9.05a2.974,2.974,0,0,0-3.054,2.88A2.974,2.974,0,0,0,6.544,9.05,2.974,2.974,0,0,0,9.6,6.171,2.974,2.974,0,0,0,6.544,3.291Z" transform="translate(9.597 7.405)" fill="#0195c8"/><path d="M701.549,5502.024a1.82,1.82,0,0,1-2.468-.008,1.581,1.581,0,0,1,.01-2.328l14.352-13.416,8.089,6.633a1.582,1.582,0,0,1,.172,2.322,1.822,1.822,0,0,1-2.462.162l-5.644-4.629Z" transform="translate(-688.982 -5463.012)" fill="#0195c8"/><path d="M716.554,5500.246a1.82,1.82,0,0,1-2.468,0,1.582,1.582,0,0,1,0-2.328l22.967-21.658,12.573,10.4a1.581,1.581,0,0,1,.161,2.322,1.821,1.821,0,0,1-2.463.15l-10.115-8.369Z" transform="translate(-690.895 -5461.235)" fill="#0195c8"/></g></g></g></g></g></svg>