<svg xmlns="http://www.w3.org/2000/svg" xmlns:xlink="http://www.w3.org/1999/xlink" viewBox="0 0 910.669 768">
  <defs>
    <style>
      .cls-1 {
        fill: #009ee2;
      }

      .cls-2 {
        fill: #00c3ef;
      }

      .cls-3 {
        fill: #7acbf4;
      }

      .cls-4 {
        fill: #3faee6;
        opacity: 0.8;
      }

      .cls-5 {
        fill: #2a4f9a;
      }

      .cls-6 {
        fill: #68d3f6;
      }

      .cls-11, .cls-12, .cls-24, .cls-7 {
        fill: #fff;
      }

      .cls-8 {
        fill: #212226;
        opacity: 0.2;
      }

      .cls-9 {
        fill: none;
        stroke: #42444d;
        stroke-miterlimit: 10;
        stroke-width: 0.5px;
      }

      .cls-10 {
        fill: #ffe7db;
      }

      .cls-11 {
        opacity: 0.42;
      }

      .cls-12 {
        opacity: 0.62;
      }

      .cls-13 {
        opacity: 0.54;
        fill: url(#linear-gradient);
      }

      .cls-14, .cls-25 {
        fill: #1d94ef;
      }

      .cls-14 {
        opacity: 0.72;
      }

      .cls-15 {
        fill: #eca97b;
      }

      .cls-16 {
        fill: #703f19;
      }

      .cls-17 {
        fill: #1c1c1a;
        opacity: 0.5;
      }

      .cls-18 {
        fill: #422817;
      }

      .cls-19 {
        fill: #eba97b;
      }

      .cls-20 {
        fill: #2b2f7a;
      }

      .cls-21 {
        opacity: 0.6;
      }

      .cls-22 {
        fill: #1c1b19;
      }

      .cls-23 {
        fill: #2661a4;
      }

      .cls-24 {
        font-size: 10px;
        font-family: Montserrat-Light, Montserrat;
        font-weight: 300;
      }

      .cls-25 {
        opacity: 0.56;
      }
    </style>
    <linearGradient id="linear-gradient" y1="0.5" x2="1.002" y2="0.5" gradientUnits="objectBoundingBox">
      <stop offset="0" stop-color="#ffe7db"/>
      <stop offset="0.326" stop-color="#ffe4d9"/>
      <stop offset="0.557" stop-color="#ffdbd1"/>
      <stop offset="0.759" stop-color="#ffcbc5"/>
      <stop offset="0.943" stop-color="#ffb5b4"/>
      <stop offset="1" stop-color="#ffadad"/>
    </linearGradient>
  </defs>
  <g id="ilustración" transform="translate(-455.333)">
    <path id="Path_2" data-name="Path 2" class="cls-1" d="M476.151,816.6l345.283-768h307v768Z" transform="translate(237.566 -48.602)"/>
    <path id="Path_3" data-name="Path 3" class="cls-2" d="M556,517.756c40.971,7.666,71.368-50.751,98.462-49.561s31.19,28.812,55.376,23.922,36.081-54.055,64.892-52.2,22.6,37.931,39.385,41.235c16.917,3.3,38.327-7.137,48.9,21.675C863.015,502.822,695.7,592.825,556,517.756Z" transform="translate(287.985 109.872)"/>
    <path id="Path_4" data-name="Path 4" class="cls-3" d="M330.294,667.843s113.264-63.4,180.593-114.55,170.876-81.148,299.5-54.98,208.333,13.216,294.08-15.331,136.5-19.249,136.5-19.249v204.11Z" transform="translate(125.038 100.157)"/>
    <path id="Path_5" data-name="Path 5" class="cls-4" d="M468.568,641.889s31.909-2.344,93.629-48.337,152.384-68.328,259.436-32.909c107.184,35.42,176.041,28.283,251.507,6.08s87.937-12.849,87.937-12.849v88.015Z" transform="translate(204.923 126.111)"/>
    <g id="Group_1" data-name="Group 1" transform="translate(808.558 488.906)">
      <path id="Path_6" data-name="Path 6" class="cls-5" d="M578.48,406.7,546.628,533.841a4.269,4.269,0,0,0,3.04,5.154,4.318,4.318,0,0,0,5.286-2.776l40.839-124.63Z" transform="translate(-546.512 -406.7)"/>
      <path id="Path_7" data-name="Path 7" class="cls-5" d="M823.013,406.7l31.851,127.141a4.269,4.269,0,0,1-3.04,5.154,4.318,4.318,0,0,1-5.286-2.776L805.7,411.59Z" transform="translate(-463.149 -406.7)"/>
    </g>
    <rect id="Rectangle_1" data-name="Rectangle 1" class="cls-6" width="398.208" height="271.595" transform="translate(805.37 236.871)"/>
    <rect id="Rectangle_2" data-name="Rectangle 2" class="cls-7" width="378.383" height="248.996" transform="translate(815.283 248.105)"/>
    <rect id="Rectangle_3" data-name="Rectangle 3" class="cls-8" width="248.599" height="22.468" transform="translate(925.507 466.439)"/>
    <rect id="Rectangle_4" data-name="Rectangle 4" class="cls-9" width="248.599" height="97.14" transform="translate(925.507 326.874)"/>
    <rect id="Rectangle_5" data-name="Rectangle 5" class="cls-10" width="238.158" height="88.285" transform="translate(930.661 331.368)"/>
    <path id="Path_8" data-name="Path 8" class="cls-11" d="M781.361,298.2A72.169,72.169,0,0,0,709.2,370.361v1.982H853.258v-1.982A71.692,71.692,0,0,0,781.361,298.2Z" transform="translate(314.372 47.309)"/>
    <path id="Path_9" data-name="Path 9" class="cls-11" d="M700.486,315A50.482,50.482,0,0,0,650,365.486v1.322H750.973v-1.322A50.482,50.482,0,0,0,700.486,315Z" transform="translate(295.331 52.713)"/>
    <line id="Line_1" data-name="Line 1" class="cls-9" x2="248.599" transform="translate(925.507 310.354)"/>
    <rect id="Rectangle_6" data-name="Rectangle 6" class="cls-2" width="94.893" height="248.996" transform="translate(815.283 248.105)"/>
    <circle id="Ellipse_1" data-name="Ellipse 1" class="cls-7" cx="32.644" cy="32.644" r="32.644" transform="matrix(0.925, -0.38, 0.38, 0.925, 820.161, 309.121)"/>
    <g id="Group_2" data-name="Group 2" transform="translate(829.292 378.814)">
      <path id="Path_10" data-name="Path 10" class="cls-12" d="M623.656,334.237H567.619a5.443,5.443,0,0,1-5.419-5.419h0a5.443,5.443,0,0,1,5.419-5.419h56.037a5.443,5.443,0,0,1,5.419,5.419h0A5.624,5.624,0,0,1,623.656,334.237Z" transform="translate(-562.2 -323.4)"/>
      <path id="Path_11" data-name="Path 11" class="cls-12" d="M623.656,352.737H567.619a5.443,5.443,0,0,1-5.419-5.419h0a5.443,5.443,0,0,1,5.419-5.419h56.037a5.443,5.443,0,0,1,5.419,5.419h0A5.53,5.53,0,0,1,623.656,352.737Z" transform="translate(-562.2 -317.45)"/>
      <path id="Path_12" data-name="Path 12" class="cls-12" d="M623.656,371.237H567.619a5.443,5.443,0,0,1-5.419-5.419h0a5.443,5.443,0,0,1,5.419-5.419h56.037a5.443,5.443,0,0,1,5.419,5.419h0A5.53,5.53,0,0,1,623.656,371.237Z" transform="translate(-562.2 -311.5)"/>
      <path id="Path_13" data-name="Path 13" class="cls-12" d="M623.656,389.737H567.619a5.443,5.443,0,0,1-5.419-5.419h0a5.443,5.443,0,0,1,5.419-5.419h56.037a5.443,5.443,0,0,1,5.419,5.419h0A5.53,5.53,0,0,1,623.656,389.737Z" transform="translate(-562.2 -305.549)"/>
    </g>
    <rect id="Rectangle_7" data-name="Rectangle 7" class="cls-5" width="378.383" height="28.019" transform="translate(815.283 248.105)"/>
    <rect id="Rectangle_8" data-name="Rectangle 8" class="cls-8" width="378.383" height="3.172" transform="translate(815.283 276.124)"/>
    <circle id="Ellipse_2" data-name="Ellipse 2" class="cls-7" cx="4.361" cy="4.361" r="4.361" transform="translate(825.724 257.753)"/>
    <circle id="Ellipse_3" data-name="Ellipse 3" class="cls-7" cx="4.361" cy="4.361" r="4.361" transform="translate(841.451 257.753)"/>
    <circle id="Ellipse_4" data-name="Ellipse 4" class="cls-7" cx="4.361" cy="4.361" r="4.361" transform="translate(857.178 257.753)"/>
    <path id="Path_14" data-name="Path 14" class="cls-7" d="M838.6,242.495h-92.25a5.923,5.923,0,0,1-5.947-5.947h0a5.923,5.923,0,0,1,5.947-5.947H838.6a5.923,5.923,0,0,1,5.947,5.947h0A6.008,6.008,0,0,1,838.6,242.495Z" transform="translate(324.407 25.567)"/>
    <g id="Group_3" data-name="Group 3" transform="translate(925.507 288.943)">
      <rect id="Rectangle_9" data-name="Rectangle 9" class="cls-8" width="34.891" height="6.476"/>
      <rect id="Rectangle_10" data-name="Rectangle 10" class="cls-8" width="34.891" height="6.476" transform="translate(71.236)"/>
      <rect id="Rectangle_11" data-name="Rectangle 11" class="cls-8" width="34.891" height="6.476" transform="translate(142.472)"/>
      <rect id="Rectangle_12" data-name="Rectangle 12" class="cls-8" width="34.891" height="6.476" transform="translate(213.576)"/>
    </g>
    <rect id="Rectangle_13" data-name="Rectangle 13" class="cls-8" width="82.47" height="11.763" transform="translate(925.507 431.812)"/>
    <rect id="Rectangle_14" data-name="Rectangle 14" class="cls-8" width="128.066" height="11.763" transform="translate(925.507 446.482)"/>
    <circle id="Ellipse_5" data-name="Ellipse 5" class="cls-13" cx="31.587" cy="31.587" r="31.587" transform="translate(942.952 148.189)"/>
    <path id="Path_15" data-name="Path 15" class="cls-3" d="M744.4,202.557H941.984s-18.635-4.361-36.741-20.089C894.405,173.084,882.907,160,869.823,160c-12.952,0-16.653,16.52-30.926,17.974-8.987.925-19.3-5.551-30.662-5.154-15.2.661-25.64,8.855-35.023,13.613C764.225,191.058,744.4,202.557,744.4,202.557Z" transform="translate(325.693 2.86)"/>
    <g id="Group_24" data-name="Group 24" transform="translate(992.117 276.913)">
      <ellipse id="Ellipse_6" data-name="Ellipse 6" class="cls-14" cx="56.566" cy="6.872" rx="56.566" ry="6.872" transform="translate(144.058 336.227)"/>
      <path id="Path_17" data-name="Path 17" class="cls-15" d="M867.389,503.634a2.834,2.834,0,0,1-3.04,2.511H850.34c-1.718,0-3.04-1.057-3.04-2.511v-8.723a2.833,2.833,0,0,1,3.04-2.511h14.009c1.718,0,3.04,1.057,3.04,2.511Z" transform="translate(-633.328 -167.143)"/>
      <path id="Path_18" data-name="Path 18" class="cls-15" d="M868.146,503.54a2.606,2.606,0,0,1-.925,3.568h0c-1.057.4-2.511-.4-3.172-1.85l-3.172-7.665a2.606,2.606,0,0,1,.925-3.568h0c1.057-.4,2.511.4,3.172,1.85Z" transform="translate(-629.063 -166.653)"/>
      <path id="Path_19" data-name="Path 19" class="cls-15" d="M844.144,507.554a2.954,2.954,0,0,1-3.436-2.115h0c-.264-1.454,1.057-2.775,2.643-3.04l8.591-1.19a2.954,2.954,0,0,1,3.436,2.115h0c.264,1.454-1.057,2.775-2.643,3.04Z" transform="translate(-635.459 -164.322)"/>
      <path id="Path_20" data-name="Path 20" class="cls-15" d="M849.66,509.589c-1.85.661-3.7,0-4.229-1.454h0c-.529-1.454.661-3.04,2.379-3.7l9.384-3.172c1.85-.661,3.7,0,4.229,1.454h0c.529,1.454-.661,3.04-2.379,3.7Z" transform="translate(-633.97 -164.375)"/>
      <path id="Path_21" data-name="Path 21" class="cls-15" d="M856.29,509.027a2.814,2.814,0,0,1-3.833-.793h0c-.661-1.19.132-2.775,1.586-3.568l7.8-3.965a2.814,2.814,0,0,1,3.833.793h0c.661,1.189-.132,2.775-1.586,3.568Z" transform="translate(-631.745 -164.606)"/>
      <path id="Path_22" data-name="Path 22" class="cls-15" d="M834.489,503.734a2.834,2.834,0,0,1-3.04,2.511H817.44c-1.718,0-3.04-1.057-3.04-2.511v-8.723a2.833,2.833,0,0,1,3.04-2.511h14.009c1.718,0,3.04,1.057,3.04,2.511Z" transform="translate(-643.909 -167.111)"/>
      <path id="Path_23" data-name="Path 23" class="cls-15" d="M835.247,503.641a2.606,2.606,0,0,1-.925,3.568h0c-1.057.4-2.511-.4-3.172-1.85l-3.172-7.665a2.606,2.606,0,0,1,.925-3.568h0c1.057-.4,2.511.4,3.172,1.85Z" transform="translate(-639.645 -166.621)"/>
      <path id="Path_24" data-name="Path 24" class="cls-15" d="M811.245,507.554a2.954,2.954,0,0,1-3.436-2.115h0c-.264-1.454,1.057-2.775,2.643-3.04l8.591-1.19a2.954,2.954,0,0,1,3.436,2.115h0c.264,1.454-1.057,2.775-2.643,3.04Z" transform="translate(-646.04 -164.322)"/>
      <path id="Path_25" data-name="Path 25" class="cls-15" d="M816.76,509.589c-1.85.661-3.7,0-4.229-1.454h0c-.529-1.454.661-3.04,2.379-3.7l9.384-3.172c1.85-.661,3.7,0,4.229,1.454h0c.529,1.454-.661,3.04-2.379,3.7Z" transform="translate(-644.551 -164.375)"/>
      <path id="Path_26" data-name="Path 26" class="cls-15" d="M823.39,509.127a2.814,2.814,0,0,1-3.833-.793h0c-.661-1.189.132-2.775,1.586-3.568l7.8-3.965a2.814,2.814,0,0,1,3.833.793h0c.661,1.19-.132,2.775-1.586,3.568Z" transform="translate(-642.326 -164.574)"/>
      <path id="Path_27" data-name="Path 27" class="cls-16" d="M845.4,529.317l1.189-6.476.264-50.883.264-61.852c0-12.423,5.683-14.406,12.556-14.406,9.251,0,12.291,19.428,12.291,33.173l-.264,43.085-.132,53.79.661,3.568-5.287-3.568-1.85,4.361-3.833-3.436-3.3,3.436-1.982-4.361-4.1,4.361-2.643-3.833Z" transform="translate(-633.939 -198.245)"/>
      <path id="Path_28" data-name="Path 28" class="cls-16" d="M813.1,529.217l1.19-6.476.264-50.883.264-61.852c0-12.423,5.683-14.406,12.556-14.406,9.251,0,12.291,19.428,12.291,33.173l-.264,43.085-.132,53.79.661,3.568-5.287-3.568-1.85,4.361-3.833-3.436-3.3,3.436-1.982-4.361-4.1,4.361-2.643-3.833Z" transform="translate(-644.328 -198.277)"/>
      <path id="Path_29" data-name="Path 29" class="cls-17" d="M805.18,374.727c8.326-17.578,23.922-34.759,42.16-34.627h10.441c26.7.132,48.24,25.64,48.107,56.83l-.132,30.265c-.132,31.323-21.939,56.566-48.636,56.434H846.679a42.961,42.961,0,0,1-27.094-9.912c.132-2.643.793-8.458-2.908-8.855v-1.85a2.66,2.66,0,0,0-2.247-2.511c-.264-1.718-.661-3.3-1.057-5.022a2.592,2.592,0,0,0-1.586-1.718,14.633,14.633,0,0,1,.264-2.511c.529-3.172-4.626-4.494-4.89-1.322-.264,3.04-5.154-63.835-3.04-68.328l-5.022-6.608S804.519,374.463,805.18,374.727Z" transform="translate(-648.83 -216.128)"/>
      <path id="Path_30" data-name="Path 30" class="cls-16" d="M801.1,425.6c-.132,31.323,21.014,56.7,47.314,56.83h10.309c26.3.132,47.711-25.111,47.843-56.434l.132-30.265c.132-31.323-21.014-56.7-47.314-56.83H849.075c-26.3-.132-47.711,25.111-47.843,56.434Z" transform="translate(-648.187 -216.513)"/>
      <path id="Path_31" data-name="Path 31" class="cls-15" d="M808.4,425.684c-.132,21.014,13.348,38.2,30.133,38.327h6.608c16.653.132,30.265-16.917,30.4-37.931l.132-20.353c.132-21.014-13.348-38.2-30.133-38.327H838.93c-16.652-.132-30.265,16.917-30.4,37.931Z" transform="translate(-645.839 -207.347)"/>
      <g id="Group_5" data-name="Group 5" transform="translate(140.093)">
        <path id="Path_32" data-name="Path 32" class="cls-17" d="M892.569,367l-13.084,15.727-16.785-14.8s5.947-3.7,8.062-2.247l12.027,12.688Z" transform="translate(-768.468 -208.008)"/>
        <path id="Path_33" data-name="Path 33" class="cls-17" d="M883.98,371.693l-38.724,10.97L817.106,359.27l-11.763,3.7-2.643,1.057q.595-1.388,1.586-3.965c.529-1.057.925-1.982,1.057-2.247,1.718-3.172,15.2-1.057,18.106-.529l26.565,23.789Z" transform="translate(-787.765 -210.979)"/>
        <path id="Path_34" data-name="Path 34" class="cls-16" d="M888.276,247.49s-4.1,5.287-.132,6.212c16.52,3.7,57.623,15.86,57.359,44.407-.4,39.517-13.481,96.611-13.481,96.611l-4.361-1.586,3.436,10.309-8.194-3.568.132,9.78-7.8-5.154-10.705,12.423L893.3,405.161l-39.517,11.1-25.375-22.732-17.181,5.154-5.287-13.348-7.4,1.454,3.436-10.177-8.458-1.057,6.608-10.573L791.4,368.42s9.384-65.553,20.221-95.686c8.458-23.657,37.006-24.715,54.319-23,1.586.132,5.154-3.568,6.608-3.436,0,0,1.454,5.419,2.643,4.758C879.553,248.944,888.276,247.49,888.276,247.49Z" transform="translate(-791.4 -246.297)"/>
        <g id="Group_4" data-name="Group 4" transform="translate(22.568 31.309)">
          <path id="Path_35" data-name="Path 35" class="cls-15" d="M810.358,291.679s5.419-23.789,24.715-21.543c21.278,2.379,28.151,14.142,30.265,20.882,4.494-5.947,15.067-15.331,35.684-8.987,20.485,6.212,17.71,29.6,17.71,29.6s-3.568,27.226-18.767,29.6l-2.775,14.406s-8.591,27.226-45.068,22.6h0c-.661-.132-1.19-.132-1.85-.264s-1.189-.132-1.85-.264h0c-36.081-7-35.288-35.288-35.288-35.288l2.511-14.67C803.618,320.226,810.358,291.679,810.358,291.679Z" transform="translate(-808.476 -269.987)"/>
        </g>
        <path id="Path_36" data-name="Path 36" class="cls-16" d="M854.414,310.924a4.563,4.563,0,1,1,3.7,5.287A4.787,4.787,0,0,1,854.414,310.924Z" transform="translate(-771.151 -226.732)"/>
        <path id="Path_37" data-name="Path 37" class="cls-16" d="M826.015,304.683a4.356,4.356,0,1,1,3.568,5.022A4.349,4.349,0,0,1,826.015,304.683Z" transform="translate(-780.286 -228.686)"/>
        <path id="Path_38" data-name="Path 38" class="cls-18" d="M878.934,335.913s-37.667,19.3-56.434-13.613c15.067,15.331,56.434,13.613,56.434,13.613Z" transform="translate(-781.397 -221.852)"/>
        <path id="Path_39" data-name="Path 39" class="cls-18" d="M836.5,319.808s2.115,3.833,4.494,1.454l.661-3.172L836.5,316.9Z" transform="translate(-776.894 -223.589)"/>
        <path id="Path_40" data-name="Path 40" class="cls-18" d="M847.226,322.233s-3.568,2.643-4.626-.661l.661-3.172,5.154,1.057Z" transform="translate(-774.932 -223.107)"/>
      </g>
      <path id="Path_41" data-name="Path 41" class="cls-17" d="M891.065,412.947a52.094,52.094,0,0,1-8.194-4.89,54.159,54.159,0,0,1-7.93-7.4c-4.89-5.551-14.67-18.5-26.565-36.345a114.072,114.072,0,0,1-7.665-9.251c-1.19-1.718-2.379-3.3-3.436-4.89a357.1,357.1,0,0,1-17.445-45.332c-1.586-4.89-2.908-9.78-4.229-14.538l1.454,1.454c28.151,29.472,29.208,55.641,49.693,86.7a163.87,163.87,0,0,0,22.468,26.829C890.008,407.925,890.536,410.436,891.065,412.947Z" transform="translate(-643.523 -232.145)"/>
      <g id="Group_13" data-name="Group 13" transform="translate(50.327 36.959)">
        <g id="Group_6" data-name="Group 6" transform="translate(12.308 3.383)">
          <path id="Path_42" data-name="Path 42" class="cls-19" d="M744.3,277.19a2.91,2.91,0,0,0-3.965,1.189L733.2,290.406a3.075,3.075,0,0,0,.925,4.1l8.458,5.022a2.91,2.91,0,0,0,3.965-1.189l7.137-12.027a3.075,3.075,0,0,0-.925-4.1Z" transform="translate(-732.792 -276.821)"/>
        </g>
        <g id="Group_7" data-name="Group 7" transform="translate(100.074 61.771)">
          <path id="Path_43" data-name="Path 43" class="cls-20" d="M799.2,321" transform="translate(-799.2 -321)"/>
        </g>
        <g id="Group_8" data-name="Group 8" transform="translate(26.359)">
          <path id="Path_44" data-name="Path 44" class="cls-19" d="M747.622,275.9a2.343,2.343,0,0,0-3.04-1.454h0a2.745,2.745,0,0,0-.925,3.436l3.04,7a2.343,2.343,0,0,0,3.04,1.454h0a2.745,2.745,0,0,0,.925-3.436Z" transform="translate(-743.424 -274.262)"/>
        </g>
        <g id="Group_9" data-name="Group 9" transform="translate(3.191 13.258)">
          <path id="Path_45" data-name="Path 45" class="cls-19" d="M729.47,284.3a3.126,3.126,0,0,0-3.568,2.908h0a3.353,3.353,0,0,0,3.3,3.3l9.78.661a3.126,3.126,0,0,0,3.568-2.908h0a3.353,3.353,0,0,0-3.3-3.3Z" transform="translate(-725.894 -284.293)"/>
        </g>
        <g id="Group_10" data-name="Group 10" transform="translate(0 6.978)">
          <path id="Path_46" data-name="Path 46" class="cls-19" d="M728.132,279.619c-2.379-.4-4.361.793-4.626,2.379h0c-.264,1.718,1.454,3.3,3.833,3.7l11.895,1.85c2.247.4,4.361-.793,4.626-2.379h0c.264-1.718-1.454-3.3-3.833-3.7Z" transform="translate(-723.48 -279.542)"/>
        </g>
        <g id="Group_11" data-name="Group 11" transform="translate(5.438 1.335)">
          <path id="Path_47" data-name="Path 47" class="cls-19" d="M731.831,275.309c-2.115-.264-3.965.925-4.229,2.643h0c-.132,1.718,1.454,3.3,3.568,3.568l10.97,1.322c2.115.264,4.1-.925,4.229-2.643h0c.132-1.718-1.454-3.3-3.568-3.568Z" transform="translate(-727.594 -275.272)"/>
        </g>
        <g id="Group_12" data-name="Group 12" class="cls-21" transform="translate(13.111 9.963)">
          <path id="Path_48" data-name="Path 48" class="cls-22" d="M735.647,295.148,733.4,291.58l5.815,1.057.132-5.154,4.493,1.454,1.85-4.1,3.172,2.247,1.718-5.286,3.965,2.247-.132,1.718-5.154,3.965-7.533,4.626Z" transform="translate(-733.4 -281.8)"/>
        </g>
        <path id="Path_49" data-name="Path 49" class="cls-16" d="M786.426,337.559l-28.812-53.526-1.322-3.833-2.643,6.079-3.965-3.568L748.231,288l-4.758-1.85.661,5.287-5.947-2.379-.264,5.154L732.9,293.02l4.494,5.947,27.358,50.486a10.285,10.285,0,0,0,2.643,2.908c3.833,2.775,8.591,1.454,9.384,1.189C781.932,351.965,786.03,345.621,786.426,337.559Z" transform="translate(-720.45 -272.352)"/>
        <path id="Path_50" data-name="Path 50" class="cls-16" d="M757.7,337.181l48.24,50.486c9.78,10.177,15.2,7.93,20.221,3.172,6.74-6.476-6.079-24.45-16.785-35.684L775.674,320" transform="translate(-712.473 -259.551)"/>
      </g>
      <g id="Group_15" data-name="Group 15" transform="translate(0 25.511)">
        <path id="Path_51" data-name="Path 51" class="cls-8" d="M866.067,287.753H695.577A10.181,10.181,0,0,1,685.4,277.577h0A10.181,10.181,0,0,1,695.577,267.4H866.067a10.181,10.181,0,0,1,10.177,10.177h0A10.266,10.266,0,0,1,866.067,287.753Z" transform="translate(-685.4 -265.021)"/>
        <path id="Path_52" data-name="Path 52" class="cls-23" d="M867.167,285.953H696.677A10.181,10.181,0,0,1,686.5,275.777h0A10.181,10.181,0,0,1,696.677,265.6H867.167a10.181,10.181,0,0,1,10.177,10.177h0A10.266,10.266,0,0,1,867.167,285.953Z" transform="translate(-685.046 -265.6)"/>
        <g id="Group_14" data-name="Group 14" transform="translate(25.206 2.533)">
          <text id="www.votresiteweb.com" class="cls-24" transform="translate(-3 11)"><tspan x="0" y="0">www.votresiteweb.com</tspan></text>
        </g>
      </g>
      <g id="Group_23" data-name="Group 23" transform="translate(168.482 35.017)">
        <g id="Group_16" data-name="Group 16" transform="translate(3.858 4.617)">
          <path id="Path_53" data-name="Path 53" class="cls-19" d="M829.017,276.833a2.981,2.981,0,0,0-4.1.661l-8.458,11.1a2.908,2.908,0,0,0,.4,4.1l7.8,5.947a2.981,2.981,0,0,0,4.1-.661l8.458-11.1a2.908,2.908,0,0,0-.4-4.1Z" transform="translate(-815.799 -276.286)"/>
        </g>
        <g id="Group_17" data-name="Group 17" transform="translate(84.743 72.039)">
          <path id="Path_54" data-name="Path 54" class="cls-20" d="M877,327.3" transform="translate(-877 -327.3)"/>
        </g>
        <g id="Group_18" data-name="Group 18" transform="translate(17.635 0.433)">
          <path id="Path_55" data-name="Path 55" class="cls-19" d="M830.422,274.812c-.529-1.322-1.85-2.115-3.04-1.454h0a2.745,2.745,0,0,0-.925,3.436l2.908,7c.529,1.322,1.85,2.115,3.04,1.454h0a2.745,2.745,0,0,0,.925-3.436Z" transform="translate(-826.224 -273.12)"/>
        </g>
        <g id="Group_19" data-name="Group 19" transform="translate(0 10.382)">
          <path id="Path_56" data-name="Path 56" class="cls-19" d="M817.8,281.245a3.142,3.142,0,0,0-4.494.793h0a3.368,3.368,0,0,0,1.322,4.494l8.194,5.287a3.142,3.142,0,0,0,4.494-.793h0a3.368,3.368,0,0,0-1.322-4.494Z" transform="translate(-812.88 -280.648)"/>
        </g>
        <g id="Group_20" data-name="Group 20" transform="translate(1.91 5.44)">
          <path id="Path_57" data-name="Path 57" class="cls-19" d="M819.843,277.822c-1.983-1.322-4.229-1.189-5.154.264h0c-.925,1.454,0,3.7,1.85,4.89l10.044,6.608c1.983,1.322,4.229,1.189,5.154-.264h0c.925-1.454,0-3.7-1.85-4.89Z" transform="translate(-814.325 -276.908)"/>
        </g>
        <g id="Group_21" data-name="Group 21" transform="translate(4.365)">
          <path id="Path_58" data-name="Path 58" class="cls-19" d="M821.492,273.6c-1.718-1.19-3.965-1.057-4.89.4h0c-.925,1.454-.264,3.568,1.454,4.758l9.119,6.212c1.718,1.189,3.965,1.057,4.89-.4h0c.925-1.454.264-3.568-1.454-4.758Z" transform="translate(-816.183 -272.792)"/>
        </g>
        <g id="Group_22" data-name="Group 22" class="cls-21" transform="translate(3.331 12.433)">
          <path id="Path_59" data-name="Path 59" class="cls-22" d="M817.118,293.566l-1.718-3.7,5.551,1.586.925-5.022,4.229,1.982,2.247-3.965,3.04,2.775,2.247-5.022,3.7,2.643-.264,1.718-5.683,3.172-8.062,3.833Z" transform="translate(-815.4 -282.2)"/>
        </g>
        <path id="Path_60" data-name="Path 60" class="cls-16" d="M862.84,341.531,840.5,284.965,839.579,281l-3.436,5.683-3.568-3.965-2.115,5.022-4.494-2.379v5.287l-5.551-3.04-.925,5.022-4.89-1.85,3.833,6.344,21.146,53.394a8.829,8.829,0,0,0,2.247,3.172c3.568,3.172,8.326,2.511,9.119,2.379C856.628,355.408,861.518,349.461,862.84,341.531Z" transform="translate(-812.327 -270.153)"/>
        <path id="Path_61" data-name="Path 61" class="cls-16" d="M834.4,337.934l41.9,55.905c8.458,11.234,14.274,9.648,19.692,5.551,7.4-5.551-3.172-24.979-12.556-37.4L854.224,323" transform="translate(-805.958 -256.644)"/>
      </g>
    </g>
    <g id="Group_43" data-name="Group 43" transform="translate(665.144 289.869)">
      <ellipse id="Ellipse_7" data-name="Ellipse 7" class="cls-25" cx="56.566" cy="6.872" rx="56.566" ry="6.872" transform="translate(36.875 338.602)"/>
      <g id="Group_32" data-name="Group 32" transform="translate(63.417 41.845)">
        <g id="Group_25" data-name="Group 25" transform="translate(81.953 3.383)">
          <path id="Path_62" data-name="Path 62" class="cls-19" d="M557.783,290.69a2.91,2.91,0,0,1,3.965,1.189l7.137,12.027a3.075,3.075,0,0,1-.925,4.1l-8.458,5.022a2.91,2.91,0,0,1-3.965-1.189L548.4,299.809a3.075,3.075,0,0,1,.925-4.1Z" transform="translate(-547.992 -290.321)"/>
        </g>
        <g id="Group_26" data-name="Group 26" transform="translate(15.485 61.903)">
          <path id="Path_63" data-name="Path 63" class="cls-20" d="M497.7,334.6" transform="translate(-497.7 -334.6)"/>
        </g>
        <g id="Group_27" data-name="Group 27" transform="translate(81.73)">
          <path id="Path_64" data-name="Path 64" class="cls-19" d="M551.1,289.4a2.343,2.343,0,0,1,3.04-1.454h0a2.745,2.745,0,0,1,.925,3.436l-3.04,7a2.343,2.343,0,0,1-3.04,1.454h0a2.745,2.745,0,0,1-.925-3.436Z" transform="translate(-547.824 -287.762)"/>
        </g>
        <g id="Group_28" data-name="Group 28" transform="translate(95.701 13.258)">
          <path id="Path_65" data-name="Path 65" class="cls-19" d="M571.486,297.8a3.126,3.126,0,0,1,3.568,2.908h0a3.353,3.353,0,0,1-3.3,3.3l-9.78.661a3.126,3.126,0,0,1-3.568-2.908h0a3.353,3.353,0,0,1,3.3-3.3Z" transform="translate(-558.394 -297.793)"/>
        </g>
        <g id="Group_29" data-name="Group 29" transform="translate(95.153 7.11)">
          <path id="Path_66" data-name="Path 66" class="cls-19" d="M573.734,293.219c2.379-.4,4.361.793,4.626,2.379h0c.264,1.718-1.454,3.3-3.833,3.7l-11.895,1.85c-2.247.4-4.361-.793-4.626-2.379h0c-.264-1.718,1.454-3.3,3.833-3.7Z" transform="translate(-557.98 -293.142)"/>
        </g>
        <g id="Group_30" data-name="Group 30" transform="translate(91.339 1.467)">
          <path id="Path_67" data-name="Path 67" class="cls-19" d="M569.64,288.909c2.114-.264,3.965.925,4.229,2.643h0c.132,1.718-1.454,3.3-3.568,3.568l-10.97,1.322c-2.115.264-4.1-.925-4.229-2.643h0c-.132-1.718,1.454-3.3,3.568-3.568Z" transform="translate(-555.094 -288.872)"/>
        </g>
        <g id="Group_31" data-name="Group 31" class="cls-21" transform="translate(81.303 10.095)">
          <path id="Path_68" data-name="Path 68" class="cls-22" d="M566.4,308.616l2.115-3.436-5.683.925-.132-5.022-4.494,1.454-1.85-4.229-3.3,2.379-1.586-5.286-3.965,2.247v1.718l5.287,3.833,7.533,4.758Z" transform="translate(-547.5 -295.4)"/>
        </g>
        <path id="Path_69" data-name="Path 69" class="cls-16" d="M523.5,351.159l28.812-53.526,1.322-3.833,2.643,6.079,3.965-3.568L561.7,301.6l4.758-1.85-.661,5.287,5.947-2.379.264,5.154,5.022-1.189-4.494,5.947-27.226,50.354a10.284,10.284,0,0,1-2.643,2.908c-3.833,2.775-8.591,1.454-9.384,1.189C527.994,365.565,523.764,359.089,523.5,351.159Z" transform="translate(-473.916 -285.82)"/>
        <path id="Path_70" data-name="Path 70" class="cls-16" d="M556.316,350.681l-48.24,50.486c-9.78,10.177-15.2,7.93-20.221,3.172-6.74-6.476,6.08-24.45,16.785-35.684L538.21,333.5" transform="translate(-485.983 -273.051)"/>
        <path id="Path_71" data-name="Path 71" class="cls-17" d="M543.3,301.59c2.643,12.688,5.154,25.375,7.8,38.063,1.454-2.643,2.775-5.154,4.229-7.8-3.172-11.763-6.212-23.525-9.384-35.155C545.018,298.286,544.093,300,543.3,301.59Z" transform="translate(-467.548 -284.887)"/>
      </g>
      <path id="Path_72" data-name="Path 72" class="cls-15" d="M483.5,515.734a2.834,2.834,0,0,0,3.04,2.511h14.009c1.718,0,3.04-1.057,3.04-2.511v-8.723a2.834,2.834,0,0,0-3.04-2.511H486.54c-1.718,0-3.04,1.057-3.04,2.511Z" transform="translate(-423.365 -176.207)"/>
      <path id="Path_73" data-name="Path 73" class="cls-15" d="M479.877,515.64a2.606,2.606,0,0,0,.925,3.568h0c1.057.4,2.511-.4,3.172-1.85l3.172-7.665a2.606,2.606,0,0,0-.925-3.568h0c-1.057-.4-2.511.4-3.172,1.85Z" transform="translate(-424.632 -175.717)"/>
      <path id="Path_74" data-name="Path 74" class="cls-15" d="M505.442,519.654a2.954,2.954,0,0,0,3.436-2.115h0c.264-1.454-1.057-2.775-2.643-3.04l-8.591-1.19a2.954,2.954,0,0,0-3.436,2.115h0c-.264,1.454,1.057,2.775,2.643,3.04Z" transform="translate(-419.931 -173.386)"/>
      <path id="Path_75" data-name="Path 75" class="cls-15" d="M500.293,521.689c1.85.661,3.7,0,4.229-1.454h0c.529-1.454-.661-3.04-2.379-3.7l-9.384-3.172c-1.85-.661-3.7,0-4.229,1.454h0c-.529,1.454.661,3.04,2.379,3.7Z" transform="translate(-421.787 -173.439)"/>
      <path id="Path_76" data-name="Path 76" class="cls-15" d="M493.041,521.127a2.814,2.814,0,0,0,3.833-.793h0c.661-1.189-.132-2.775-1.586-3.568l-7.8-3.965a2.814,2.814,0,0,0-3.833.793h0c-.661,1.19.132,2.776,1.586,3.568Z" transform="translate(-423.39 -173.67)"/>
      <path id="Path_77" data-name="Path 77" class="cls-15" d="M516.4,515.834a2.834,2.834,0,0,0,3.04,2.511h14.009c1.718,0,3.04-1.057,3.04-2.511v-8.723a2.833,2.833,0,0,0-3.04-2.511H519.44c-1.718,0-3.04,1.057-3.04,2.511Z" transform="translate(-412.783 -176.174)"/>
      <path id="Path_78" data-name="Path 78" class="cls-15" d="M512.777,515.74a2.606,2.606,0,0,0,.925,3.568h0c1.057.4,2.511-.4,3.172-1.85l3.172-7.666a2.606,2.606,0,0,0-.925-3.568h0c-1.057-.4-2.511.4-3.172,1.85Z" transform="translate(-414.05 -175.685)"/>
      <path id="Path_79" data-name="Path 79" class="cls-15" d="M538.342,519.754a2.954,2.954,0,0,0,3.436-2.115h0c.264-1.454-1.057-2.775-2.643-3.04l-8.591-1.19a2.954,2.954,0,0,0-3.436,2.115h0c-.264,1.454,1.057,2.775,2.643,3.04Z" transform="translate(-409.35 -173.354)"/>
      <path id="Path_80" data-name="Path 80" class="cls-15" d="M533.193,521.789c1.85.661,3.7,0,4.229-1.454h0c.529-1.454-.661-3.04-2.379-3.7l-9.384-3.172c-1.85-.661-3.7,0-4.229,1.454h0c-.529,1.454.661,3.04,2.379,3.7Z" transform="translate(-411.205 -173.406)"/>
      <path id="Path_81" data-name="Path 81" class="cls-15" d="M525.941,521.227a2.814,2.814,0,0,0,3.833-.793h0c.661-1.19-.132-2.775-1.586-3.568l-7.8-3.965a2.814,2.814,0,0,0-3.833.793h0c-.661,1.19.132,2.775,1.586,3.568Z" transform="translate(-412.808 -173.637)"/>
      <path id="Path_82" data-name="Path 82" class="cls-16" d="M507.129,541.517l-1.189-6.476-.264-50.883-.264-61.852c0-12.423-5.683-14.406-12.556-14.406-9.251,0-12.291,19.428-12.291,33.173l.264,43.085.132,53.79-.661,3.568,5.286-3.568,1.85,4.361,3.833-3.436,3.3,3.436,1.983-4.361,4.1,4.361,2.643-3.833Z" transform="translate(-424.394 -207.276)"/>
      <path id="Path_83" data-name="Path 83" class="cls-16" d="M539.529,541.317l-1.19-6.476-.264-50.883-.264-61.852c0-12.423-5.683-14.406-12.556-14.406-9.251,0-12.291,19.428-12.291,33.173l.264,43.085.132,53.791-.661,3.568,5.286-3.568,1.85,4.361,3.833-3.436,3.3,3.436,1.982-4.361,4.1,4.361,2.643-3.833Z" transform="translate(-413.973 -207.341)"/>
      <path id="Path_84" data-name="Path 84" class="cls-17" d="M566.809,386.827c-8.326-17.578-23.922-34.759-42.16-34.627H514.208c-26.7.132-48.24,25.64-48.107,56.83l.132,30.265c.132,31.323,21.939,56.566,48.636,56.434h10.441a42.961,42.961,0,0,0,27.094-9.912c-.132-2.643-.793-8.458,2.908-8.855v-1.85a2.66,2.66,0,0,1,2.247-2.511c.264-1.718.661-3.3,1.057-5.022a2.592,2.592,0,0,1,1.586-1.718,14.628,14.628,0,0,0-.264-2.511c-.529-3.172,4.626-4.494,4.89-1.322.264,3.04,5.154-63.835,3.04-68.328l5.022-6.608C573.02,387.091,567.6,386.695,566.809,386.827Z" transform="translate(-428.961 -225.191)"/>
      <path id="Path_85" data-name="Path 85" class="cls-16" d="M570.7,437.7c.132,31.323-21.014,56.7-47.314,56.83H513.075c-26.3.132-47.711-25.111-47.843-56.434L465.1,407.83c-.132-31.323,21.014-56.7,47.314-56.83h10.309c26.3-.132,47.711,25.111,47.843,56.434Z" transform="translate(-429.283 -225.577)"/>
      <path id="Path_86" data-name="Path 86" class="cls-15" d="M547.663,437.1a66.265,66.265,0,0,1-3.568,17.313,60.089,60.089,0,0,1-5.154,10.837,92.2,92.2,0,0,0,1.982-9.384,110.906,110.906,0,0,0,1.189-21.014c0-10.309-.132-16.917-.529-29.208-.529-15.2-.925-20.353-2.643-27.093-1.057-4.1-2.247-7.4-3.04-9.648h1.85A52.122,52.122,0,0,1,543.7,380a62.106,62.106,0,0,1,3.833,20.089c0,.529,0,4.1.132,11.234v13.216C547.795,432.074,547.795,435.907,547.663,437.1Z" transform="translate(-406.511 -219.82)"/>
      <g id="Group_33" data-name="Group 33" transform="translate(0 3.036)">
        <path id="Path_87" data-name="Path 87" class="cls-17" d="M460.7,379.1l13.084,15.727,16.785-14.8s-5.947-3.7-8.062-2.247L470.48,390.47Z" transform="translate(-430.698 -220.108)"/>
        <path id="Path_88" data-name="Path 88" class="cls-17" d="M481.8,383.793l38.724,10.97,28.151-23.393,11.763,3.7,2.643,1.057q-.595-1.388-1.586-3.965c-.529-1.057-.925-1.982-1.057-2.247-1.718-3.172-15.2-1.057-18.106-.529l-26.565,23.789Z" transform="translate(-423.911 -223.079)"/>
        <path id="Path_89" data-name="Path 89" class="cls-16" d="M495.227,259.59s4.1,5.287.132,6.212c-16.52,3.7-57.623,15.86-57.359,44.407.4,39.517,13.481,96.611,13.481,96.611l4.361-1.586-3.436,10.309,8.194-3.568-.132,9.78,7.8-5.154,10.705,12.423L490.2,417.261l39.517,11.1L555.1,405.631l17.181,5.154,5.286-13.349,7.4,1.454-3.436-10.177,8.458-1.057-6.608-10.573,8.723,3.436s-9.384-65.553-20.221-95.686c-8.458-23.657-37.006-24.714-54.319-23-1.586.132-5.154-3.568-6.608-3.436,0,0-1.454,5.419-2.643,4.758C503.95,261.176,495.227,259.59,495.227,259.59Z" transform="translate(-437.999 -258.397)"/>
      </g>
      <g id="Group_34" data-name="Group 34" transform="translate(138.773)">
        <circle id="Ellipse_8" data-name="Ellipse 8" class="cls-23" cx="31.851" cy="31.851" r="31.851"/>
        <path id="Path_90" data-name="Path 90" class="cls-7" d="M572.729,309.668a31.525,31.525,0,0,0,23.129-10.044,27.741,27.741,0,0,0-46.257,0A31.525,31.525,0,0,0,572.729,309.668Z" transform="translate(-540.877 -246.097)"/>
        <circle id="Ellipse_9" data-name="Ellipse 9" class="cls-7" cx="12.556" cy="12.556" r="12.556" transform="translate(19.296 12.159)"/>
      </g>
      <path id="Path_91" data-name="Path 91" class="cls-17" d="M594.237,309.224c-1.322-4.758-3.04-8.591-5.287-8.723-8.591-.661-17.181,51.544-23.525,50.751-1.322-.132-2.643-2.643-3.568-10.177-3.172,4.89-6.344,9.78-9.648,14.8-6.608,9.912-13.348,19.3-20.089,28.151-7.137,9.516-8.194,15.067-8.987,17.446a70.931,70.931,0,0,0-3.833,17.578c4.626,6.344,8.723,7.665,11.366,7.93,2.775.264,7.93-.4,33.57-33.173,6.476-8.326,7.533-10.044,17.974-23.525,3.3-4.229,3.965-5.022,5.154-6.74,6.212-9.384,8.194-17.181,10.705-25.508A211.371,211.371,0,0,1,608.378,311.6C603.62,310.81,598.994,310.017,594.237,309.224Z" transform="translate(-411.85 -241.821)"/>
      <g id="Group_42" data-name="Group 42" transform="translate(107.737 37.392)">
        <g id="Group_35" data-name="Group 35" transform="translate(66.586 4.749)">
          <path id="Path_92" data-name="Path 92" class="cls-19" d="M578.755,288.533a2.981,2.981,0,0,1,4.1.661l8.458,11.1a2.908,2.908,0,0,1-.4,4.1l-7.8,5.947a2.981,2.981,0,0,1-4.1-.661l-8.458-11.1a2.908,2.908,0,0,1,.4-4.1Z" transform="translate(-569.899 -287.986)"/>
        </g>
        <g id="Group_36" data-name="Group 36" transform="translate(7.775 72.171)">
          <path id="Path_93" data-name="Path 93" class="cls-20" d="M525.4,339" transform="translate(-525.4 -339)"/>
        </g>
        <g id="Group_37" data-name="Group 37" transform="translate(67.544 0.565)">
          <path id="Path_94" data-name="Path 94" class="cls-19" d="M573.764,286.512c.529-1.322,1.85-2.115,3.04-1.454h0a2.745,2.745,0,0,1,.925,3.436l-2.908,7c-.529,1.322-1.85,2.115-3.04,1.454h0a2.745,2.745,0,0,1-.925-3.436Z" transform="translate(-570.624 -284.82)"/>
        </g>
        <g id="Group_38" data-name="Group 38" transform="translate(77.663 10.514)">
          <path id="Path_95" data-name="Path 95" class="cls-19" d="M588.219,292.945a3.142,3.142,0,0,1,4.494.793h0a3.368,3.368,0,0,1-1.322,4.494l-8.194,5.287a3.142,3.142,0,0,1-4.494-.793h0a3.368,3.368,0,0,1,1.322-4.494Z" transform="translate(-578.28 -292.348)"/>
        </g>
        <g id="Group_39" data-name="Group 39" transform="translate(72.833 5.572)">
          <path id="Path_96" data-name="Path 96" class="cls-19" d="M586.883,289.522c1.982-1.322,4.229-1.189,5.154.264h0c.925,1.454,0,3.7-1.85,4.89l-10.044,6.608c-1.982,1.322-4.229,1.189-5.154-.264h0c-.925-1.454,0-3.7,1.85-4.89Z" transform="translate(-574.625 -288.608)"/>
        </g>
        <g id="Group_40" data-name="Group 40" transform="translate(71.72)">
          <path id="Path_97" data-name="Path 97" class="cls-19" d="M584.775,285.2c1.718-1.189,3.965-1.057,4.89.4h0c.925,1.454.264,3.568-1.454,4.758l-9.119,6.212c-1.718,1.189-3.965,1.057-4.89-.4h0c-.925-1.454-.264-3.568,1.454-4.758Z" transform="translate(-573.783 -284.393)"/>
        </g>
        <g id="Group_41" data-name="Group 41" class="cls-21" transform="translate(67.249 12.433)">
          <path id="Path_98" data-name="Path 98" class="cls-22" d="M590.621,305.3l1.586-3.7-5.551,1.586-.793-5.022-4.229,1.982-2.247-3.965-3.04,2.775L574.1,293.8l-3.7,2.775.264,1.718,5.683,3.172,8.062,3.833Z" transform="translate(-570.4 -293.8)"/>
        </g>
        <path id="Path_99" data-name="Path 99" class="cls-16" d="M551.3,353.231l22.336-56.566.925-3.965L578,298.383l3.568-3.965,2.115,5.022,4.493-2.379v5.287l5.551-3.04.925,5.022,4.89-1.85-3.833,6.344-21.146,53.394a8.828,8.828,0,0,1-2.247,3.172c-3.568,3.172-8.326,2.511-9.119,2.379C557.512,367.108,552.622,361.161,551.3,353.231Z" transform="translate(-509.294 -281.721)"/>
        <path id="Path_100" data-name="Path 100" class="cls-16" d="M583.594,349.634,541.7,405.54c-8.458,11.234-14.274,9.648-19.692,5.551-7.4-5.551,3.172-24.979,12.555-37.4L563.769,334.7" transform="translate(-519.517 -268.212)"/>
      </g>
      <path id="Path_101" data-name="Path 101" class="cls-15" d="M560.9,407.5" transform="translate(-398.47 -207.405)"/>
    </g>
  </g>
</svg>
