<svg xmlns="http://www.w3.org/2000/svg" xmlns:xlink="http://www.w3.org/1999/xlink" viewBox="0 0 415.136 387.884">
  <defs>
    <style>
      .cls-1 {
        fill: #009ee2;
      }

      .cls-2 {
        fill: #00c3ef;
      }

      .cls-3 {
        fill: #7acbf4;
      }

      .cls-4 {
        fill: #3faee6;
        opacity: 0.8;
      }

      .cls-5 {
        fill: #2a4f9a;
      }

      .cls-6 {
        fill: #68d3f6;
      }

      .cls-11, .cls-12, .cls-24, .cls-7 {
        fill: #fff;
      }

      .cls-8 {
        fill: #212226;
        opacity: 0.2;
      }

      .cls-9 {
        fill: none;
        stroke: #42444d;
        stroke-miterlimit: 10;
        stroke-width: 0.5px;
      }

      .cls-10 {
        fill: #ffe7db;
      }

      .cls-11 {
        opacity: 0.42;
      }

      .cls-12 {
        opacity: 0.62;
      }

      .cls-13 {
        opacity: 0.54;
        fill: url(#linear-gradient);
      }

      .cls-14, .cls-25 {
        fill: #1d94ef;
      }

      .cls-14 {
        opacity: 0.72;
      }

      .cls-15 {
        fill: #eca97b;
      }

      .cls-16 {
        fill: #703f19;
      }

      .cls-17 {
        fill: #1c1c1a;
        opacity: 0.5;
      }

      .cls-18 {
        fill: #422817;
      }

      .cls-19 {
        fill: #eba97b;
      }

      .cls-20 {
        fill: #2b2f7a;
      }

      .cls-21 {
        opacity: 0.6;
      }

      .cls-22 {
        fill: #1c1b19;
      }

      .cls-23 {
        fill: #2661a4;
      }

      .cls-24 {
        font-size: 4px;
        font-family: Montserrat-Light, Montserrat;
        font-weight: 300;
      }

      .cls-25 {
        opacity: 0.56;
      }
    </style>
    <linearGradient id="linear-gradient" y1="0.5" x2="1.002" y2="0.5" gradientUnits="objectBoundingBox">
      <stop offset="0" stop-color="#ffe7db"/>
      <stop offset="0.326" stop-color="#ffe4d9"/>
      <stop offset="0.557" stop-color="#ffdbd1"/>
      <stop offset="0.759" stop-color="#ffcbc5"/>
      <stop offset="0.943" stop-color="#ffb5b4"/>
      <stop offset="1" stop-color="#ffadad"/>
    </linearGradient>
  </defs>
  <g id="ilustracion-sm" transform="translate(-510.741 -8.265)">
    <path id="Path_2" data-name="Path 2" class="cls-1" d="M476.151,444.751,813.187,56.867V444.751Z" transform="translate(112.689 -48.602)"/>
    <path id="Path_3" data-name="Path 3" class="cls-2" d="M556,480.11c21.17,3.961,36.876-26.223,50.875-25.608s16.116,14.887,28.613,12.36,18.643-27.93,33.53-26.974,11.677,19.6,20.35,21.306c8.741,1.707,19.8-3.688,25.267,11.2C714.635,472.393,628.181,518.9,556,480.11Z" transform="translate(100.15 -156.491)"/>
    <path id="Path_4" data-name="Path 4" class="cls-3" d="M385.7,536.21s3.116-.473,37.9-26.9S511.9,467.38,578.358,480.9,686,487.73,730.309,472.979s70.528-9.946,70.528-9.946V568.5H385.7Z" transform="translate(125.038 -172.348)"/>
    <path id="Path_5" data-name="Path 5" class="cls-4" d="M468.568,594.2s16.487-1.211,48.378-24.976,78.737-35.305,134.051-17c55.382,18.3,90.961,14.614,129.954,3.141s45.437-6.639,45.437-6.639V594.2Z" transform="translate(99.487 -198.046)"/>
    <g id="Group_1" data-name="Group 1" transform="translate(637.845 251.941)">
      <path id="Path_6" data-name="Path 6" class="cls-5" d="M563.03,406.7l-16.458,65.694a2.206,2.206,0,0,0,1.571,2.663,2.231,2.231,0,0,0,2.732-1.434l21.1-64.4Z" transform="translate(-546.512 -406.7)"/>
      <path id="Path_7" data-name="Path 7" class="cls-5" d="M814.646,406.7,831.1,472.394a2.206,2.206,0,0,1-1.571,2.663,2.231,2.231,0,0,1-2.732-1.434l-21.1-64.4Z" transform="translate(-628.703 -406.7)"/>
    </g>
    <rect id="Rectangle_1" data-name="Rectangle 1" class="cls-6" width="205.755" height="140.334" transform="translate(636.198 121.714)"/>
    <rect id="Rectangle_2" data-name="Rectangle 2" class="cls-7" width="195.511" height="128.656" transform="translate(641.319 127.519)"/>
    <rect id="Rectangle_3" data-name="Rectangle 3" class="cls-8" width="128.451" height="11.609" transform="translate(698.272 240.332)"/>
    <rect id="Rectangle_4" data-name="Rectangle 4" class="cls-9" width="128.451" height="50.192" transform="translate(698.272 168.219)"/>
    <rect id="Rectangle_5" data-name="Rectangle 5" class="cls-10" width="123.057" height="45.617" transform="translate(700.935 170.541)"/>
    <path id="Path_8" data-name="Path 8" class="cls-11" d="M746.486,298.2A37.29,37.29,0,0,0,709.2,335.486v1.024h74.435v-1.024A37.044,37.044,0,0,0,746.486,298.2Z" transform="translate(39.742 -120.352)"/>
    <path id="Path_9" data-name="Path 9" class="cls-11" d="M676.086,315A26.084,26.084,0,0,0,650,341.086v.683h52.173v-.683A26.084,26.084,0,0,0,676.086,315Z" transform="translate(58.515 -125.68)"/>
    <line id="Line_1" data-name="Line 1" class="cls-9" x2="128.451" transform="translate(698.272 159.683)"/>
    <rect id="Rectangle_6" data-name="Rectangle 6" class="cls-2" width="49.031" height="128.656" transform="translate(641.319 127.519)"/>
    <circle id="Ellipse_1" data-name="Ellipse 1" class="cls-7" cx="16.867" cy="16.867" r="16.867" transform="matrix(0.925, -0.38, 0.38, 0.925, 643.84, 159.046)"/>
    <g id="Group_2" data-name="Group 2" transform="translate(648.558 195.057)">
      <path id="Path_10" data-name="Path 10" class="cls-12" d="M593.954,329H565a2.812,2.812,0,0,1-2.8-2.8h0a2.812,2.812,0,0,1,2.8-2.8h28.955a2.812,2.812,0,0,1,2.8,2.8h0A2.906,2.906,0,0,1,593.954,329Z" transform="translate(-562.2 -323.4)"/>
      <path id="Path_11" data-name="Path 11" class="cls-12" d="M593.954,347.5H565a2.812,2.812,0,0,1-2.8-2.8h0a2.812,2.812,0,0,1,2.8-2.8h28.955a2.812,2.812,0,0,1,2.8,2.8h0A2.858,2.858,0,0,1,593.954,347.5Z" transform="translate(-562.2 -329.267)"/>
      <path id="Path_12" data-name="Path 12" class="cls-12" d="M593.954,366H565a2.812,2.812,0,0,1-2.8-2.8h0a2.812,2.812,0,0,1,2.8-2.8h28.955a2.812,2.812,0,0,1,2.8,2.8h0A2.858,2.858,0,0,1,593.954,366Z" transform="translate(-562.2 -335.133)"/>
      <path id="Path_13" data-name="Path 13" class="cls-12" d="M593.954,384.5H565a2.812,2.812,0,0,1-2.8-2.8h0a2.812,2.812,0,0,1,2.8-2.8h28.955a2.812,2.812,0,0,1,2.8,2.8h0A2.858,2.858,0,0,1,593.954,384.5Z" transform="translate(-562.2 -341)"/>
    </g>
    <rect id="Rectangle_7" data-name="Rectangle 7" class="cls-5" width="195.511" height="14.477" transform="translate(641.319 127.519)"/>
    <rect id="Rectangle_8" data-name="Rectangle 8" class="cls-8" width="195.511" height="1.639" transform="translate(641.319 141.996)"/>
    <circle id="Ellipse_2" data-name="Ellipse 2" class="cls-7" cx="2.254" cy="2.254" r="2.254" transform="translate(646.714 132.504)"/>
    <circle id="Ellipse_3" data-name="Ellipse 3" class="cls-7" cx="2.254" cy="2.254" r="2.254" transform="translate(654.84 132.504)"/>
    <circle id="Ellipse_4" data-name="Ellipse 4" class="cls-7" cx="2.254" cy="2.254" r="2.254" transform="translate(662.967 132.504)"/>
    <path id="Path_14" data-name="Path 14" class="cls-7" d="M791.139,236.746H743.473a3.06,3.06,0,0,1-3.073-3.073h0a3.06,3.06,0,0,1,3.073-3.073h47.666a3.06,3.06,0,0,1,3.073,3.073h0A3.1,3.1,0,0,1,791.139,236.746Z" transform="translate(29.849 -98.915)"/>
    <g id="Group_3" data-name="Group 3" transform="translate(698.272 148.62)">
      <rect id="Rectangle_9" data-name="Rectangle 9" class="cls-8" width="18.028" height="3.346"/>
      <rect id="Rectangle_10" data-name="Rectangle 10" class="cls-8" width="18.028" height="3.346" transform="translate(36.808)"/>
      <rect id="Rectangle_11" data-name="Rectangle 11" class="cls-8" width="18.028" height="3.346" transform="translate(73.615)"/>
      <rect id="Rectangle_12" data-name="Rectangle 12" class="cls-8" width="18.028" height="3.346" transform="translate(110.355)"/>
    </g>
    <rect id="Rectangle_13" data-name="Rectangle 13" class="cls-8" width="42.612" height="6.078" transform="translate(698.272 222.441)"/>
    <rect id="Rectangle_14" data-name="Rectangle 14" class="cls-8" width="66.172" height="6.078" transform="translate(698.272 230.021)"/>
    <circle id="Ellipse_5" data-name="Ellipse 5" class="cls-13" cx="16.321" cy="16.321" r="16.321" transform="translate(868.495 38.025)"/>
    <path id="Path_15" data-name="Path 15" class="cls-3" d="M744.4,181.989H846.492a49.367,49.367,0,0,1-18.984-10.38c-5.6-4.848-11.541-11.609-18.3-11.609-6.692,0-8.6,8.536-15.98,9.287-4.644.478-9.97-2.868-15.843-2.663-7.853.341-13.248,4.575-18.1,7.034C754.643,176.048,744.4,181.989,744.4,181.989Z" transform="translate(28.58 -76.527)"/>
    <g id="Group_24" data-name="Group 24" transform="translate(732.69 142.404)">
      <ellipse id="Ellipse_6" data-name="Ellipse 6" class="cls-14" cx="29.228" cy="3.551" rx="29.228" ry="3.551" transform="translate(74.435 173.729)"/>
      <path id="Path_17" data-name="Path 17" class="cls-15" d="M857.68,498.2a1.464,1.464,0,0,1-1.571,1.3h-7.239a1.419,1.419,0,0,1-1.571-1.3V493.7a1.464,1.464,0,0,1,1.571-1.3h7.239a1.418,1.418,0,0,1,1.571,1.3Z" transform="translate(-736.74 -324.339)"/>
      <path id="Path_18" data-name="Path 18" class="cls-15" d="M864.479,498.892a1.346,1.346,0,0,1-.478,1.844h0a1.452,1.452,0,0,1-1.639-.956l-1.639-3.961a1.347,1.347,0,0,1,.478-1.844h0a1.452,1.452,0,0,1,1.639.956Z" transform="translate(-740.945 -324.822)"/>
      <path id="Path_19" data-name="Path 19" class="cls-15" d="M842.467,504.468a1.526,1.526,0,0,1-1.775-1.093h0a1.492,1.492,0,0,1,1.366-1.571l4.439-.615a1.526,1.526,0,0,1,1.776,1.093h0a1.492,1.492,0,0,1-1.366,1.571Z" transform="translate(-734.639 -327.12)"/>
      <path id="Path_20" data-name="Path 20" class="cls-15" d="M847.555,505.441a1.644,1.644,0,0,1-2.185-.751h0c-.273-.751.341-1.571,1.229-1.912l4.849-1.639a1.644,1.644,0,0,1,2.185.751h0c.273.751-.341,1.571-1.229,1.912Z" transform="translate(-736.107 -327.068)"/>
      <path id="Path_21" data-name="Path 21" class="cls-15" d="M854.324,504.8a1.454,1.454,0,0,1-1.98-.41h0a1.449,1.449,0,0,1,.819-1.844l4.029-2.049a1.454,1.454,0,0,1,1.98.41h0a1.449,1.449,0,0,1-.819,1.844Z" transform="translate(-738.301 -326.84)"/>
      <path id="Path_22" data-name="Path 22" class="cls-15" d="M824.78,498.3a1.464,1.464,0,0,1-1.571,1.3h-7.239a1.419,1.419,0,0,1-1.571-1.3V493.8a1.464,1.464,0,0,1,1.571-1.3h7.239a1.419,1.419,0,0,1,1.571,1.3Z" transform="translate(-726.307 -324.371)"/>
      <path id="Path_23" data-name="Path 23" class="cls-15" d="M831.58,498.992a1.347,1.347,0,0,1-.478,1.844h0a1.452,1.452,0,0,1-1.639-.956l-1.639-3.961a1.346,1.346,0,0,1,.478-1.844h0a1.452,1.452,0,0,1,1.639.956Z" transform="translate(-730.512 -324.854)"/>
      <path id="Path_24" data-name="Path 24" class="cls-15" d="M809.567,504.468a1.526,1.526,0,0,1-1.776-1.093h0a1.492,1.492,0,0,1,1.366-1.571l4.439-.615a1.527,1.527,0,0,1,1.776,1.093h0a1.492,1.492,0,0,1-1.366,1.571Z" transform="translate(-724.206 -327.12)"/>
      <path id="Path_25" data-name="Path 25" class="cls-15" d="M814.655,505.441a1.644,1.644,0,0,1-2.185-.751h0c-.273-.751.342-1.571,1.229-1.912l4.849-1.639a1.644,1.644,0,0,1,2.185.751h0c.273.751-.341,1.571-1.229,1.912Z" transform="translate(-725.674 -327.068)"/>
      <path id="Path_26" data-name="Path 26" class="cls-15" d="M821.424,504.9a1.454,1.454,0,0,1-1.98-.41h0a1.449,1.449,0,0,1,.819-1.844l4.029-2.049a1.454,1.454,0,0,1,1.98.41h0a1.449,1.449,0,0,1-.819,1.844Z" transform="translate(-727.868 -326.872)"/>
      <path id="Path_27" data-name="Path 27" class="cls-16" d="M845.4,464.74l.615-3.346.137-26.291.137-31.959c0-6.419,2.936-7.443,6.487-7.443,4.78,0,6.351,10.038,6.351,17.141L858.99,435.1l-.068,27.794.341,1.844-2.732-1.844-.956,2.254-1.98-1.776-1.707,1.776-1.024-2.254-2.117,2.254-1.366-1.98Z" transform="translate(-736.138 -293.675)"/>
      <path id="Path_28" data-name="Path 28" class="cls-16" d="M813.1,464.64l.615-3.346L813.851,435l.137-31.959c0-6.419,2.936-7.444,6.488-7.444,4.78,0,6.351,10.038,6.351,17.141L826.69,435l-.068,27.794.341,1.844-2.732-1.844-.956,2.253-1.98-1.775-1.707,1.775-1.024-2.253-2.117,2.253-1.366-1.98Z" transform="translate(-725.895 -293.643)"/>
      <path id="Path_29" data-name="Path 29" class="cls-17" d="M802.241,357.991c4.3-9.082,12.36-17.96,21.784-17.892h5.395c13.794.068,24.925,13.248,24.857,29.364l-.068,15.638c-.068,16.185-11.336,29.228-25.13,29.159h-5.395a22.2,22.2,0,0,1-14-5.122c.068-1.366.41-4.37-1.5-4.575v-.956a1.374,1.374,0,0,0-1.161-1.3c-.137-.888-.342-1.707-.546-2.6a1.339,1.339,0,0,0-.819-.888,7.555,7.555,0,0,1,.137-1.3c.273-1.639-2.39-2.322-2.527-.683-.137,1.571-2.663-32.984-1.571-35.305l-2.595-3.414A21.673,21.673,0,0,1,802.241,357.991Z" transform="translate(-721.456 -276.043)"/>
      <path id="Path_30" data-name="Path 30" class="cls-16" d="M801.1,383.7c-.068,16.184,10.858,29.3,24.448,29.364h5.326c13.59.068,24.652-12.975,24.721-29.159l.068-15.638c.068-16.184-10.858-29.3-24.447-29.364h-5.327c-13.59-.068-24.652,12.975-24.721,29.159Z" transform="translate(-722.09 -275.663)"/>
      <path id="Path_31" data-name="Path 31" class="cls-15" d="M808.4,397.515c-.068,10.858,6.9,19.736,15.57,19.8h3.414c8.6.068,15.638-8.741,15.706-19.6l.068-10.517c.068-10.858-6.9-19.736-15.57-19.8h-3.414c-8.6-.068-15.638,8.741-15.706,19.6Z" transform="translate(-724.404 -284.7)"/>
      <g id="Group_5" data-name="Group 5" transform="translate(72.386)">
        <path id="Path_32" data-name="Path 32" class="cls-17" d="M878.133,366.2l-6.761,8.126L862.7,366.68s3.073-1.912,4.166-1.161l6.214,6.556Z" transform="translate(-814.01 -284.048)"/>
        <path id="Path_33" data-name="Path 33" class="cls-17" d="M844.7,364.16l-20.009,5.668-14.546-12.087-6.078,1.912-1.366.546q.307-.717.819-2.049c.273-.546.478-1.024.546-1.161.888-1.639,7.853-.546,9.356-.273l13.726,12.292Z" transform="translate(-794.983 -281.119)"/>
        <path id="Path_34" data-name="Path 34" class="cls-16" d="M841.456,246.914s-2.117,2.732-.068,3.21c8.536,1.912,29.774,8.195,29.637,22.945-.2,20.418-6.965,49.919-6.965,49.919l-2.254-.819,1.776,5.327-4.234-1.844.068,5.053-4.029-2.663-5.531,6.419-5.8-6.078-20.418,5.736-13.112-11.746-8.878,2.663-2.731-6.9-3.824.751,1.776-5.258-4.371-.546,3.414-5.463L791.4,309.4s4.849-33.871,10.448-49.441c4.371-12.224,19.121-12.77,28.067-11.882.819.068,2.663-1.844,3.414-1.776,0,0,.751,2.8,1.366,2.458A33.132,33.132,0,0,1,841.456,246.914Z" transform="translate(-791.4 -246.297)"/>
        <g id="Group_4" data-name="Group 4" transform="translate(11.661 16.177)">
          <path id="Path_35" data-name="Path 35" class="cls-15" d="M809.448,281.2s2.8-12.292,12.77-11.131c10.994,1.229,14.545,7.307,15.638,10.79,2.322-3.073,7.785-7.921,18.438-4.644,10.585,3.21,9.151,15.3,9.151,15.3s-1.844,14.068-9.7,15.3l-1.434,7.444s-4.439,14.068-23.286,11.677h0c-.341-.068-.615-.068-.956-.137s-.615-.068-.956-.137h0c-18.643-3.619-18.233-18.233-18.233-18.233l1.3-7.58C805.966,295.946,809.448,281.2,809.448,281.2Z" transform="translate(-808.476 -269.987)"/>
        </g>
        <path id="Path_36" data-name="Path 36" class="cls-16" d="M854.386,309.089a2.358,2.358,0,1,1,1.912,2.732A2.473,2.473,0,0,1,854.386,309.089Z" transform="translate(-811.364 -265.587)"/>
        <path id="Path_37" data-name="Path 37" class="cls-16" d="M825.986,302.929a2.251,2.251,0,1,1,1.844,2.595A2.247,2.247,0,0,1,825.986,302.929Z" transform="translate(-802.358 -263.661)"/>
        <path id="Path_38" data-name="Path 38" class="cls-18" d="M851.659,329.334S832.2,339.3,822.5,322.3c7.785,7.922,29.159,7.034,29.159,7.034Z" transform="translate(-801.262 -270.399)"/>
        <path id="Path_39" data-name="Path 39" class="cls-18" d="M836.5,318.4s1.093,1.98,2.322.751l.341-1.639L836.5,316.9Z" transform="translate(-805.702 -268.686)"/>
        <path id="Path_40" data-name="Path 40" class="cls-18" d="M844.99,320.38s-1.844,1.366-2.39-.341l.342-1.639,2.663.546Z" transform="translate(-807.636 -269.162)"/>
      </g>
      <path id="Path_41" data-name="Path 41" class="cls-17" d="M854.593,353.672a26.912,26.912,0,0,1-4.234-2.527,27.986,27.986,0,0,1-4.1-3.824,206.659,206.659,0,0,1-13.726-18.779,58.933,58.933,0,0,1-3.961-4.78c-.615-.888-1.229-1.707-1.776-2.527a184.507,184.507,0,0,1-9.014-23.423c-.82-2.527-1.5-5.053-2.185-7.512l.751.751c14.546,15.228,15.092,28.75,25.677,44.8a84.674,84.674,0,0,0,11.609,13.863C854.047,351.077,854.32,352.375,854.593,353.672Z" transform="translate(-726.688 -260.251)"/>
      <g id="Group_13" data-name="Group 13" transform="translate(26.004 19.097)">
        <g id="Group_6" data-name="Group 6" transform="translate(6.359 1.748)">
          <path id="Path_42" data-name="Path 42" class="cls-19" d="M738.739,277.012a1.5,1.5,0,0,0-2.049.615L733,283.841a1.589,1.589,0,0,0,.478,2.117l4.37,2.595a1.5,1.5,0,0,0,2.049-.615l3.688-6.214a1.589,1.589,0,0,0-.478-2.117Z" transform="translate(-732.792 -276.821)"/>
        </g>
        <g id="Group_7" data-name="Group 7" transform="translate(51.709 31.917)">
          <path id="Path_43" data-name="Path 43" class="cls-20" d="M799.2,321" transform="translate(-799.2 -321)"/>
        </g>
        <g id="Group_8" data-name="Group 8" transform="translate(13.619)">
          <path id="Path_44" data-name="Path 44" class="cls-19" d="M745.593,275.107a1.211,1.211,0,0,0-1.571-.751h0a1.418,1.418,0,0,0-.478,1.776l1.571,3.619a1.211,1.211,0,0,0,1.571.751h0a1.418,1.418,0,0,0,.478-1.776Z" transform="translate(-743.424 -274.262)"/>
        </g>
        <g id="Group_9" data-name="Group 9" transform="translate(1.649 6.85)">
          <path id="Path_45" data-name="Path 45" class="cls-19" d="M727.742,284.3a1.615,1.615,0,0,0-1.844,1.5h0a1.733,1.733,0,0,0,1.707,1.707l5.053.341a1.615,1.615,0,0,0,1.844-1.5h0a1.733,1.733,0,0,0-1.707-1.707Z" transform="translate(-725.894 -284.293)"/>
        </g>
        <g id="Group_10" data-name="Group 10" transform="translate(0 3.606)">
          <path id="Path_46" data-name="Path 46" class="cls-19" d="M725.884,279.582a1.947,1.947,0,0,0-2.39,1.229h0c-.137.888.751,1.707,1.98,1.912l6.146.956a1.985,1.985,0,0,0,2.39-1.229h0c.137-.888-.751-1.707-1.98-1.912Z" transform="translate(-723.48 -279.542)"/>
        </g>
        <g id="Group_11" data-name="Group 11" transform="translate(2.81 0.69)">
          <path id="Path_47" data-name="Path 47" class="cls-19" d="M729.783,275.291a1.86,1.86,0,0,0-2.185,1.366h0a1.921,1.921,0,0,0,1.844,1.844l5.668.683a1.823,1.823,0,0,0,2.185-1.366h0a1.921,1.921,0,0,0-1.844-1.844Z" transform="translate(-727.594 -275.272)"/>
        </g>
        <g id="Group_12" data-name="Group 12" class="cls-21" transform="translate(6.774 5.148)">
          <path id="Path_48" data-name="Path 48" class="cls-22" d="M734.561,288.7l-1.161-1.844,3,.546.068-2.663,2.322.751.956-2.117,1.639,1.161.888-2.732,2.049,1.161-.068.888-2.663,2.049-3.892,2.39Z" transform="translate(-733.4 -281.8)"/>
        </g>
        <path id="Path_49" data-name="Path 49" class="cls-16" d="M760.557,309.837,745.67,282.18l-.683-1.98-1.366,3.141-2.049-1.844-.751,2.732-2.458-.956L738.7,286l-3.073-1.229-.137,2.663-2.6-.615,2.322,3.073,14.136,26.086a5.315,5.315,0,0,0,1.366,1.5,5.72,5.72,0,0,0,4.848.615C758.235,317.281,760.352,314,760.557,309.837Z" transform="translate(-726.467 -276.145)"/>
        <path id="Path_50" data-name="Path 50" class="cls-16" d="M757.7,328.878l24.925,26.086c5.053,5.258,7.853,4.1,10.448,1.639,3.483-3.346-3.141-12.633-8.673-18.438L766.987,320" transform="translate(-734.331 -288.766)"/>
      </g>
      <g id="Group_15" data-name="Group 15" transform="translate(0 13.182)">
        <path id="Path_51" data-name="Path 51" class="cls-8" d="M778.751,277.916H690.658a5.26,5.26,0,0,1-5.258-5.258h0a5.26,5.26,0,0,1,5.258-5.258h88.093a5.26,5.26,0,0,1,5.258,5.258h0A5.3,5.3,0,0,1,778.751,277.916Z" transform="translate(-685.4 -266.171)"/>
        <path id="Path_52" data-name="Path 52" class="cls-23" d="M779.851,276.117H691.758a5.26,5.26,0,0,1-5.258-5.258h0a5.26,5.26,0,0,1,5.258-5.258h88.093a5.26,5.26,0,0,1,5.258,5.258h0A5.3,5.3,0,0,1,779.851,276.117Z" transform="translate(-685.749 -265.6)"/>
        <g id="Group_14" data-name="Group 14" transform="translate(11.474 1.825)">
          <text id="www.votresiteweb.com" class="cls-24" transform="translate(0 4)"><tspan x="0" y="0">www.votresiteweb.com</tspan></text>
        </g>
      </g>
      <g id="Group_23" data-name="Group 23" transform="translate(87.055 18.093)">
        <g id="Group_16" data-name="Group 16" transform="translate(1.993 2.385)">
          <path id="Path_53" data-name="Path 53" class="cls-19" d="M822.629,276.569a1.54,1.54,0,0,0-2.117.341l-4.37,5.736a1.5,1.5,0,0,0,.2,2.117l4.029,3.073a1.54,1.54,0,0,0,2.117-.341l4.37-5.736a1.5,1.5,0,0,0-.2-2.117Z" transform="translate(-815.799 -276.286)"/>
        </g>
        <g id="Group_17" data-name="Group 17" transform="translate(43.787 37.223)">
          <path id="Path_54" data-name="Path 54" class="cls-20" d="M877,327.3" transform="translate(-877 -327.3)"/>
        </g>
        <g id="Group_18" data-name="Group 18" transform="translate(9.112 0.224)">
          <path id="Path_55" data-name="Path 55" class="cls-19" d="M828.393,273.994a1.142,1.142,0,0,0-1.571-.751h0a1.418,1.418,0,0,0-.478,1.776l1.5,3.619a1.142,1.142,0,0,0,1.571.751h0a1.418,1.418,0,0,0,.478-1.776Z" transform="translate(-826.224 -273.12)"/>
        </g>
        <g id="Group_19" data-name="Group 19" transform="translate(0 5.364)">
          <path id="Path_56" data-name="Path 56" class="cls-19" d="M815.42,280.957a1.624,1.624,0,0,0-2.322.41h0a1.74,1.74,0,0,0,.683,2.322l4.234,2.732a1.623,1.623,0,0,0,2.322-.41h0a1.74,1.74,0,0,0-.683-2.322Z" transform="translate(-812.88 -280.648)"/>
        </g>
        <g id="Group_20" data-name="Group 20" transform="translate(0.987 2.811)">
          <path id="Path_57" data-name="Path 57" class="cls-19" d="M817.176,277.381c-1.024-.683-2.185-.615-2.663.137h0a2,2,0,0,0,.956,2.527l5.19,3.414c1.024.683,2.185.615,2.663-.137h0a2,2,0,0,0-.956-2.527Z" transform="translate(-814.325 -276.908)"/>
        </g>
        <g id="Group_21" data-name="Group 21" transform="translate(2.256)">
          <path id="Path_58" data-name="Path 58" class="cls-19" d="M818.926,273.207a1.789,1.789,0,0,0-2.527.2h0a1.881,1.881,0,0,0,.751,2.458l4.712,3.21a1.789,1.789,0,0,0,2.527-.2h0a1.881,1.881,0,0,0-.751-2.458Z" transform="translate(-816.183 -272.792)"/>
        </g>
        <g id="Group_22" data-name="Group 22" class="cls-21" transform="translate(1.721 6.424)">
          <path id="Path_59" data-name="Path 59" class="cls-22" d="M816.288,288.073l-.888-1.912,2.868.819.478-2.6,2.185,1.024,1.161-2.049,1.571,1.434,1.161-2.595,1.912,1.366-.137.888-2.936,1.639-4.166,1.98Z" transform="translate(-815.4 -282.2)"/>
        </g>
        <path id="Path_60" data-name="Path 60" class="cls-16" d="M839.525,312.276l-11.541-29.228L827.507,281l-1.776,2.936-1.844-2.049-1.093,2.6-2.322-1.229v2.732l-2.868-1.571-.478,2.595-2.527-.956,1.98,3.278,10.926,27.589a4.561,4.561,0,0,0,1.161,1.639,5.928,5.928,0,0,0,4.712,1.229C836.316,319.447,838.843,316.374,839.525,312.276Z" transform="translate(-813.425 -275.395)"/>
        <path id="Path_61" data-name="Path 61" class="cls-16" d="M834.4,330.717,856.048,359.6c4.371,5.8,7.375,4.985,10.175,2.868,3.824-2.868-1.639-12.907-6.487-19.326L844.643,323" transform="translate(-819.704 -288.714)"/>
      </g>
    </g>
    <g id="Group_43" data-name="Group 43" transform="translate(563.742 149.098)">
      <ellipse id="Ellipse_7" data-name="Ellipse 7" class="cls-25" cx="29.228" cy="3.551" rx="29.228" ry="3.551" transform="translate(19.053 174.956)"/>
      <g id="Group_32" data-name="Group 32" transform="translate(32.768 21.622)">
        <g id="Group_25" data-name="Group 25" transform="translate(42.345 1.748)">
          <path id="Path_62" data-name="Path 62" class="cls-19" d="M553.051,290.512a1.5,1.5,0,0,1,2.049.615l3.688,6.214a1.589,1.589,0,0,1-.478,2.117l-4.371,2.6a1.5,1.5,0,0,1-2.049-.615l-3.688-6.214a1.589,1.589,0,0,1,.478-2.117Z" transform="translate(-547.992 -290.321)"/>
        </g>
        <g id="Group_26" data-name="Group 26" transform="translate(8.001 31.985)">
          <path id="Path_63" data-name="Path 63" class="cls-20" d="M497.7,334.6" transform="translate(-497.7 -334.6)"/>
        </g>
        <g id="Group_27" data-name="Group 27" transform="translate(42.23)">
          <path id="Path_64" data-name="Path 64" class="cls-19" d="M549.515,288.607a1.211,1.211,0,0,1,1.571-.751h0a1.418,1.418,0,0,1,.478,1.776l-1.571,3.619a1.211,1.211,0,0,1-1.571.751h0a1.418,1.418,0,0,1-.478-1.775Z" transform="translate(-547.824 -287.762)"/>
        </g>
        <g id="Group_28" data-name="Group 28" transform="translate(49.449 6.85)">
          <path id="Path_65" data-name="Path 65" class="cls-19" d="M565.159,297.8A1.615,1.615,0,0,1,567,299.3h0a1.733,1.733,0,0,1-1.707,1.707l-5.053.341a1.615,1.615,0,0,1-1.844-1.5h0a1.733,1.733,0,0,1,1.707-1.707Z" transform="translate(-558.394 -297.793)"/>
        </g>
        <g id="Group_29" data-name="Group 29" transform="translate(49.166 3.674)">
          <path id="Path_66" data-name="Path 66" class="cls-19" d="M566.12,293.182a1.947,1.947,0,0,1,2.39,1.229h0c.137.888-.751,1.707-1.98,1.912l-6.146.956a1.985,1.985,0,0,1-2.39-1.229h0c-.137-.888.751-1.707,1.98-1.912Z" transform="translate(-557.98 -293.142)"/>
        </g>
        <g id="Group_30" data-name="Group 30" transform="translate(47.195 0.758)">
          <path id="Path_67" data-name="Path 67" class="cls-19" d="M562.61,288.891a1.86,1.86,0,0,1,2.185,1.366h0a1.921,1.921,0,0,1-1.844,1.844l-5.668.683a1.823,1.823,0,0,1-2.185-1.366h0a1.921,1.921,0,0,1,1.844-1.844Z" transform="translate(-555.094 -288.872)"/>
        </g>
        <g id="Group_31" data-name="Group 31" class="cls-21" transform="translate(42.009 5.216)">
          <path id="Path_68" data-name="Path 68" class="cls-22" d="M557.265,302.229l1.093-1.776-2.936.478-.068-2.6-2.322.751-.956-2.185-1.707,1.229-.82-2.732-2.049,1.161v.888l2.732,1.98,3.892,2.458Z" transform="translate(-547.5 -295.4)"/>
        </g>
        <path id="Path_69" data-name="Path 69" class="cls-16" d="M523.5,323.437l14.887-27.657.683-1.98,1.366,3.141,2.049-1.844.751,2.732,2.458-.956-.341,2.732,3.073-1.229.137,2.663,2.595-.615-2.322,3.073-14.068,26.018a5.313,5.313,0,0,1-1.366,1.5,5.72,5.72,0,0,1-4.849.615C525.822,330.881,523.637,327.535,523.5,323.437Z" transform="translate(-497.88 -289.677)"/>
        <path id="Path_70" data-name="Path 70" class="cls-16" d="M522.324,342.378,497.4,368.464c-5.053,5.258-7.853,4.1-10.448,1.639-3.483-3.346,3.141-12.633,8.673-18.438L512.969,333.5" transform="translate(-485.983 -302.266)"/>
        <path id="Path_71" data-name="Path 71" class="cls-17" d="M543.3,299.227c1.366,6.556,2.663,13.111,4.029,19.667.751-1.366,1.434-2.663,2.185-4.029-1.639-6.078-3.21-12.155-4.848-18.165C544.188,297.519,543.71,298.407,543.3,299.227Z" transform="translate(-504.159 -290.596)"/>
      </g>
      <path id="Path_72" data-name="Path 72" class="cls-15" d="M483.5,510.3a1.464,1.464,0,0,0,1.571,1.3h7.239a1.419,1.419,0,0,0,1.571-1.3V505.8a1.464,1.464,0,0,0-1.571-1.3h-7.239a1.419,1.419,0,0,0-1.571,1.3Z" transform="translate(-452.428 -334.87)"/>
      <path id="Path_73" data-name="Path 73" class="cls-15" d="M479.724,510.992a1.347,1.347,0,0,0,.478,1.844h0a1.452,1.452,0,0,0,1.639-.956l1.639-3.961a1.347,1.347,0,0,0-.478-1.844h0a1.452,1.452,0,0,0-1.639.956Z" transform="translate(-451.178 -335.353)"/>
      <path id="Path_74" data-name="Path 74" class="cls-15" d="M500,516.568a1.526,1.526,0,0,0,1.775-1.093h0a1.492,1.492,0,0,0-1.366-1.571l-4.439-.615a1.526,1.526,0,0,0-1.776,1.093h0a1.492,1.492,0,0,0,1.366,1.571Z" transform="translate(-455.813 -337.651)"/>
      <path id="Path_75" data-name="Path 75" class="cls-15" d="M494.547,517.541a1.644,1.644,0,0,0,2.185-.751h0c.273-.751-.341-1.571-1.229-1.912l-4.849-1.639a1.644,1.644,0,0,0-2.185.751h0c-.273.751.341,1.571,1.229,1.912Z" transform="translate(-453.983 -337.599)"/>
      <path id="Path_76" data-name="Path 76" class="cls-15" d="M488.392,516.9a1.454,1.454,0,0,0,1.98-.41h0a1.449,1.449,0,0,0-.819-1.844l-4.029-2.049a1.454,1.454,0,0,0-1.98.41h0a1.449,1.449,0,0,0,.819,1.844Z" transform="translate(-452.403 -337.372)"/>
      <path id="Path_77" data-name="Path 77" class="cls-15" d="M516.4,510.4a1.464,1.464,0,0,0,1.571,1.3h7.239a1.419,1.419,0,0,0,1.571-1.3V505.9a1.464,1.464,0,0,0-1.571-1.3h-7.239a1.418,1.418,0,0,0-1.571,1.3Z" transform="translate(-462.861 -334.902)"/>
      <path id="Path_78" data-name="Path 78" class="cls-15" d="M512.624,511.092a1.347,1.347,0,0,0,.478,1.844h0a1.452,1.452,0,0,0,1.639-.956l1.639-3.961a1.347,1.347,0,0,0-.478-1.844h0a1.452,1.452,0,0,0-1.639.956Z" transform="translate(-461.611 -335.385)"/>
      <path id="Path_79" data-name="Path 79" class="cls-15" d="M532.9,516.668a1.526,1.526,0,0,0,1.775-1.093h0A1.492,1.492,0,0,0,533.306,514l-4.439-.615a1.526,1.526,0,0,0-1.776,1.093h0a1.492,1.492,0,0,0,1.366,1.571Z" transform="translate(-466.246 -337.683)"/>
      <path id="Path_80" data-name="Path 80" class="cls-15" d="M527.447,517.641a1.644,1.644,0,0,0,2.185-.751h0c.273-.751-.341-1.571-1.229-1.912l-4.849-1.639a1.644,1.644,0,0,0-2.185.751h0c-.273.751.342,1.571,1.229,1.912Z" transform="translate(-464.416 -337.631)"/>
      <path id="Path_81" data-name="Path 81" class="cls-15" d="M521.292,517a1.454,1.454,0,0,0,1.98-.41h0a1.449,1.449,0,0,0-.819-1.844l-4.029-2.049a1.454,1.454,0,0,0-1.98.41h0a1.449,1.449,0,0,0,.819,1.844Z" transform="translate(-462.836 -337.403)"/>
      <path id="Path_82" data-name="Path 82" class="cls-16" d="M494.163,476.94l-.615-3.346-.137-26.291-.137-31.959c0-6.419-2.936-7.443-6.487-7.443-4.78,0-6.351,10.038-6.351,17.14l.137,22.262.068,27.794-.341,1.844,2.732-1.844.956,2.254,1.98-1.775,1.707,1.775L488.7,475.1l2.117,2.254,1.366-1.98Z" transform="translate(-451.413 -304.237)"/>
      <path id="Path_83" data-name="Path 83" class="cls-16" d="M526.563,476.74l-.615-3.346-.137-26.291-.137-31.959c0-6.419-2.936-7.443-6.487-7.443-4.78,0-6.351,10.038-6.351,17.141l.137,22.262.068,27.794-.341,1.844,2.732-1.844.956,2.253,1.98-1.775,1.707,1.775L521.1,474.9l2.117,2.253,1.366-1.98Z" transform="translate(-461.688 -304.174)"/>
      <path id="Path_84" data-name="Path 84" class="cls-17" d="M518.136,370.092c-4.3-9.082-12.36-17.96-21.784-17.892h-5.395c-13.794.068-24.925,13.248-24.857,29.364l.068,15.638c.068,16.185,11.336,29.228,25.13,29.159h5.395a22.2,22.2,0,0,0,14-5.122c-.068-1.366-.41-4.371,1.5-4.575v-.956a1.374,1.374,0,0,1,1.161-1.3c.137-.888.341-1.707.546-2.595a1.339,1.339,0,0,1,.82-.888,7.557,7.557,0,0,0-.137-1.3c-.273-1.639,2.39-2.322,2.527-.683.137,1.571,2.663-32.984,1.571-35.305l2.595-3.414C521.346,370.228,518.546,370.023,518.136,370.092Z" transform="translate(-446.91 -286.574)"/>
      <path id="Path_85" data-name="Path 85" class="cls-16" d="M519.663,395.8c.068,16.185-10.858,29.3-24.447,29.364h-5.327c-13.589.068-24.652-12.975-24.721-29.159l-.068-15.638c-.068-16.184,10.858-29.3,24.447-29.364h5.327c13.59-.068,24.652,12.975,24.721,29.159Z" transform="translate(-446.593 -286.194)"/>
      <path id="Path_86" data-name="Path 86" class="cls-15" d="M541.978,404.137a34.234,34.234,0,0,1-1.844,8.946,31.04,31.04,0,0,1-2.663,5.6,47.651,47.651,0,0,0,1.024-4.848,57.312,57.312,0,0,0,.615-10.858c0-5.327-.068-8.741-.273-15.092-.273-7.853-.478-10.517-1.366-14-.546-2.117-1.161-3.824-1.571-4.985h.956a26.932,26.932,0,0,1,3.073,5.736,32.089,32.089,0,0,1,1.98,10.38c0,.273,0,2.117.068,5.8v6.829C542.046,401.542,542.046,403.522,541.978,404.137Z" transform="translate(-469.045 -291.87)"/>
      <g id="Group_33" data-name="Group 33" transform="translate(0 1.569)">
        <path id="Path_87" data-name="Path 87" class="cls-17" d="M460.7,378.3l6.761,8.126,8.673-7.648s-3.073-1.912-4.166-1.161l-6.214,6.556Z" transform="translate(-445.198 -296.148)"/>
        <path id="Path_88" data-name="Path 88" class="cls-17" d="M481.8,376.26l20.009,5.668,14.546-12.087,6.078,1.912,1.366.546q-.307-.717-.82-2.049c-.273-.546-.478-1.024-.546-1.161-.888-1.639-7.853-.546-9.356-.273L499.35,381.109Z" transform="translate(-451.889 -293.219)"/>
        <path id="Path_89" data-name="Path 89" class="cls-16" d="M467.569,259.014s2.117,2.732.068,3.21c-8.536,1.912-29.774,8.195-29.637,22.945.2,20.418,6.965,49.919,6.965,49.919l2.254-.819-1.776,5.327,4.234-1.844-.068,5.053,4.029-2.663,5.531,6.419,5.8-6.078,20.418,5.736L498.5,334.473l8.878,2.663,2.732-6.9,3.824.751-1.775-5.258,4.37-.546-3.414-5.463,4.507,1.776s-4.849-33.871-10.448-49.441c-4.37-12.224-19.121-12.77-28.067-11.882-.819.068-2.663-1.844-3.414-1.776,0,0-.751,2.8-1.366,2.458A38.66,38.66,0,0,0,467.569,259.014Z" transform="translate(-437.999 -258.397)"/>
      </g>
      <g id="Group_34" data-name="Group 34" transform="translate(71.704)">
        <circle id="Ellipse_8" data-name="Ellipse 8" class="cls-23" cx="16.458" cy="16.458" r="16.458"/>
        <path id="Path_90" data-name="Path 90" class="cls-7" d="M561.551,298.809a16.289,16.289,0,0,0,11.951-5.19,14.334,14.334,0,0,0-23.9,0A16.289,16.289,0,0,0,561.551,298.809Z" transform="translate(-545.093 -265.962)"/>
        <circle id="Ellipse_9" data-name="Ellipse 9" class="cls-7" cx="6.487" cy="6.487" r="6.487" transform="translate(9.97 6.283)"/>
      </g>
      <path id="Path_91" data-name="Path 91" class="cls-17" d="M558.02,305.006c-.683-2.458-1.571-4.439-2.732-4.507-4.439-.341-8.878,26.633-12.155,26.223-.683-.068-1.366-1.366-1.844-5.258-1.639,2.527-3.278,5.053-4.985,7.648-3.414,5.122-6.9,9.97-10.38,14.546a24.772,24.772,0,0,0-4.644,9.014,36.65,36.65,0,0,0-1.98,9.082c2.39,3.278,4.507,3.961,5.873,4.1,1.434.137,4.1-.2,17.345-17.141,3.346-4.3,3.892-5.19,9.287-12.155,1.707-2.185,2.049-2.6,2.663-3.483,3.21-4.849,4.234-8.878,5.531-13.18a109.221,109.221,0,0,1,5.327-13.658C562.868,305.825,560.478,305.415,558.02,305.006Z" transform="translate(-463.781 -270.178)"/>
      <g id="Group_42" data-name="Group 42" transform="translate(55.668 19.321)">
        <g id="Group_35" data-name="Group 35" transform="translate(34.405 2.454)">
          <path id="Path_92" data-name="Path 92" class="cls-19" d="M574.475,288.269a1.54,1.54,0,0,1,2.117.341l4.371,5.736a1.5,1.5,0,0,1-.2,2.117l-4.029,3.073a1.54,1.54,0,0,1-2.117-.341l-4.37-5.736a1.5,1.5,0,0,1,.2-2.117Z" transform="translate(-569.899 -287.986)"/>
        </g>
        <g id="Group_36" data-name="Group 36" transform="translate(4.017 37.291)">
          <path id="Path_93" data-name="Path 93" class="cls-20" d="M525.4,339" transform="translate(-525.4 -339)"/>
        </g>
        <g id="Group_37" data-name="Group 37" transform="translate(34.9 0.292)">
          <path id="Path_94" data-name="Path 94" class="cls-19" d="M572.247,285.694a1.142,1.142,0,0,1,1.571-.751h0a1.418,1.418,0,0,1,.478,1.776l-1.5,3.619a1.142,1.142,0,0,1-1.571.751h0a1.419,1.419,0,0,1-.478-1.776Z" transform="translate(-570.624 -284.82)"/>
        </g>
        <g id="Group_38" data-name="Group 38" transform="translate(40.129 5.433)">
          <path id="Path_95" data-name="Path 95" class="cls-19" d="M583.415,292.657a1.624,1.624,0,0,1,2.322.41h0a1.74,1.74,0,0,1-.683,2.322l-4.234,2.732a1.623,1.623,0,0,1-2.322-.41h0a1.74,1.74,0,0,1,.683-2.322Z" transform="translate(-578.28 -292.348)"/>
        </g>
        <g id="Group_39" data-name="Group 39" transform="translate(37.633 2.879)">
          <path id="Path_96" data-name="Path 96" class="cls-19" d="M580.959,289.081c1.024-.683,2.185-.615,2.663.137h0a2,2,0,0,1-.956,2.527l-5.19,3.414c-1.024.683-2.185.615-2.663-.137h0a2,2,0,0,1,.956-2.527Z" transform="translate(-574.625 -288.608)"/>
        </g>
        <g id="Group_40" data-name="Group 40" transform="translate(37.058)">
          <path id="Path_97" data-name="Path 97" class="cls-19" d="M579.463,284.807a1.789,1.789,0,0,1,2.527.2h0a1.881,1.881,0,0,1-.751,2.458l-4.712,3.21a1.789,1.789,0,0,1-2.527-.2h0a1.881,1.881,0,0,1,.751-2.458Z" transform="translate(-573.783 -284.393)"/>
        </g>
        <g id="Group_41" data-name="Group 41" class="cls-21" transform="translate(34.747 6.424)">
          <path id="Path_98" data-name="Path 98" class="cls-22" d="M580.848,299.741l.819-1.912-2.868.819-.41-2.595-2.185,1.024-1.161-2.049-1.571,1.434-1.161-2.663-1.912,1.434.137.888,2.936,1.639,4.166,1.98Z" transform="translate(-570.4 -293.8)"/>
        </g>
        <path id="Path_99" data-name="Path 99" class="cls-16" d="M551.3,323.976l11.541-29.228.478-2.049,1.776,2.936,1.844-2.049,1.093,2.595,2.322-1.229v2.732l2.868-1.571.478,2.595,2.527-.956-1.98,3.278L563.319,328.62a4.561,4.561,0,0,1-1.161,1.639,5.928,5.928,0,0,1-4.712,1.229C554.51,331.147,551.983,328.074,551.3,323.976Z" transform="translate(-529.596 -287.027)"/>
        <path id="Path_100" data-name="Path 100" class="cls-16" d="M552.625,342.417,530.978,371.3c-4.37,5.8-7.375,4.985-10.175,2.868-3.824-2.868,1.639-12.907,6.487-19.326L542.382,334.7" transform="translate(-519.517 -300.346)"/>
      </g>
      <path id="Path_101" data-name="Path 101" class="cls-15" d="M560.9,407.5" transform="translate(-476.972 -304.111)"/>
    </g>
  </g>
</svg>
