<svg id="landing-page" xmlns="http://www.w3.org/2000/svg" viewBox="0 0 68.297 68.297">
  <defs>
    <style>
      .cls-1 {
        fill: #fff;
      }
    </style>
  </defs>
  <g id="Group_77" data-name="Group 77">
    <g id="Group_76" data-name="Group 76">
      <path id="Path_143" data-name="Path 143" class="cls-1" d="M62.088,0H6.209A6.215,6.215,0,0,0,0,6.209V62.088A6.215,6.215,0,0,0,6.209,68.3H62.088A6.215,6.215,0,0,0,68.3,62.088V6.209A6.215,6.215,0,0,0,62.088,0Zm3.1,62.088a3.108,3.108,0,0,1-3.1,3.1H6.209a3.108,3.108,0,0,1-3.1-3.1V37.38c.17.021.347.014.515.042a1.475,1.475,0,0,0,.256.021,1.552,1.552,0,0,0,.253-3.083c-.337-.056-.683-.05-1.025-.084V15.522H65.192Zm0-49.67H3.1V6.209a3.108,3.108,0,0,1,3.1-3.1H62.088a3.108,3.108,0,0,1,3.1,3.1v6.209Z"/>
      <circle id="Ellipse_10" data-name="Ellipse 10" class="cls-1" cx="1.552" cy="1.552" r="1.552" transform="translate(6.209 6.209)"/>
      <circle id="Ellipse_11" data-name="Ellipse 11" class="cls-1" cx="1.552" cy="1.552" r="1.552" transform="translate(12.417 6.209)"/>
      <circle id="Ellipse_12" data-name="Ellipse 12" class="cls-1" cx="1.552" cy="1.552" r="1.552" transform="translate(18.626 6.209)"/>
      <path id="Path_144" data-name="Path 144" class="cls-1" d="M150.025,146.376l8.735,5.823,1.454,10.179a1.554,1.554,0,0,0,1.229,1.3,1.645,1.645,0,0,0,.308.03,1.552,1.552,0,0,0,1.331-.753l3.819-6.365,7.959,5.306a1.552,1.552,0,0,0,2.3-.715l12.417-31.044a1.552,1.552,0,0,0-2.039-2.008l-37.253,15.522a1.552,1.552,0,0,0-.264,2.724Zm15.067,7.2s0,.009,0,.013-.008.007-.01.011l-2.407,4.012-.8-5.569,7.157-4.772Zm20.233-21.158L174.99,158.253l-6.468-4.311,6.962-11.14a1.552,1.552,0,0,0-2.177-2.115L160.2,149.427,154.16,145.4Z" transform="translate(-127.603 -109.384)"/>
      <path id="Path_145" data-name="Path 145" class="cls-1" d="M144.962,406.175a10.313,10.313,0,0,0,5.513-.011,1.552,1.552,0,1,0-.837-2.989,7.268,7.268,0,0,1-3.852.008,1.552,1.552,0,1,0-.825,2.992Z" transform="translate(-122.894 -344.457)"/>
      <path id="Path_146" data-name="Path 146" class="cls-1" d="M102.264,358.3a1.554,1.554,0,0,0-1.179,1.852,10.317,10.317,0,0,0,2.6,4.866,1.552,1.552,0,1,0,2.249-2.14,7.179,7.179,0,0,1-1.813-3.4A1.566,1.566,0,0,0,102.264,358.3Z" transform="translate(-86.344 -306.133)"/>
      <path id="Path_147" data-name="Path 147" class="cls-1" d="M47.467,249.578a12.541,12.541,0,0,1,3.286,2.618,1.552,1.552,0,1,0,2.313-2.071,15.614,15.614,0,0,0-4.1-3.264,1.552,1.552,0,1,0-1.5,2.716Z" transform="translate(-39.875 -210.773)"/>
      <path id="Path_148" data-name="Path 148" class="cls-1" d="M89.441,296.49a12.478,12.478,0,0,1,.853,3.238l.12.96a1.553,1.553,0,0,0,1.539,1.36,1.7,1.7,0,0,0,.194-.012,1.552,1.552,0,0,0,1.347-1.733l-.12-.96a15.576,15.576,0,0,0-1.066-4.041,1.552,1.552,0,1,0-2.868,1.188Z" transform="translate(-76.325 -251.513)"/>
      <path id="Path_149" data-name="Path 149" class="cls-1" d="M207.622,373.587a1.549,1.549,0,0,0-2.152.43l-.506.758a7.228,7.228,0,0,1-.723.917,1.552,1.552,0,1,0,2.274,2.113,10.25,10.25,0,0,0,1.034-1.31l.5-.756A1.551,1.551,0,0,0,207.622,373.587Z" transform="translate(-174.165 -319)"/>
    </g>
  </g>
</svg>
