<svg xmlns="http://www.w3.org/2000/svg" viewBox="0 0 63.164 58.448">
  <defs>
    <style>
      .cls-1 {
        fill: #fff;
      }
    </style>
  </defs>
  <g id="shopping-cart" transform="translate(0 -19.114)">
    <g id="Group_67" data-name="Group 67" transform="translate(20.93 66.452)">
      <g id="Group_66" data-name="Group 66">
        <path id="Path_138" data-name="Path 138" class="cls-1" d="M175.211,402.828a5.555,5.555,0,1,0,5.555,5.555A5.561,5.561,0,0,0,175.211,402.828Zm0,8.008a2.453,2.453,0,1,1,2.453-2.453A2.456,2.456,0,0,1,175.211,410.836Z" transform="translate(-169.656 -402.828)"/>
      </g>
    </g>
    <g id="Group_69" data-name="Group 69" transform="translate(40.415 66.452)">
      <g id="Group_68" data-name="Group 68">
        <path id="Path_139" data-name="Path 139" class="cls-1" d="M333.156,402.828a5.555,5.555,0,1,0,5.555,5.555A5.561,5.561,0,0,0,333.156,402.828Zm0,8.008a2.453,2.453,0,1,1,2.453-2.453A2.456,2.456,0,0,1,333.156,410.836Z" transform="translate(-327.601 -402.828)"/>
      </g>
    </g>
    <g id="Group_71" data-name="Group 71" transform="translate(23.562 37.205)">
      <g id="Group_70" data-name="Group 70">
        <path id="Path_140" data-name="Path 140" class="cls-1" d="M214.771,165.755H192.547a1.551,1.551,0,0,0,0,3.1h22.225a1.551,1.551,0,1,0,0-3.1Z" transform="translate(-190.996 -165.755)"/>
      </g>
    </g>
    <g id="Group_73" data-name="Group 73" transform="translate(24.772 45.258)">
      <g id="Group_72" data-name="Group 72">
        <path id="Path_141" data-name="Path 141" class="cls-1" d="M222.158,231.035H202.353a1.551,1.551,0,1,0,0,3.1h19.805a1.551,1.551,0,0,0,0-3.1Z" transform="translate(-200.802 -231.035)"/>
      </g>
    </g>
    <g id="Group_75" data-name="Group 75" transform="translate(0 19.114)">
      <g id="Group_74" data-name="Group 74" transform="translate(0 0)">
        <path id="Path_142" data-name="Path 142" class="cls-1" d="M62.466,30.295a3.089,3.089,0,0,0-2.4-1.142H11.754l-.976-4.736a3.105,3.105,0,0,0-1.8-2.219L2.168,19.243A1.551,1.551,0,0,0,.933,22.088L7.74,25.043l7.5,36.426a3.113,3.113,0,0,0,3.038,2.476H55.436a1.551,1.551,0,1,0,0-3.1H18.282l-.913-4.431H55.723a3.113,3.113,0,0,0,3.038-2.476L63.1,32.88A3.09,3.09,0,0,0,62.466,30.295ZM55.723,53.31H16.731L12.393,32.254H60.061Z" transform="translate(0 -19.114)"/>
      </g>
    </g>
  </g>
</svg>
